<svg width="37" height="36" viewBox="0 0 37 36" fill="none" xmlns="http://www.w3.org/2000/svg">
<path d="M10.94 28.125C11.559 27.1135 11.8425 25.9323 11.75 24.75C11.7064 23.869 11.3368 23.0356 10.7131 22.4119C10.0893 21.7882 9.25598 21.4186 8.37496 21.375C7.49394 21.4186 6.66059 21.7882 6.03685 22.4119C5.41312 23.0356 5.04355 23.869 4.99996 24.75C4.91417 25.9347 5.20559 27.1161 5.83246 28.125C5.42746 28.2375 2.77246 29.475 2.77246 31.5C2.77246 31.7984 2.89099 32.0845 3.10197 32.2955C3.31294 32.5065 3.59909 32.625 3.89746 32.625C4.19583 32.625 4.48198 32.5065 4.69296 32.2955C4.90393 32.0845 5.02246 31.7984 5.02246 31.5C5.02246 31.185 6.02371 30.51 6.46246 30.375H6.58621C7.04864 30.2758 7.476 30.0543 7.82371 29.7338C8.19526 29.8057 8.57716 29.8057 8.94871 29.7338C9.29643 30.0543 9.72378 30.2758 10.1862 30.375H10.265C10.7487 30.555 11.705 31.2412 11.75 31.5562C11.75 31.8546 11.8685 32.1408 12.0795 32.3517C12.2904 32.5627 12.5766 32.6812 12.875 32.6812C13.1733 32.6812 13.4595 32.5627 13.6705 32.3517C13.8814 32.1408 14 31.8546 14 31.5562C14 29.52 11.345 28.2825 10.94 28.125ZM8.37496 23.625C8.65955 23.6641 8.92355 23.7952 9.12667 23.9983C9.32979 24.2014 9.46089 24.4654 9.49996 24.75C9.57598 25.212 9.54338 25.6853 9.40474 26.1324C9.2661 26.5796 9.02523 26.9883 8.70121 27.3263C8.66515 27.3796 8.61655 27.4233 8.55967 27.4535C8.50279 27.4837 8.43937 27.4995 8.37496 27.4995C8.31055 27.4995 8.24713 27.4837 8.19025 27.4535C8.13337 27.4233 8.08477 27.3796 8.04871 27.3263C7.72469 26.9883 7.48382 26.5796 7.34518 26.1324C7.20654 25.6853 7.17394 25.212 7.24996 24.75C7.28903 24.4654 7.42013 24.2014 7.62325 23.9983C7.82637 23.7952 8.09037 23.6641 8.37496 23.625Z" fill="#3DCD58"/>
<path d="M31.19 28.125C31.809 27.1135 32.0925 25.9323 32 24.75C31.9564 23.869 31.5868 23.0356 30.9631 22.4119C30.3393 21.7882 29.506 21.4186 28.625 21.375C27.7439 21.4186 26.9106 21.7882 26.2869 22.4119C25.6631 23.0356 25.2935 23.869 25.25 24.75C25.1642 25.9347 25.4556 27.1161 26.0825 28.125C25.6775 28.2375 23.0225 29.475 23.0225 31.5C23.0225 31.7984 23.141 32.0845 23.352 32.2955C23.5629 32.5065 23.8491 32.625 24.1475 32.625C24.4458 32.625 24.732 32.5065 24.943 32.2955C25.1539 32.0845 25.2725 31.7984 25.2725 31.5C25.2725 31.185 26.2737 30.51 26.7125 30.375H26.8362C27.2986 30.2758 27.726 30.0543 28.0737 29.7338C28.4453 29.8057 28.8272 29.8057 29.1987 29.7338C29.5464 30.0543 29.9738 30.2758 30.4362 30.375H30.515C30.9987 30.555 31.955 31.2412 32 31.5562C32 31.8546 32.1185 32.1408 32.3295 32.3517C32.5404 32.5627 32.8266 32.6812 33.125 32.6812C33.4233 32.6812 33.7095 32.5627 33.9205 32.3517C34.1314 32.1408 34.25 31.8546 34.25 31.5562C34.25 29.52 31.595 28.2825 31.19 28.125ZM28.625 23.625C28.9096 23.6641 29.1735 23.7952 29.3767 23.9983C29.5798 24.2014 29.7109 24.4654 29.75 24.75C29.826 25.212 29.7934 25.6853 29.6547 26.1324C29.5161 26.5796 29.2752 26.9883 28.9512 27.3263C28.9152 27.3796 28.8666 27.4233 28.8097 27.4535C28.7528 27.4837 28.6894 27.4995 28.625 27.4995C28.5606 27.4995 28.4971 27.4837 28.4403 27.4535C28.3834 27.4233 28.3348 27.3796 28.2987 27.3263C27.9747 26.9883 27.7338 26.5796 27.5952 26.1324C27.4565 25.6853 27.4239 25.212 27.5 24.75C27.539 24.4654 27.6701 24.2014 27.8733 23.9983C28.0764 23.7952 28.3404 23.6641 28.625 23.625Z" fill="#3DCD58"/>
<path d="M14 14.625C14.2983 14.625 14.5845 14.5065 14.7955 14.2955C15.0064 14.0845 15.125 13.7984 15.125 13.5C15.125 13.185 16.1262 12.4987 16.565 12.375H16.6887C17.1533 12.2753 17.5814 12.0495 17.9262 11.7225C18.2962 11.8089 18.6812 11.8089 19.0512 11.7225C19.396 12.0495 19.8241 12.2753 20.2887 12.375H20.3675C20.8512 12.555 21.8075 13.2413 21.8525 13.5563C21.8525 13.8546 21.971 14.1408 22.182 14.3517C22.3929 14.5627 22.6791 14.6813 22.9775 14.6813C23.2758 14.6813 23.562 14.5627 23.773 14.3517C23.9839 14.1408 24.1025 13.8546 24.1025 13.5563C24.1025 11.565 21.4475 10.3388 21.0425 10.1813C21.681 9.15649 21.9729 7.95346 21.875 6.75C21.8314 5.86898 21.4618 5.03563 20.8381 4.41189C20.2143 3.78816 19.381 3.41859 18.5 3.375C17.6189 3.41859 16.7856 3.78816 16.1619 4.41189C15.5381 5.03563 15.1685 5.86898 15.125 6.75C15.0392 7.93468 15.3306 9.11611 15.9575 10.125C15.5525 10.2375 12.8975 11.4638 12.8975 13.5C12.8974 13.7945 13.0128 14.0773 13.219 14.2876C13.4251 14.498 13.7055 14.6191 14 14.625ZM18.5 5.625C18.7846 5.66407 19.0485 5.79517 19.2517 5.99829C19.4548 6.20141 19.5859 6.46541 19.625 6.75C19.701 7.21195 19.6684 7.68526 19.5297 8.13243C19.3911 8.57959 19.1502 8.98833 18.8262 9.32625C18.7834 9.36911 18.7325 9.40311 18.6765 9.42631C18.6206 9.4495 18.5606 9.46144 18.5 9.46144C18.4394 9.46144 18.3794 9.4495 18.3234 9.42631C18.2674 9.40311 18.2165 9.36911 18.1737 9.32625C17.8497 8.98833 17.6088 8.57959 17.4702 8.13243C17.3315 7.68526 17.2989 7.21195 17.375 6.75C17.414 6.46541 17.5451 6.20141 17.7482 5.99829C17.9514 5.79517 18.2154 5.66407 18.5 5.625Z" fill="#3DCD58"/>
<path d="M23.675 22.725L19.625 19.6875V15.75C19.625 15.4516 19.5065 15.1655 19.2955 14.9545C19.0845 14.7435 18.7984 14.625 18.5 14.625C18.2016 14.625 17.9155 14.7435 17.7045 14.9545C17.4935 15.1655 17.375 15.4516 17.375 15.75V19.6875L13.325 22.725C13.0863 22.904 12.9285 23.1705 12.8863 23.4659C12.8441 23.7613 12.921 24.0613 13.1 24.3C13.2048 24.4397 13.3407 24.5531 13.4969 24.6312C13.6531 24.7093 13.8254 24.75 14 24.75C14.2434 24.75 14.4803 24.671 14.675 24.525L18.5 21.6562L22.325 24.525C22.5197 24.671 22.7566 24.75 23 24.75C23.1747 24.75 23.3469 24.7093 23.5031 24.6312C23.6593 24.5531 23.7952 24.4397 23.9 24.3C23.9886 24.1818 24.0531 24.0473 24.0898 23.9042C24.1265 23.7611 24.1346 23.6122 24.1137 23.4659C24.0928 23.3196 24.0433 23.1789 23.968 23.0518C23.8928 22.9247 23.7932 22.8136 23.675 22.725Z" fill="#3DCD58"/>
</svg>
