<svg width="37" height="36" viewBox="0 0 37 36" fill="none" xmlns="http://www.w3.org/2000/svg">
<path d="M26.5999 5.39999C29.0852 5.39999 31.0999 7.41472 31.0999 9.89999V15.775C30.5806 15.3101 29.9706 14.9443 29.2999 14.7073V12.6H7.6999V26.1C7.6999 27.5911 8.90873 28.8 10.3999 28.8H18.5456C18.6108 29.4318 18.7445 30.0334 18.9409 30.6H10.3999C7.91462 30.6 5.8999 28.5853 5.8999 26.1V9.89999C5.8999 7.41472 7.91462 5.39999 10.3999 5.39999H26.5999ZM26.5999 7.19999H10.3999C8.90873 7.19999 7.6999 8.40882 7.6999 9.89999V10.8H29.2999V9.89999C29.2999 8.40882 28.091 7.19999 26.5999 7.19999Z" fill="#3DCD58"/>
<path d="M29.2999 16.6816C30.3759 17.3041 31.0999 18.4675 31.0999 19.8C31.0999 21.1325 30.3759 22.2959 29.2999 22.9183C28.7703 23.2247 28.1556 23.4 27.4999 23.4C25.5116 23.4 23.8999 21.7883 23.8999 19.8C23.8999 17.8118 25.5116 16.2 27.4999 16.2C28.1556 16.2 28.7703 16.3753 29.2999 16.6816Z" fill="#3DCD58"/>
<path d="M20.3578 28.8C20.3197 28.5098 20.3 28.2096 20.3 27.9C20.3 26.4089 21.5089 25.2 23 25.2H32C33.4912 25.2 34.7 26.4089 34.7 27.9C34.7 29.909 33.8739 31.5185 32.5183 32.6066C31.1839 33.6776 29.3956 34.2 27.5 34.2C25.6045 34.2 23.8162 33.6776 22.4818 32.6066C21.8045 32.0629 21.2593 31.3889 20.8832 30.6C20.6228 30.0535 20.4435 29.4518 20.3578 28.8Z" fill="#3DCD58"/>
</svg>
