<svg width="169" height="22" viewBox="0 0 169 22" fill="none" xmlns="http://www.w3.org/2000/svg">
<path fill-rule="evenodd" clip-rule="evenodd" d="M169 0H0V3.17535C0 1.97394 0.973999 1 2.17542 1H2.82458C4.026 1 5 1.97394 5 3.17535V18.8246C5 20.0261 4.026 21 2.82458 21H2.17542C0.973999 21 0 20.0261 0 18.8246V22H169V0ZM10.801 1C9.59961 1 8.62561 1.97394 8.62561 3.17535V18.8246C8.62561 20.0261 9.59961 21 10.801 21H11.4502C12.6516 21 13.6256 20.0261 13.6256 18.8246V3.17535C13.6256 1.97394 12.6516 1 11.4502 1H10.801ZM17.2512 3.17535C17.2512 1.97394 18.2252 1 19.4266 1H20.0758C21.2772 1 22.2512 1.97394 22.2512 3.17535V18.8246C22.2512 20.0261 21.2772 21 20.0758 21H19.4266C18.2252 21 17.2512 20.0261 17.2512 18.8246V3.17535ZM28.0522 1C26.8508 1 25.8768 1.97394 25.8768 3.17535V18.8246C25.8768 20.0261 26.8508 21 28.0522 21H28.7014C29.9028 21 30.8768 20.0261 30.8768 18.8246V3.17535C30.8768 1.97394 29.9028 1 28.7014 1H28.0522ZM34.5024 3.17535C34.5024 1.97394 35.4764 1 36.6779 1H37.327C38.5284 1 39.5024 1.97394 39.5024 3.17535V18.8246C39.5024 20.0261 38.5284 21 37.327 21H36.6779C35.4764 21 34.5024 20.0261 34.5024 18.8246V3.17535ZM45.3033 1C44.1019 1 43.1279 1.97394 43.1279 3.17535V18.8246C43.1279 20.0261 44.1019 21 45.3033 21H45.9525C47.1539 21 48.1279 20.0261 48.1279 18.8246V3.17535C48.1279 1.97394 47.1539 1 45.9525 1H45.3033ZM51.7535 3.17535C51.7535 1.97394 52.7275 1 53.929 1H54.5781C55.7795 1 56.7535 1.97394 56.7535 3.17535V18.8246C56.7535 20.0261 55.7795 21 54.5781 21H53.929C52.7275 21 51.7535 20.0261 51.7535 18.8246V3.17535ZM62.5546 1C61.3531 1 60.3792 1.97394 60.3792 3.17535V18.8246C60.3792 20.0261 61.3531 21 62.5546 21H63.2037C64.4052 21 65.3792 20.0261 65.3792 18.8246V3.17535C65.3792 1.97394 64.4052 1 63.2037 1H62.5546ZM69.0048 3.17535C69.0048 1.97394 69.9788 1 71.1802 1H71.8293C73.0308 1 74.0048 1.97394 74.0048 3.17535V18.8246C74.0048 20.0261 73.0308 21 71.8293 21H71.1802C69.9788 21 69.0048 20.0261 69.0048 18.8246V3.17535ZM79.8058 1C78.6044 1 77.6304 1.97394 77.6304 3.17535V18.8246C77.6304 20.0261 78.6044 21 79.8058 21H80.455C81.6564 21 82.6304 20.0261 82.6304 18.8246V3.17535C82.6304 1.97394 81.6564 1 80.455 1H79.8058ZM86.256 3.17535C86.256 1.97394 87.23 1 88.4314 1H89.0806C90.282 1 91.256 1.97394 91.256 3.17535V18.8246C91.256 20.0261 90.282 21 89.0806 21H88.4314C87.23 21 86.256 20.0261 86.256 18.8246V3.17535ZM97.057 1C95.8556 1 94.8816 1.97394 94.8816 3.17535V18.8246C94.8816 20.0261 95.8556 21 97.057 21H97.7062C98.9076 21 99.8816 20.0261 99.8816 18.8246V3.17535C99.8816 1.97394 98.9076 1 97.7062 1H97.057ZM103.507 3.17535C103.507 1.97394 104.481 1 105.683 1H106.332C107.533 1 108.507 1.97394 108.507 3.17535V18.8246C108.507 20.0261 107.533 21 106.332 21H105.683C104.481 21 103.507 20.0261 103.507 18.8246V3.17535ZM114.308 1C113.107 1 112.133 1.97394 112.133 3.17535V18.8246C112.133 20.0261 113.107 21 114.308 21H114.957C116.159 21 117.133 20.0261 117.133 18.8246V3.17535C117.133 1.97394 116.159 1 114.957 1H114.308ZM120.758 3.17535C120.758 1.97394 121.732 1 122.934 1H123.583C124.784 1 125.758 1.97394 125.758 3.17535V18.8246C125.758 20.0261 124.784 21 123.583 21H122.934C121.732 21 120.758 20.0261 120.758 18.8246V3.17535ZM131.559 1C130.358 1 129.384 1.97394 129.384 3.17535V18.8246C129.384 20.0261 130.358 21 131.559 21H132.208C133.41 21 134.384 20.0261 134.384 18.8246V3.17535C134.384 1.97394 133.41 1 132.208 1H131.559ZM138.01 3.17535C138.01 1.97394 138.983 1 140.185 1H140.834C142.036 1 143.01 1.97394 143.01 3.17535V18.8246C143.01 20.0261 142.036 21 140.834 21H140.185C138.983 21 138.01 20.0261 138.01 18.8246V3.17535ZM148.811 1C147.609 1 146.635 1.97394 146.635 3.17535V18.8246C146.635 20.0261 147.609 21 148.811 21H149.46C150.661 21 151.635 20.0261 151.635 18.8246V3.17535C151.635 1.97394 150.661 1 149.46 1H148.811ZM155.261 3.17535C155.261 1.97394 156.235 1 157.436 1H158.085C159.287 1 160.261 1.97394 160.261 3.17535V18.8246C160.261 20.0261 159.287 21 158.085 21H157.436C156.235 21 155.261 20.0261 155.261 18.8246V3.17535ZM166.062 1C164.86 1 163.886 1.97394 163.886 3.17535V18.8246C163.886 20.0261 164.86 21 166.062 21H166.711C167.912 21 168.886 20.0261 168.886 18.8246V3.17535C168.886 1.97394 167.912 1 166.711 1H166.062Z" fill="white"/>
</svg>
