<svg width="37" height="36" viewBox="0 0 37 36" fill="none" xmlns="http://www.w3.org/2000/svg">
<path d="M32.9971 6.75C32.8655 6.75 32.7392 6.80186 32.6456 6.89434L24.4139 15.0282C24.0981 15.3403 23.5625 15.1166 23.5625 14.6726V7.25C23.5625 6.97386 23.3386 6.75 23.0625 6.75H21.3441C21.2103 6.75 21.0821 6.80366 20.9881 6.89896L13.1686 14.8302C12.8546 15.1486 12.3125 14.9263 12.3125 14.4791V1.625C12.3125 1.34886 12.0886 1.125 11.8125 1.125H2.125C1.84886 1.125 1.625 1.34886 1.625 1.625V34.375C1.625 34.6511 1.84886 34.875 2.125 34.875H34.875C35.1511 34.875 35.375 34.6511 35.375 34.375V7.25C35.375 6.97386 35.1511 6.75 34.875 6.75H32.9971ZM33.125 32.125C33.125 32.4011 32.9011 32.625 32.625 32.625H4.375C4.09886 32.625 3.875 32.4011 3.875 32.125V3.875C3.875 3.59886 4.09886 3.375 4.375 3.375H9.5625C9.83864 3.375 10.0625 3.59886 10.0625 3.875V18.0625C10.0625 18.3386 10.2864 18.5625 10.5625 18.5625H12.4393C12.5731 18.5625 12.7014 18.5088 12.7953 18.4135L20.4564 10.643C20.7704 10.3246 21.3125 10.5469 21.3125 10.994V18.0625C21.3125 18.3386 21.5364 18.5625 21.8125 18.5625H23.8327C23.9643 18.5625 24.0906 18.5106 24.1842 18.4182L32.2736 10.4249C32.5894 10.1128 33.125 10.3366 33.125 10.7806V32.125Z" fill="#3DCD58"/>
<path d="M10.0625 23.0625V23.625H12.3125V23.0625V21.375H10.0625V23.0625Z" fill="#3DCD58"/>
<path d="M12.3125 26.4375H10.0625V28.6875H12.3125V26.4375Z" fill="#3DCD58"/>
<path d="M15.6875 23.0625V23.625H17.9375V23.0625V21.375H15.6875V23.0625Z" fill="#3DCD58"/>
<path d="M17.9375 26.4375H15.6875V28.6875H17.9375V26.4375Z" fill="#3DCD58"/>
<path d="M21.3125 23.0625V23.625H23.5625V23.0625V21.375H21.3125V23.0625Z" fill="#3DCD58"/>
<path d="M23.5625 26.4375H21.3125V28.6875H23.5625V26.4375Z" fill="#3DCD58"/>
<path d="M29.1875 21.375H26.9375V23.625H29.1875V21.375Z" fill="#3DCD58"/>
<path d="M29.1875 26.4375H26.9375V28.6875H29.1875V26.4375Z" fill="#3DCD58"/>
</svg>
