<svg width="37" height="36" viewBox="0 0 37 36" fill="none" xmlns="http://www.w3.org/2000/svg">
<g clip-path="url(#clip0_668_727)">
<path d="M24.3154 23.8147C31.3815 16.7486 34.5063 8.41715 31.295 5.20579C28.0836 1.99442 19.7521 5.11926 12.6861 12.1853C5.62001 19.2514 2.49517 27.5828 5.70654 30.7942C8.9179 34.0056 17.2494 30.8807 24.3154 23.8147Z" stroke="#3DCD58" stroke-width="2.55804" stroke-miterlimit="10"/>
<path d="M31.295 30.7942C34.5063 27.5828 31.3815 19.2514 24.3154 12.1853C17.2494 5.11926 8.9179 1.99442 5.70654 5.20579C2.49517 8.41715 5.62001 16.7486 12.6861 23.8147C19.7521 30.8807 28.0836 34.0056 31.295 30.7942Z" stroke="#3DCD58" stroke-width="2.55804" stroke-miterlimit="10"/>
<path d="M18.5001 19.2723C19.2028 19.2723 19.7724 18.7027 19.7724 18C19.7724 17.2973 19.2028 16.7277 18.5001 16.7277C17.7974 16.7277 17.2278 17.2973 17.2278 18C17.2278 18.7027 17.7974 19.2723 18.5001 19.2723Z" stroke="#3DCD58" stroke-width="2.55804" stroke-miterlimit="10"/>
</g>
<defs>
<clipPath id="clip0_668_727">
<rect width="36" height="36" fill="white" transform="translate(0.5)"/>
</clipPath>
</defs>
</svg>
