<svg width="37" height="36" viewBox="0 0 37 36" fill="none" xmlns="http://www.w3.org/2000/svg">
<path fill-rule="evenodd" clip-rule="evenodd" d="M27.6363 3.82316C26.8077 3.35919 25.9256 3.31247 24.9932 3.429C24.1074 3.5397 23.03 3.81977 21.735 4.15635L18.7076 4.9431C17.4132 5.27945 16.3355 5.55951 15.5108 5.89337C14.6438 6.2444 13.8941 6.71604 13.4079 7.53293C12.9185 8.35497 12.87 9.23376 12.9919 10.1517C13.1069 11.0171 13.3971 12.0673 13.7428 13.3185L14.5566 16.2644C14.9024 17.5163 15.1925 18.5663 15.5388 19.3709C15.9065 20.2253 16.3977 20.9526 17.2311 21.4193C18.0596 21.8832 18.9417 21.93 19.8743 21.8135C20.7599 21.7028 21.8375 21.4227 23.1323 21.0861L26.1599 20.2993C27.4542 19.9629 28.532 19.6828 29.3565 19.3491C30.2235 18.9979 30.9732 18.5264 31.4595 17.7095C31.9488 16.8875 31.9974 16.0086 31.8755 15.0908C31.7604 14.2253 31.4703 13.1751 31.1246 11.9239L30.3107 8.97804C29.9649 7.7262 29.6748 6.67614 29.3286 5.87151C28.9608 5.01716 28.4697 4.28984 27.6363 3.82316ZM22.2275 6.3531C23.6148 5.99255 24.5496 5.75195 25.2722 5.66163C25.9646 5.5751 26.2961 5.6514 26.537 5.78631C26.7731 5.91851 26.9984 6.14897 27.2619 6.76101C27.5397 7.40652 27.7905 8.30526 28.163 9.65322L28.9346 12.4463C29.3072 13.7946 29.553 14.6942 29.6451 15.3871C29.7324 16.0452 29.6543 16.3434 29.5262 16.5586C29.3949 16.779 29.157 17.0024 28.5122 17.2635C27.8406 17.5355 26.9075 17.7802 25.5197 18.1408L22.64 18.8894C21.2525 19.25 20.3177 19.4905 19.5951 19.5808C18.9027 19.6674 18.5714 19.5911 18.3303 19.4561C18.0944 19.3239 17.8689 19.0935 17.6055 18.4814C17.3277 17.8359 17.0768 16.9371 16.7043 15.5892L15.9327 12.7961C15.5603 11.4478 15.3144 10.5483 15.2223 9.85533C15.1349 9.19722 15.2131 8.89904 15.3413 8.68382C15.4725 8.46341 15.7103 8.24001 16.3551 7.97892C17.0268 7.707 17.96 7.46214 19.3476 7.10151L22.2275 6.3531Z" fill="#3DCD58"/>
<path fill-rule="evenodd" clip-rule="evenodd" d="M5.30105 7.08704C4.70236 6.92094 4.08235 7.27163 3.91624 7.87032C3.75013 8.46903 4.10081 9.08904 4.69952 9.25514L7.25507 9.96417C7.89347 10.1413 8.36888 10.6235 8.53129 11.2114L11.4583 21.8061C11.3458 21.8282 11.2334 21.8538 11.1212 21.8831C8.15563 22.6538 6.34345 25.6369 7.15754 28.5837C7.96772 31.5162 11.0482 33.2076 14.0021 32.4399C16.5871 31.7682 18.2957 29.4153 18.1525 26.8709L30.7832 23.5884C31.3846 23.4321 31.7455 22.8178 31.5892 22.2165C31.4329 21.6152 30.8186 21.2544 30.2173 21.4107L17.5601 24.7C16.7977 23.2191 15.3972 22.1891 13.8003 21.8343L10.7 10.6122C10.3204 9.2379 9.23194 8.17766 7.8566 7.79607L5.30105 7.08704ZM11.6871 24.0606C13.5047 23.5882 15.3286 24.6432 15.797 26.3384C16.2614 28.0194 15.242 29.793 13.4361 30.2622C11.6185 30.7346 9.79462 29.6796 9.3263 27.9844C8.8619 26.3035 9.88129 24.5299 11.6871 24.0606Z" fill="#3DCD58"/>
</svg>
