<svg width="37" height="36" viewBox="0 0 37 36" fill="none" xmlns="http://www.w3.org/2000/svg">
<path d="M18.5013 25.0682L5.31733 18.0029L10.7051 15.1128L8.29677 13.822L0.50061 18.0029L18.5013 27.6468L36.4994 18.0029L28.7032 13.822L26.3 15.1128L31.6853 18.0029L18.5013 25.0682Z" fill="#3DCD58"/>
<path d="M18.5013 33.4214L5.31733 26.3561L10.7051 23.466L8.29677 22.1753L0.50061 26.3561L18.5013 36L36.4994 26.3561L28.7032 22.1753L26.3 23.466L31.6853 26.3561L18.5013 33.4214Z" fill="#3DCD58"/>
<path d="M18.5013 0L0.50061 9.64396L18.5013 19.2851L36.4994 9.64115L18.5013 0ZM18.5013 2.57864L31.6853 9.64396L18.5013 16.7093L5.31733 9.64396L18.5013 2.57864Z" fill="#3DCD58"/>
</svg>
