<svg width="37" height="36" viewBox="0 0 37 36" fill="none" xmlns="http://www.w3.org/2000/svg">
<path d="M20.3702 0.787497C15.2234 0.703122 10.4843 3.68437 8.36086 8.38125C7.60149 10.0687 7.20774 11.8687 7.20774 13.725C7.20774 13.7953 7.20774 14.1891 7.20774 14.7937C7.1093 15.2297 6.72961 15.6656 6.33586 16.0594L5.85774 16.5094C4.98586 17.3391 4.57805 17.7469 4.45149 17.9016C4.19836 18.1969 4.04368 18.4922 3.94524 18.7875C3.6218 19.7719 4.39524 20.25 4.64836 20.4187C4.88743 20.5594 5.15461 20.7 5.46399 20.8406C5.70305 20.9531 5.97024 21.0656 6.2093 21.1781C6.23743 21.1922 6.27961 21.2062 6.30774 21.2203C6.50461 22.5281 7.24993 27.4781 7.26399 27.5203C7.36243 28.35 7.64368 28.9828 8.10774 29.4047C8.92336 30.15 10.0202 30.1219 10.9062 30.0938C11.5671 30.0797 12.1296 30.0797 12.7343 30.0797C12.7765 30.6 12.8187 31.3734 12.8609 32.0484C12.9171 32.7937 12.9593 33.5672 13.0015 34.1578C13.0156 34.4813 13.1843 34.7766 13.4374 34.9875C13.6343 35.1422 13.8874 35.2266 14.1265 35.2266C14.1968 35.2266 14.2812 35.2125 14.3515 35.1984L28.7374 32.3438C29.5109 32.1891 30.0734 31.5 30.0734 30.7125V28.0969C30.0734 25.0172 30.7343 21.9094 32.0562 18.8719C32.7874 17.1844 33.139 15.3703 33.1109 13.5C32.9843 6.46875 27.3734 0.899997 20.3702 0.787497ZM30.8187 18.3234C29.4265 21.5297 28.7234 24.8203 28.7234 28.0969V30.7125C28.7234 30.8531 28.6249 30.9797 28.4843 31.0078L14.3656 33.8203C14.3234 33.2719 14.2812 32.6109 14.239 31.9641C14.0702 29.3625 14.0562 29.3344 14.0281 29.2219L13.8874 28.7297H13.2406C12.4531 28.7297 11.7218 28.7156 10.8781 28.7437C10.1749 28.7578 9.44368 28.7859 9.03586 28.4203C8.82493 28.2234 8.6843 27.8719 8.62805 27.3656C8.61399 27.2813 7.62961 20.7422 7.62961 20.7422L7.60149 20.5453L7.47493 20.3906L7.32024 20.2219C7.16555 20.0953 6.9968 20.0391 6.87024 19.9828L6.78586 19.9547C6.5468 19.8562 6.30774 19.7438 6.05461 19.6313C5.78743 19.5047 5.56243 19.3922 5.37961 19.2797C5.32336 19.2516 5.29524 19.2234 5.26711 19.1953C5.3093 19.0687 5.39368 18.9422 5.52024 18.7734C5.63274 18.6328 6.39211 17.9016 6.81399 17.5078C7.01086 17.325 7.17961 17.1562 7.29211 17.0437C7.86868 16.4672 8.43118 15.8203 8.55774 14.9766L8.5718 14.9203V14.8641C8.5718 14.2172 8.5718 13.8094 8.5718 13.7391C8.5718 12.0656 8.92336 10.4625 9.59836 8.95781C11.5109 4.75312 15.7577 2.08125 20.3562 2.15156C26.6281 2.25 31.6484 7.24218 31.7609 13.5141C31.789 15.1875 31.4656 16.8187 30.8187 18.3234Z" fill="#3DCD58"/>
<path d="M25.6027 10.1639C26.1076 9.69286 26.1347 8.90186 25.6637 8.39719C25.1927 7.89236 24.4017 7.86519 23.8971 8.33619L17.6071 14.2069L15.6028 12.3362C15.0981 11.8652 14.3071 11.8924 13.8361 12.3972C13.365 12.9019 13.3923 13.6929 13.897 14.1639L16.7541 16.8305C17.2344 17.2787 17.9797 17.2787 18.4599 16.8305L25.6027 10.1639Z" fill="#3DCD58"/>
</svg>
