<svg width="37" height="36" viewBox="0 0 37 36" fill="none" xmlns="http://www.w3.org/2000/svg">
<path d="M32.45 22.95C33.444 22.95 34.25 22.1441 34.25 21.15V7.65001C34.25 6.65596 33.444 5.85001 32.45 5.85001H4.55C3.55595 5.85001 2.75 6.65596 2.75 7.65001V21.15C2.75 22.1441 3.55595 22.95 4.55 22.95H32.45Z" stroke="#3DCD58" stroke-width="1.8" stroke-miterlimit="10" stroke-linecap="round"/>
<path d="M13.1001 8.55V20.25" stroke="#3DCD58" stroke-width="1.8" stroke-miterlimit="10" stroke-linecap="round"/>
<path d="M23.8999 8.55V20.25" stroke="#3DCD58" stroke-width="1.8" stroke-miterlimit="10" stroke-linecap="round"/>
<path d="M5.44995 14.4H31.55" stroke="#3DCD58" stroke-width="1.8" stroke-miterlimit="10" stroke-linecap="round"/>
<path d="M24.8 27.9H9.49995C8.5059 27.9 7.69995 27.0941 7.69995 26.1V22.95" stroke="#3DCD58" stroke-width="1.8" stroke-miterlimit="10" stroke-linecap="round" stroke-linejoin="round"/>
<path d="M26.15 25.65H26.6C27.3457 25.65 27.95 26.2544 27.95 27V28.8C27.95 29.5457 27.3457 30.15 26.6 30.15H26.15C25.4044 30.15 24.8 29.5457 24.8 28.8V27C24.8 26.2544 25.4044 25.65 26.15 25.65Z" stroke="#3DCD58" stroke-width="1.8" stroke-miterlimit="10" stroke-linecap="round" stroke-linejoin="round"/>
<path d="M29.3 26.55H27.873" stroke="#3DCD58" stroke-width="1.8" stroke-miterlimit="10" stroke-linecap="round" stroke-linejoin="round"/>
<path d="M29.3 29.25H27.873" stroke="#3DCD58" stroke-width="1.8" stroke-miterlimit="10" stroke-linecap="round" stroke-linejoin="round"/>
</svg>
