<svg width="25" height="24" viewBox="0 0 25 24" fill="none" xmlns="http://www.w3.org/2000/svg">
<g clip-path="url(#clip0_1316_12178)">
<path d="M1.15552 23.25H23.6555" stroke="black" stroke-width="1.5" stroke-linecap="round" stroke-linejoin="round"/>
<path d="M6.40552 16.75H3.40552C3.20741 16.7526 3.01815 16.8324 2.87805 16.9725C2.73796 17.1126 2.65811 17.3019 2.65552 17.5V23.25H7.15552V17.5C7.15293 17.3019 7.07308 17.1126 6.93298 16.9725C6.79289 16.8324 6.60362 16.7526 6.40552 16.75Z" stroke="black" stroke-width="1.5" stroke-linecap="round" stroke-linejoin="round"/>
<path d="M13.9055 8.75H10.9055C10.7074 8.75259 10.5181 8.83244 10.3781 8.97253C10.238 9.11263 10.1581 9.30189 10.1555 9.5V23.25H14.6555V9.5C14.6529 9.30189 14.5731 9.11263 14.433 8.97253C14.2929 8.83244 14.1036 8.75259 13.9055 8.75Z" stroke="black" stroke-width="1.5" stroke-linecap="round" stroke-linejoin="round"/>
<path d="M21.4055 13.75H18.4055C18.2074 13.7526 18.0181 13.8324 17.8781 13.9725C17.738 14.1126 17.6581 14.3019 17.6555 14.5V23.25H22.1555V14.5C22.1529 14.3019 22.0731 14.1126 21.933 13.9725C21.7929 13.8324 21.6036 13.7526 21.4055 13.75Z" stroke="black" stroke-width="1.5" stroke-linecap="round" stroke-linejoin="round"/>
<path d="M1.15552 10.5C1.15552 10.8978 1.31355 11.2794 1.59486 11.5607C1.87616 11.842 2.25769 12 2.65552 12C3.05334 12 3.43487 11.842 3.71618 11.5607C3.99748 11.2794 4.15552 10.8978 4.15552 10.5C4.15552 10.1022 3.99748 9.72064 3.71618 9.43934C3.43487 9.15804 3.05334 9 2.65552 9C2.25769 9 1.87616 9.15804 1.59486 9.43934C1.31355 9.72064 1.15552 10.1022 1.15552 10.5Z" stroke="black" stroke-width="1.5" stroke-linecap="round" stroke-linejoin="round"/>
<path d="M7.90552 2.25C7.90552 2.64782 8.06355 3.02936 8.34486 3.31066C8.62616 3.59196 9.00769 3.75 9.40552 3.75C9.80334 3.75 10.1849 3.59196 10.4662 3.31066C10.7475 3.02936 10.9055 2.64782 10.9055 2.25C10.9055 1.85218 10.7475 1.47064 10.4662 1.18934C10.1849 0.908035 9.80334 0.75 9.40552 0.75C9.00769 0.75 8.62616 0.908035 8.34486 1.18934C8.06355 1.47064 7.90552 1.85218 7.90552 2.25Z" stroke="black" stroke-width="1.5" stroke-linecap="round" stroke-linejoin="round"/>
<path d="M20.6555 6C20.6555 6.39782 20.8136 6.77936 21.0949 7.06066C21.3762 7.34196 21.7577 7.5 22.1555 7.5C22.5533 7.5 22.9349 7.34196 23.2162 7.06066C23.4975 6.77936 23.6555 6.39782 23.6555 6C23.6555 5.60218 23.4975 5.22064 23.2162 4.93934C22.9349 4.65804 22.5533 4.5 22.1555 4.5C21.7577 4.5 21.3762 4.65804 21.0949 4.93934C20.8136 5.22064 20.6555 5.60218 20.6555 6Z" stroke="black" stroke-width="1.5" stroke-linecap="round" stroke-linejoin="round"/>
<path d="M3.60547 9.34L8.45547 3.41" stroke="black" stroke-width="1.5" stroke-linecap="round" stroke-linejoin="round"/>
<path d="M20.7155 5.58L10.8455 2.67" stroke="black" stroke-width="1.5" stroke-linecap="round" stroke-linejoin="round"/>
</g>
<defs>
<clipPath id="clip0_1316_12178">
<rect width="24" height="24" fill="white" transform="translate(0.405518)"/>
</clipPath>
</defs>
</svg>
