<svg width="25" height="24" viewBox="0 0 25 24" fill="none" xmlns="http://www.w3.org/2000/svg">
<path d="M22.8605 21.75C22.8605 22.1478 22.7024 22.5294 22.4211 22.8107C22.1398 23.092 21.7583 23.25 21.3605 23.25H3.36047C2.96265 23.25 2.58112 23.092 2.29981 22.8107C2.01851 22.5294 1.86047 22.1478 1.86047 21.75V2.25C1.86047 1.85218 2.01851 1.47064 2.29981 1.18934C2.58112 0.908035 2.96265 0.75 3.36047 0.75H18.3605C18.751 0.75056 19.1259 0.903387 19.4055 1.176L22.4055 4.059C22.5487 4.19861 22.6626 4.36547 22.7404 4.54974C22.8182 4.73401 22.8583 4.93198 22.8585 5.132L22.8605 21.75Z" stroke="black" stroke-width="1.5" stroke-linecap="round" stroke-linejoin="round"/>
<path d="M6.36047 7.5V18.75H18.3605" stroke="black" stroke-width="1.5" stroke-linecap="round" stroke-linejoin="round"/>
<path d="M6.36047 15.75L9.72247 12.612C10.0852 12.2824 10.5578 12.0997 11.048 12.0997C11.5381 12.0997 12.0107 12.2824 12.3735 12.612L13.0995 13.29C13.3074 13.4804 13.554 13.6236 13.8223 13.7099C14.0907 13.7962 14.3746 13.8235 14.6545 13.79C14.9318 13.7611 15.1992 13.6711 15.4377 13.5265C15.6761 13.382 15.8796 13.1865 16.0335 12.954L17.6055 10.5" stroke="black" stroke-width="1.5" stroke-linecap="round" stroke-linejoin="round"/>
</svg>
