<svg width="53" height="53" viewBox="0 0 53 53" fill="none" xmlns="http://www.w3.org/2000/svg">
<g clip-path="url(#clip0_1177_6829)">
<path d="M9.2 48.5H32.3C32.2 49.3 31.6 50.3 32.4 51.3C32.9 51.9 33.8 52.2 34.6 51.8L37.6 50.4L40.7 51.8C41.5 52.1 42.3 51.9 42.9 51.3C43.2 50.9 43.4 50.3 43.3 49.8L42 43.6C45.6 42 48.1 38.3 48.1 34.1C48.1 29 44.4 24.8 39.6 23.9V6.3C39.6 3.9 37.7 2 35.3 2H9.3C6.9 2 5 3.9 5 6.3V44.3C5 46.6 6.9 48.5 9.2 48.5ZM40 44.3L41.2 49.9L38 48.5C37.7 48.4 37.4 48.4 37.2 48.5L34.1 49.9L35.4 44.3C36.1 44.4 37 44.6 37.9 44.5C38.5 44.5 39.3 44.5 40 44.3ZM46 34.2C46 38.8 42.3 42.6 37.7 42.6C33.1 42.6 29.3 38.9 29.3 34.2C29.3 29.6 33.1 25.8 37.7 25.8C42.3 25.8 46 29.6 46 34.2ZM7 6.3C7 5 8 4 9.2 4H35.2C36.5 4 37.5 5 37.5 6.3V23.8C26.5 23.9 23.3 39.2 33.5 43.7L32.8 46.6H9.2C7.9 46.6 6.9 45.6 6.9 44.3V6.3H7Z" fill="white"/>
<path d="M31.7 34.2002C31.7 37.5002 34.4 40.2002 37.7 40.2002C41 40.2002 43.7 37.5002 43.7 34.2002C43.7 30.9002 41 28.2002 37.7 28.2002C34.4 28.2002 31.7 30.9002 31.7 34.2002ZM41.5999 34.2002C41.5999 36.4002 39.7999 38.2002 37.5999 38.2002C35.3999 38.2002 33.5999 36.4002 33.5999 34.2002C33.5999 32.0002 35.3999 30.2002 37.5999 30.2002C39.7999 30.2002 41.5999 32.0002 41.5999 34.2002Z" fill="white"/>
<path d="M11.3999 11H31.3999C31.9999 11 32.3999 10.6 32.3999 10C32.3999 9.4 31.9999 9 31.3999 9H11.3999C10.7999 9 10.3999 9.4 10.3999 10C10.3999 10.6 10.8999 11 11.3999 11Z" fill="white"/>
<path d="M11.3999 17.2002H31.3999C31.9999 17.2002 32.3999 16.8002 32.3999 16.2002C32.3999 15.6002 31.9999 15.2002 31.3999 15.2002H11.3999C10.7999 15.2002 10.3999 15.6002 10.3999 16.2002C10.3999 16.8002 10.8999 17.2002 11.3999 17.2002Z" fill="white"/>
<path d="M11.3999 23.5H31.3999C31.9999 23.5 32.3999 23.1 32.3999 22.5C32.3999 21.9 31.9999 21.5 31.3999 21.5H11.3999C10.7999 21.5 10.3999 21.9 10.3999 22.5C10.3999 23.1 10.8999 23.5 11.3999 23.5Z" fill="white"/>
</g>
<defs>
<clipPath id="clip0_1177_6829">
<rect width="53" height="53" fill="white"/>
</clipPath>
</defs>
</svg>
