<svg width="25" height="24" viewBox="0 0 25 24" fill="none" xmlns="http://www.w3.org/2000/svg">
<g clip-path="url(#clip0_1316_12384)">
<path d="M1.15552 17.008C1.15552 17.7042 1.43208 18.3719 1.92436 18.8642C2.41665 19.3564 3.08432 19.633 3.78052 19.633C4.47671 19.633 5.14439 19.3564 5.63667 18.8642C6.12896 18.3719 6.40552 17.7042 6.40552 17.008C6.40552 16.3118 6.12896 15.6441 5.63667 15.1518C5.14439 14.6596 4.47671 14.383 3.78052 14.383C3.08432 14.383 2.41665 14.6596 1.92436 15.1518C1.43208 15.6441 1.15552 16.3118 1.15552 17.008Z" stroke="black" stroke-width="1.5" stroke-linecap="round" stroke-linejoin="round"/>
<path d="M7.91952 23.116C7.65473 22.4961 7.25404 21.9435 6.74706 21.4992C6.24007 21.0549 5.63974 20.7302 4.99042 20.5491C4.34109 20.3679 3.65936 20.335 2.9956 20.4527C2.33183 20.5703 1.70299 20.8357 1.15552 21.229" stroke="black" stroke-width="1.5" stroke-linecap="round" stroke-linejoin="round"/>
<path d="M18.4055 17.008C18.4055 17.3527 18.4734 17.6941 18.6053 18.0125C18.7373 18.331 18.9306 18.6204 19.1744 18.8642C19.4181 19.1079 19.7075 19.3013 20.026 19.4332C20.3445 19.5651 20.6858 19.633 21.0305 19.633C21.3752 19.633 21.7166 19.5651 22.0351 19.4332C22.3535 19.3013 22.6429 19.1079 22.8867 18.8642C23.1304 18.6204 23.3238 18.331 23.4557 18.0125C23.5876 17.6941 23.6555 17.3527 23.6555 17.008C23.6555 16.6633 23.5876 16.3219 23.4557 16.0035C23.3238 15.685 23.1304 15.3956 22.8867 15.1518C22.6429 14.9081 22.3535 14.7147 22.0351 14.5828C21.7166 14.4509 21.3752 14.383 21.0305 14.383C20.6858 14.383 20.3445 14.4509 20.026 14.5828C19.7075 14.7147 19.4181 14.9081 19.1744 15.1518C18.9306 15.3956 18.7373 15.685 18.6053 16.0035C18.4734 16.3219 18.4055 16.6633 18.4055 17.008Z" stroke="black" stroke-width="1.5" stroke-linecap="round" stroke-linejoin="round"/>
<path d="M16.8915 23.116C17.1563 22.4961 17.557 21.9435 18.0639 21.4992C18.5709 21.0549 19.1713 20.7302 19.8206 20.5491C20.4699 20.3679 21.1516 20.335 21.8154 20.4527C22.4792 20.5703 23.108 20.8357 23.6555 21.229" stroke="black" stroke-width="1.5" stroke-linecap="round" stroke-linejoin="round"/>
<path d="M9.03052 16.258C9.03052 17.1531 9.3861 18.0115 10.019 18.6445C10.652 19.2774 11.5104 19.633 12.4055 19.633C13.3006 19.633 14.1591 19.2774 14.792 18.6445C15.4249 18.0115 15.7805 17.1531 15.7805 16.258C15.7805 15.3629 15.4249 14.5044 14.792 13.8715C14.1591 13.2386 13.3006 12.883 12.4055 12.883C11.5104 12.883 10.652 13.2386 10.019 13.8715C9.3861 14.5044 9.03052 15.3629 9.03052 16.258Z" stroke="black" stroke-width="1.5" stroke-linecap="round" stroke-linejoin="round"/>
<path d="M16.8916 23.116C16.3231 22.4914 15.6304 21.9924 14.8579 21.651C14.0854 21.3095 13.2501 21.1331 12.4056 21.1331C11.561 21.1331 10.7257 21.3095 9.95322 21.651C9.18073 21.9924 8.48806 22.4914 7.91956 23.116" stroke="black" stroke-width="1.5" stroke-linecap="round" stroke-linejoin="round"/>
<path d="M12.9365 1.20899L14.1845 3.66699H16.3115C16.4286 3.66413 16.5439 3.69667 16.6422 3.76035C16.7405 3.82403 16.8173 3.91588 16.8625 4.02391C16.9078 4.13193 16.9194 4.2511 16.8959 4.36584C16.8723 4.48057 16.8147 4.58553 16.7305 4.66699L14.7775 6.58499L15.8595 9.06999C15.9072 9.18381 15.918 9.30972 15.8902 9.42997C15.8625 9.55022 15.7977 9.65872 15.705 9.74016C15.6123 9.8216 15.4964 9.87186 15.3735 9.88385C15.2507 9.89585 15.1272 9.86896 15.0205 9.80699L12.4055 8.33599L9.79053 9.80699C9.68382 9.86896 9.56034 9.89585 9.43752 9.88385C9.3147 9.87186 9.19875 9.8216 9.10604 9.74016C9.01333 9.65872 8.94854 9.55022 8.92082 9.42997C8.89309 9.30972 8.90384 9.18381 8.95153 9.06999L10.0335 6.58499L8.08053 4.66299C7.99637 4.58153 7.93876 4.47657 7.91521 4.36184C7.89166 4.2471 7.90327 4.12793 7.94854 4.01991C7.9938 3.91188 8.0706 3.82003 8.16891 3.75635C8.26721 3.69267 8.38244 3.66013 8.49953 3.66299H10.6265L11.8755 1.20899C11.9265 1.1125 12.0029 1.03173 12.0963 0.9754C12.1898 0.919067 12.2969 0.889297 12.406 0.889297C12.5152 0.889297 12.6222 0.919067 12.7157 0.9754C12.8092 1.03173 12.8855 1.1125 12.9365 1.20899Z" stroke="black" stroke-width="1.5" stroke-linecap="round" stroke-linejoin="round"/>
<path d="M5.65553 2.38401C5.54562 2.38313 5.43767 2.41312 5.34397 2.47058C5.25027 2.52804 5.17459 2.61065 5.12553 2.70901L3.87653 5.16701H1.74953C1.63244 5.16415 1.51721 5.19668 1.41891 5.26036C1.3206 5.32404 1.2438 5.41589 1.19854 5.52392C1.15327 5.63195 1.14166 5.75112 1.16521 5.86585C1.18876 5.98058 1.24637 6.08554 1.33053 6.16701L3.28353 8.08501L2.20553 10.57C2.15784 10.6838 2.14709 10.8097 2.17482 10.93C2.20254 11.0502 2.26733 11.1587 2.36004 11.2402C2.45275 11.3216 2.5687 11.3719 2.69152 11.3839C2.81433 11.3959 2.93782 11.369 3.04453 11.307L5.65553 9.83601L6.34753 10.225" stroke="black" stroke-width="1.5" stroke-linecap="round" stroke-linejoin="round"/>
<path d="M19.1555 2.38401C19.2654 2.38313 19.3734 2.41312 19.4671 2.47058C19.5608 2.52804 19.6364 2.61065 19.6855 2.70901L20.9345 5.16701H23.0615C23.1786 5.16415 23.2938 5.19668 23.3921 5.26036C23.4904 5.32404 23.5672 5.41589 23.6125 5.52392C23.6578 5.63195 23.6694 5.75112 23.6458 5.86585C23.6223 5.98058 23.5647 6.08554 23.4805 6.16701L21.5275 8.08501L22.6055 10.57C22.6532 10.6838 22.6639 10.8097 22.6362 10.93C22.6085 11.0502 22.5437 11.1587 22.451 11.2402C22.3583 11.3216 22.2423 11.3719 22.1195 11.3839C21.9967 11.3959 21.8732 11.369 21.7665 11.307L19.1555 9.83601L18.4635 10.225" stroke="black" stroke-width="1.5" stroke-linecap="round" stroke-linejoin="round"/>
</g>
<defs>
<clipPath id="clip0_1316_12384">
<rect width="24" height="24" fill="white" transform="translate(0.405518)"/>
</clipPath>
</defs>
</svg>
