<svg width="24" height="25" viewBox="0 0 24 25" fill="none" xmlns="http://www.w3.org/2000/svg">
<g clip-path="url(#clip0_1315_4855)">
<path d="M19.636 24L19.736 22.878C19.802 22.1517 19.6011 21.4262 19.171 20.8373C18.7409 20.2483 18.1109 19.8362 17.399 19.678L13.748 18.867V13.125C13.748 12.6277 13.5505 12.1508 13.1988 11.7992C12.8472 11.4475 12.3703 11.25 11.873 11.25C11.3757 11.25 10.8988 11.4475 10.5472 11.7992C10.1955 12.1508 9.998 12.6277 9.998 13.125V22.325L8.523 21.222C8.22782 21.0015 7.86311 20.8948 7.49565 20.9212C7.12818 20.9477 6.78253 21.1056 6.52195 21.366C6.26138 21.6265 6.10332 21.9721 6.0767 22.3395C6.05008 22.707 6.15669 23.0717 6.377 23.367L6.852 24" stroke="#ffffff" stroke-width="1.5" stroke-linecap="round" stroke-linejoin="round"/>
<path d="M8.875 4.125C8.875 4.46972 8.9429 4.81106 9.07482 5.12954C9.20673 5.44802 9.40009 5.7374 9.64384 5.98116C9.8876 6.22491 10.177 6.41827 10.4955 6.55018C10.8139 6.6821 11.1553 6.75 11.5 6.75C11.8447 6.75 12.1861 6.6821 12.5045 6.55018C12.823 6.41827 13.1124 6.22491 13.3562 5.98116C13.5999 5.7374 13.7933 5.44802 13.9252 5.12954C14.0571 4.81106 14.125 4.46972 14.125 4.125C14.125 3.78028 14.0571 3.43894 13.9252 3.12046C13.7933 2.80198 13.5999 2.5126 13.3562 2.26884C13.1124 2.02509 12.823 1.83173 12.5045 1.69982C12.1861 1.5679 11.8447 1.5 11.5 1.5C11.1553 1.5 10.8139 1.5679 10.4955 1.69982C10.177 1.83173 9.8876 2.02509 9.64384 2.26884C9.40009 2.5126 9.20673 2.80198 9.07482 3.12046C8.9429 3.43894 8.875 3.78028 8.875 4.125Z" stroke="#ffffff" stroke-width="1.5" stroke-linecap="round" stroke-linejoin="round"/>
<path d="M13.787 8.16497C13.1072 7.7326 12.3188 7.5017 11.5132 7.49905C10.7075 7.49639 9.91761 7.72208 9.23499 8.14997" stroke="#ffffff" stroke-width="1.5" stroke-linecap="round" stroke-linejoin="round"/>
<path d="M2.125 10.875C2.125 11.2197 2.1929 11.5611 2.32482 11.8795C2.45673 12.198 2.65009 12.4874 2.89384 12.7312C3.1376 12.9749 3.42698 13.1683 3.74546 13.3002C4.06394 13.4321 4.40528 13.5 4.75 13.5C5.09472 13.5 5.43606 13.4321 5.75454 13.3002C6.07302 13.1683 6.3624 12.9749 6.60616 12.7312C6.84991 12.4874 7.04327 12.198 7.17518 11.8795C7.3071 11.5611 7.375 11.2197 7.375 10.875C7.375 10.5303 7.3071 10.1889 7.17518 9.87046C7.04327 9.55198 6.84991 9.2626 6.60616 9.01884C6.3624 8.77509 6.07302 8.58173 5.75454 8.44982C5.43606 8.3179 5.09472 8.25 4.75 8.25C4.40528 8.25 4.06394 8.3179 3.74546 8.44982C3.42698 8.58173 3.1376 8.77509 2.89384 9.01884C2.65009 9.2626 2.45673 9.55198 2.32482 9.87046C2.1929 10.1889 2.125 10.5303 2.125 10.875Z" stroke="#ffffff" stroke-width="1.5" stroke-linecap="round" stroke-linejoin="round"/>
<path d="M6.651 14.699C5.66015 14.2035 4.51495 14.1144 3.4594 14.4508C2.40385 14.7872 1.52138 15.5225 1 16.5" stroke="#ffffff" stroke-width="1.5" stroke-linecap="round" stroke-linejoin="round"/>
<path d="M6.25 5.25H4.75" stroke="#ffffff" stroke-width="1.5" stroke-linecap="round" stroke-linejoin="round"/>
<path d="M6.25 2.25L4.75 1.5" stroke="#ffffff" stroke-width="1.5" stroke-linecap="round" stroke-linejoin="round"/>
<path d="M16.75 5.25H18.25" stroke="#ffffff" stroke-width="1.5" stroke-linecap="round" stroke-linejoin="round"/>
<path d="M16.75 2.25L18.25 1.5" stroke="#ffffff" stroke-width="1.5" stroke-linecap="round" stroke-linejoin="round"/>
<path d="M16.375 10.875C16.375 11.2197 16.4429 11.5611 16.5748 11.8795C16.7067 12.198 16.9001 12.4874 17.1438 12.7312C17.3876 12.9749 17.677 13.1683 17.9955 13.3002C18.3139 13.4321 18.6553 13.5 19 13.5C19.3447 13.5 19.6861 13.4321 20.0045 13.3002C20.323 13.1683 20.6124 12.9749 20.8562 12.7312C21.0999 12.4874 21.2933 12.198 21.4252 11.8795C21.5571 11.5611 21.625 11.2197 21.625 10.875C21.625 10.5303 21.5571 10.1889 21.4252 9.87046C21.2933 9.55198 21.0999 9.2626 20.8562 9.01884C20.6124 8.77509 20.323 8.58173 20.0045 8.44982C19.6861 8.3179 19.3447 8.25 19 8.25C18.6553 8.25 18.3139 8.3179 17.9955 8.44982C17.677 8.58173 17.3876 8.77509 17.1438 9.01884C16.9001 9.2626 16.7067 9.55198 16.5748 9.87046C16.4429 10.1889 16.375 10.5303 16.375 10.875Z" stroke="#ffffff" stroke-width="1.5" stroke-linecap="round" stroke-linejoin="round"/>
<path d="M17.1 14.699C18.0907 14.2033 19.2358 14.1141 20.2914 14.4504C21.3469 14.7866 22.2295 15.5216 22.751 16.499" stroke="#ffffff" stroke-width="1.5" stroke-linecap="round" stroke-linejoin="round"/>
</g>
<defs>
<clipPath id="clip0_1315_4855">
<rect width="24" height="24" fill="white" transform="translate(0 0.75)"/>
</clipPath>
</defs>
</svg>
