<svg width="36" height="36" viewBox="0 0 36 36" fill="none" xmlns="http://www.w3.org/2000/svg">
<path d="M28.606 24.0606H18C16.7121 24.0606 15.7273 25.1212 15.7273 26.3334V28.9849C15.7273 31.2576 13.9848 33.0758 11.7121 33.1515C8.90907 33.1515 7.39392 31.6364 7.39392 28.6061V2.84851H24.0606C26.5606 2.84851 28.606 4.89397 28.606 7.39397V21.2576" stroke="black" stroke-width="1.51515" stroke-miterlimit="10" stroke-linecap="round" stroke-linejoin="round"/>
<path d="M4.36363 14.9697C3.07575 14.9697 2.84848 13.8334 2.84848 12.394V8.07578C2.84848 5.197 4.89393 2.84851 7.39393 2.84851V14.9697" stroke="black" stroke-width="1.51515" stroke-miterlimit="10" stroke-linecap="round" stroke-linejoin="round"/>
<path d="M30.8788 24.0607C32.0909 24.0607 33.1515 25.0455 33.1515 26.3334V29.2879C33.1515 31.4092 31.1061 33.1516 28.6061 33.1516H11.9394C11.8636 33.1516 11.7879 33.1516 11.7121 33.1516C13.9091 33.0758 15.7273 31.4849 15.7273 29.591V26.3334C15.7273 25.1213 16.7121 24.0607 18 24.0607H30.8788Z" stroke="black" stroke-width="1.51515" stroke-miterlimit="10" stroke-linecap="round" stroke-linejoin="round"/>
<path d="M21.7879 12.697H14.2121V18.7576H21.7879V12.697Z" stroke="black" stroke-width="1.51515" stroke-miterlimit="10" stroke-linecap="round" stroke-linejoin="round"/>
<path d="M20.2727 12.6969H15.7273V11.1818C15.7273 9.89391 16.7121 8.90906 18 8.90906C19.2879 8.90906 20.2727 9.89391 20.2727 11.1818V12.6969Z" stroke="black" stroke-width="1.51515" stroke-miterlimit="10" stroke-linecap="round" stroke-linejoin="round"/>
<circle cx="18" cy="15.7273" r="0.757576" fill="black"/>
</svg>
