<svg width="25" height="25" viewBox="0 0 25 25" fill="none" xmlns="http://www.w3.org/2000/svg">
<g clip-path="url(#clip0_1316_14112)">
<path d="M12.8845 23.688V6.27495C12.8845 6.27495 10.4295 3.54795 2.15252 3.43795C2.0843 3.43728 2.01662 3.4502 1.95344 3.47595C1.89026 3.5017 1.83284 3.53978 1.78452 3.58795C1.68711 3.68646 1.63249 3.81941 1.63252 3.95795V20.332C1.63141 20.4668 1.68311 20.5967 1.77655 20.6938C1.87 20.791 1.99777 20.8478 2.13252 20.852C10.4275 20.959 12.8845 23.688 12.8845 23.688Z" stroke="black" stroke-width="1.5" stroke-linecap="round" stroke-linejoin="round"/>
<path d="M9.88452 12.7429C8.18278 12.1705 6.41537 11.8161 4.62452 11.6879" stroke="black" stroke-width="1.5" stroke-linecap="round" stroke-linejoin="round"/>
<path d="M9.88452 16.9379C8.18241 16.3678 6.41508 16.015 4.62452 15.8879" stroke="black" stroke-width="1.5" stroke-linecap="round" stroke-linejoin="round"/>
<path d="M15.8845 12.7429C17.5863 12.1705 19.3537 11.8161 21.1445 11.6879" stroke="black" stroke-width="1.5" stroke-linecap="round" stroke-linejoin="round"/>
<path d="M15.8845 16.9379C17.5866 16.3678 19.354 16.015 21.1445 15.8879" stroke="black" stroke-width="1.5" stroke-linecap="round" stroke-linejoin="round"/>
<path d="M21.1445 3.55794C21.9045 3.49194 22.7265 3.44994 23.6165 3.43794C23.6844 3.43753 23.7517 3.45057 23.8145 3.47632C23.8773 3.50207 23.9344 3.54 23.9825 3.58794C24.0799 3.68644 24.1346 3.8194 24.1345 3.95794V20.3319C24.1356 20.4668 24.0839 20.5966 23.9905 20.6938C23.897 20.791 23.7693 20.8478 23.6345 20.8519C15.3415 20.9589 12.8845 23.6879 12.8845 23.6879" stroke="black" stroke-width="1.5" stroke-linecap="round" stroke-linejoin="round"/>
<path d="M12.8845 23.6879V6.27494C12.8845 6.27494 14.0275 5.00494 17.3845 4.16394" stroke="black" stroke-width="1.5" stroke-linecap="round" stroke-linejoin="round"/>
<path d="M21.1345 8.68795V2.08795C19.8707 2.18871 18.6167 2.38934 17.3845 2.68795V8.68795L19.2595 7.18795L21.1345 8.68795Z" stroke="black" stroke-width="1.5" stroke-linecap="round" stroke-linejoin="round"/>
</g>
<defs>
<clipPath id="clip0_1316_14112">
<rect width="24" height="24" fill="white" transform="translate(0.884521 0.887939)"/>
</clipPath>
</defs>
</svg>
