<svg width="32" height="32" viewBox="0 0 32 32" fill="none" xmlns="http://www.w3.org/2000/svg">
<path d="M15.75 6.80273C19.4089 6.80273 22.375 9.76885 22.375 13.4277C22.375 17.0866 19.4089 20.0527 15.75 20.0527C12.0911 20.0527 9.125 17.0866 9.125 13.4277C9.125 9.76885 12.0911 6.80273 15.75 6.80273Z" fill="black" stroke="black" stroke-width="1.5"/>
<path d="M22.1899 17.3181C25.2927 17.3181 28.3764 15.6452 30.1875 13.0984V20.3146C30.1875 22.8605 29.4854 25.3355 28.1396 27.152C26.8112 28.9451 24.8435 30.1211 22.1899 30.1211C18.5829 30.1211 15.6797 27.2437 15.6797 23.7196C15.6797 20.1955 18.5829 17.3181 22.1899 17.3181Z" stroke="black" stroke-width="1.625"/>
<path d="M1.9375 20.3005V13.2891C3.63637 15.7292 6.44991 17.32 9.31649 17.32C12.5875 17.32 15.3125 20.1309 15.3125 23.6913C15.3125 27.2515 12.5874 30.0625 9.31649 30.0625C6.89274 30.0625 5.08112 28.9145 3.84577 27.1287C2.59344 25.3183 1.9375 22.8464 1.9375 20.3005Z" stroke="black" stroke-width="1.625"/>
<path d="M16 18.7188V9.5C16 5.4269 19.1729 2.125 23.0869 2.125C27.0009 2.125 30.2988 5.4269 30.2988 9.5L30.1738 18.7188" stroke="black" stroke-width="1.5"/>
<path d="M1.94141 18.7188L1.81641 9.5C1.81641 5.4269 5.11435 2.125 9.02832 2.125C12.9423 2.125 16.1152 5.4269 16.1152 9.5V18.7188" stroke="black" stroke-width="1.5"/>
</svg>
