<svg width="24" height="25" viewBox="0 0 24 25" fill="none" xmlns="http://www.w3.org/2000/svg">
<g clip-path="url(#clip0_1315_5127)">
<path d="M6.26099 21.737V23.222" stroke="#ffffff" stroke-width="1.5" stroke-linecap="round" stroke-linejoin="round"/>
<path d="M11.522 23.75C11.522 22.3547 10.9677 21.0166 9.98109 20.0299C8.99446 19.0433 7.6563 18.489 6.261 18.489C4.8657 18.489 3.52754 19.0433 2.54091 20.0299C1.55428 21.0166 1 22.3547 1 23.75" stroke="#ffffff" stroke-width="1.5" stroke-linecap="round" stroke-linejoin="round"/>
<path d="M2.578 13.188C2.578 13.6735 2.67327 14.1543 2.85835 14.6028C3.04344 15.0513 3.31473 15.4589 3.65673 15.8022C3.99873 16.1455 4.40474 16.4178 4.85158 16.6036C5.29842 16.7894 5.77734 16.885 6.261 16.885C6.74466 16.885 7.22358 16.7894 7.67043 16.6036C8.11727 16.4178 8.52328 16.1455 8.86528 15.8022C9.20728 15.4589 9.47856 15.0513 9.66365 14.6028C9.84874 14.1543 9.944 13.6735 9.944 13.188C9.944 12.7025 9.84874 12.2218 9.66365 11.7732C9.47856 11.3247 9.20728 10.9172 8.86528 10.5739C8.52328 10.2306 8.11727 9.95824 7.67043 9.77244C7.22358 9.58665 6.74466 9.49103 6.261 9.49103C5.77734 9.49103 5.29842 9.58665 4.85158 9.77244C4.40474 9.95824 3.99873 10.2306 3.65673 10.5739C3.31473 10.9172 3.04344 11.3247 2.85835 11.7732C2.67327 12.2218 2.578 12.7025 2.578 13.188Z" stroke="#ffffff" stroke-width="1.5" stroke-linecap="round" stroke-linejoin="round"/>
<path d="M3.319 10.97C4.40751 12.0221 5.85249 12.6255 7.366 12.66C8.20356 12.6627 9.03557 12.5241 9.827 12.25" stroke="#ffffff" stroke-width="1.5" stroke-linecap="round" stroke-linejoin="round"/>
<path d="M12.687 14.875H22.063C22.3116 14.8747 22.5499 14.7758 22.7256 14.5999C22.9013 14.424 23 14.1856 23 13.937V2.687C23 2.43849 22.9013 2.20016 22.7256 2.02444C22.5498 1.84872 22.3115 1.75 22.063 1.75H8.937C8.68849 1.75 8.45016 1.84872 8.27444 2.02444C8.09872 2.20016 8 2.43849 8 2.687V7.375" stroke="#ffffff" stroke-width="1.5" stroke-linecap="round" stroke-linejoin="round"/>
<path d="M19.92 4.20398C17.3571 6.05565 14.3473 7.19124 11.2 7.49398" stroke="#ffffff" stroke-width="1.5" stroke-linecap="round" stroke-linejoin="round"/>
<path d="M19.5 7.81201V11.718" stroke="#ffffff" stroke-width="1.5" stroke-linecap="round" stroke-linejoin="round"/>
<path d="M13 11.062V11.718" stroke="#ffffff" stroke-width="1.5" stroke-linecap="round" stroke-linejoin="round"/>
<path d="M16 9.65601V11.718" stroke="#ffffff" stroke-width="1.5" stroke-linecap="round" stroke-linejoin="round"/>
</g>
<defs>
<clipPath id="clip0_1315_5127">
<rect width="24" height="24" fill="white" transform="translate(0 0.75)"/>
</clipPath>
</defs>
</svg>
