<svg width="24" height="24" viewBox="0 0 24 24" fill="none" xmlns="http://www.w3.org/2000/svg">
<path fill-rule="evenodd" clip-rule="evenodd" d="M12.2815 9.20798V12.7687C12.2815 12.9874 12.1038 13.1642 11.8859 13.1642C11.6681 13.1642 11.4904 12.9874 11.4904 12.7687V9.20798H9.02341C8.80466 9.20798 8.62787 9.03119 8.62787 8.81243V1.99552C8.62787 1.77677 8.80466 1.59998 9.02341 1.59998H14.7484C14.9672 1.59998 15.144 1.77676 15.144 1.99552V8.81243C15.144 9.03118 14.9672 9.20798 14.7484 9.20798H12.2815ZM11.8859 14.1268C11.0475 14.1268 10.3672 14.8072 10.3672 15.6456C10.3672 16.4849 11.0475 17.1643 11.8859 17.1643C12.7252 17.1643 13.4047 16.4848 13.4047 15.6456C13.4047 14.8063 12.7252 14.1268 11.8859 14.1268ZM10.2529 14.0125C9.36986 14.8956 9.34844 16.3188 10.2038 17.2285C9.29218 17.4598 8.6288 18.2884 8.6288 19.2518V21.7768C8.6288 21.9955 8.80558 22.1723 9.02434 22.1723H14.7494C14.9681 22.1723 15.1449 21.9956 15.1449 21.7768V19.2518C15.1449 18.2884 14.4815 17.4598 13.569 17.2285C14.4244 16.3196 14.4021 14.8955 13.5199 14.0125C12.6181 13.1108 11.1556 13.1108 10.2539 14.0125H10.2529ZM9.41987 21.3812V19.2518C9.41987 18.5402 10.0038 17.9562 10.7154 17.9562H13.0574C13.769 17.9562 14.3529 18.5402 14.3529 19.2518V21.3812H9.41987ZM17.2055 5.73666C17.051 5.5822 17.051 5.33131 17.2055 5.17684C17.3599 5.02238 17.6099 5.02238 17.7644 5.17684L18.4019 5.81435L20.0617 4.15364C20.2162 3.99918 20.4662 3.99918 20.6206 4.15364C20.7751 4.30811 20.7751 4.55899 20.6206 4.71346L18.6805 6.65364C18.526 6.80811 18.2751 6.80811 18.1206 6.65364L17.2037 5.73668L17.2055 5.73666ZM10.1778 5.73666L11.0948 6.65362C11.2492 6.80808 11.5001 6.80808 11.6546 6.65362L13.5948 4.71344C13.7492 4.55897 13.7492 4.30809 13.5948 4.15362C13.4403 3.99916 13.1894 3.99916 13.0358 4.15362L11.3751 5.81433L10.7376 5.17682C10.5832 5.02236 10.3323 5.02236 10.1787 5.17682C10.0242 5.33129 10.0242 5.58217 10.1787 5.73664L10.1778 5.73666ZM3.15015 5.73666C2.99569 5.5822 2.99569 5.33131 3.15015 5.17684C3.30462 5.02238 3.5555 5.02238 3.70997 5.17684L4.34748 5.81435L6.0073 4.15364C6.16176 3.99918 6.41265 3.99918 6.56711 4.15364C6.72158 4.30811 6.72158 4.55899 6.56711 4.71346L4.62693 6.65364C4.47247 6.80811 4.22158 6.80811 4.06801 6.65364L3.15104 5.73668L3.15015 5.73666ZM5.25372 14.9437V9.20798H7.71978C7.93853 9.20798 8.11532 9.03119 8.11532 8.81243L8.11621 1.99552C8.11621 1.77677 7.93943 1.59998 7.72067 1.59998H1.99564C1.77689 1.59998 1.6001 1.77676 1.6001 1.99552V8.81243C1.6001 9.03118 1.77688 9.20798 1.99564 9.20798H4.46261V15.3392C4.46261 15.5579 4.6394 15.7347 4.85816 15.7347H9.00627C9.22502 15.7347 9.40181 15.5579 9.40181 15.3392C9.40181 15.1204 9.22503 14.9436 9.00627 14.9436L5.25372 14.9437ZM14.9001 15.7348H18.9127C19.1314 15.7348 19.3082 15.558 19.3082 15.3393V9.20807H21.7752C21.994 9.20807 22.1707 9.03128 22.1707 8.81252L22.1716 1.99561C22.1716 1.77686 21.9949 1.60007 21.7761 1.60007H16.0511C15.8323 1.60007 15.6555 1.77685 15.6555 1.99561V8.81252C15.6555 9.03127 15.8323 9.20807 16.0511 9.20807H18.5171V14.9438H14.9002C14.6815 14.9438 14.5047 15.1206 14.5047 15.3394C14.5047 15.5581 14.6814 15.7348 14.9001 15.7348ZM7.32503 2.39104H2.39109V8.41687H7.32503V2.39104ZM21.3803 2.39104H16.4464V8.41687H21.3803V2.39104ZM14.3527 2.39104H9.41875V8.41687H14.3527V2.39104Z" fill="white"/>
</svg>
