<svg width="18" height="18" viewBox="0 0 18 18" fill="none" xmlns="http://www.w3.org/2000/svg">
<g clip-path="url(#clip0_631_8420)">
<path d="M9 0.5C13.6944 0.5 17.5 4.30558 17.5 9C17.5 13.6944 13.6944 17.5 9 17.5C4.30558 17.5 0.5 13.6944 0.5 9C0.5 4.30558 4.30558 0.5 9 0.5Z" fill="white" stroke="#CDFFD7"/>
<path fill-rule="evenodd" clip-rule="evenodd" d="M13.3907 5.04317C13.2258 5.09693 13.0775 5.18835 12.9456 5.31744L10.4403 7.77018L9.12174 9.06109L6.93534 11.2016L4.80825 9.11286C4.53387 8.84342 4.09434 8.84309 3.81956 9.11211C3.53671 9.38902 3.53671 9.84431 3.81956 10.1212L6.57366 12.8175C6.82412 13.0627 7.21292 13.0837 7.48707 12.878C7.58714 12.8182 7.67684 12.736 7.77081 12.644L10.2761 10.1912L11.5947 8.90034L14.1 6.4476C14.2758 6.27548 14.3747 6.07106 14.3966 5.83433C14.4185 5.5976 14.3379 5.38955 14.1546 5.21016C14.0813 5.1384 13.9769 5.07919 13.8413 5.03253C13.7058 4.98586 13.5555 4.98941 13.3907 5.04317Z" fill="#3DCD58"/>
</g>
<defs>
<clipPath id="clip0_631_8420">
<rect width="18" height="18" fill="white"/>
</clipPath>
</defs>
</svg>
