<svg width="13" height="12" viewBox="0 0 13 12" fill="none" xmlns="http://www.w3.org/2000/svg">
<path d="M7.59697 6.00716L11.6751 10.1013C11.8251 10.2519 11.9001 10.4354 11.9001 10.6519C11.9001 10.8683 11.8251 11.0519 11.6751 11.2024C11.5063 11.3342 11.3282 11.4001 11.1407 11.4001C10.9345 11.4001 10.7376 11.3342 10.5501 11.2024L6.52822 7.10833L2.4501 11.2024C2.2626 11.3342 2.0751 11.4001 1.8876 11.4001C1.68135 11.4001 1.49385 11.3342 1.3251 11.2024C1.1751 11.0519 1.1001 10.8683 1.1001 10.6519C1.1001 10.4354 1.1751 10.2519 1.3251 10.1013L5.40322 6.00716L1.3251 1.91304C1.1751 1.76245 1.1001 1.57892 1.1001 1.36245C1.1001 1.14598 1.1751 0.962451 1.3251 0.811862C1.38135 0.755392 1.44697 0.713039 1.52197 0.684804C1.59697 0.656568 1.67666 0.633039 1.76104 0.614215C1.84541 0.595392 1.9251 0.595392 2.0001 0.614215C2.0751 0.633039 2.1501 0.656568 2.2251 0.684804C2.3001 0.713039 2.3751 0.755392 2.4501 0.811862L6.52822 4.87774L10.5501 0.811862C10.7188 0.680097 10.911 0.614215 11.1267 0.614215C11.3423 0.614215 11.5251 0.680097 11.6751 0.811862C11.8251 0.962451 11.9001 1.14598 11.9001 1.36245C11.9001 1.57892 11.8251 1.76245 11.6751 1.91304L7.59697 6.00716Z" fill="#ffffff"/>
<mask id="mask0_485_2105" style="mask-type:luminance" maskUnits="userSpaceOnUse" x="1" y="0" width="11" height="12">
<path d="M7.59697 6.00716L11.6751 10.1013C11.8251 10.2519 11.9001 10.4354 11.9001 10.6519C11.9001 10.8683 11.8251 11.0519 11.6751 11.2024C11.5063 11.3342 11.3282 11.4001 11.1407 11.4001C10.9345 11.4001 10.7376 11.3342 10.5501 11.2024L6.52822 7.10833L2.4501 11.2024C2.2626 11.3342 2.0751 11.4001 1.8876 11.4001C1.68135 11.4001 1.49385 11.3342 1.3251 11.2024C1.1751 11.0519 1.1001 10.8683 1.1001 10.6519C1.1001 10.4354 1.1751 10.2519 1.3251 10.1013L5.40322 6.00716L1.3251 1.91304C1.1751 1.76245 1.1001 1.57892 1.1001 1.36245C1.1001 1.14598 1.1751 0.962451 1.3251 0.811862C1.38135 0.755392 1.44697 0.713039 1.52197 0.684804C1.59697 0.656568 1.67666 0.633039 1.76104 0.614215C1.84541 0.595392 1.9251 0.595392 2.0001 0.614215C2.0751 0.633039 2.1501 0.656568 2.2251 0.684804C2.3001 0.713039 2.3751 0.755392 2.4501 0.811862L6.52822 4.87774L10.5501 0.811862C10.7188 0.680097 10.911 0.614215 11.1267 0.614215C11.3423 0.614215 11.5251 0.680097 11.6751 0.811862C11.8251 0.962451 11.9001 1.14598 11.9001 1.36245C11.9001 1.57892 11.8251 1.76245 11.6751 1.91304L7.59697 6.00716Z" fill="white"/>
</mask>
<g mask="url(#mask0_485_2105)">
</g>
</svg>
