<svg width="43" height="10" viewBox="0 0 43 10" fill="none" xmlns="http://www.w3.org/2000/svg">
<path d="M4.956 9.132C4.044 9.132 3.264 8.952 2.616 8.592C1.968 8.232 1.468 7.728 1.116 7.08C0.772 6.424 0.6 5.652 0.6 4.764C0.6 4.1 0.696 3.504 0.888 2.976C1.088 2.44 1.376 1.984 1.752 1.608C2.128 1.224 2.584 0.927999 3.12 0.719999C3.664 0.512 4.276 0.408 4.956 0.408C5.356 0.408 5.76 0.46 6.168 0.564C6.584 0.66 6.944 0.799999 7.248 0.983999C7.448 1.096 7.584 1.236 7.656 1.404C7.728 1.572 7.748 1.74 7.716 1.908C7.692 2.076 7.624 2.22 7.512 2.34C7.408 2.46 7.276 2.536 7.116 2.568C6.956 2.6 6.776 2.564 6.576 2.46C6.336 2.316 6.084 2.212 5.82 2.148C5.556 2.084 5.288 2.052 5.016 2.052C4.48 2.052 4.028 2.16 3.66 2.376C3.3 2.584 3.028 2.888 2.844 3.288C2.66 3.688 2.568 4.18 2.568 4.764C2.568 5.34 2.66 5.832 2.844 6.24C3.028 6.648 3.3 6.96 3.66 7.176C4.028 7.384 4.48 7.488 5.016 7.488C5.272 7.488 5.532 7.456 5.796 7.392C6.068 7.328 6.328 7.228 6.576 7.092C6.784 6.988 6.968 6.952 7.128 6.984C7.296 7.008 7.432 7.08 7.536 7.2C7.648 7.312 7.716 7.448 7.74 7.608C7.772 7.768 7.756 7.928 7.692 8.088C7.628 8.248 7.508 8.384 7.332 8.496C7.036 8.696 6.672 8.852 6.24 8.964C5.808 9.076 5.38 9.132 4.956 9.132ZM11.3092 9.132C10.6773 9.132 10.1253 9.008 9.65325 8.76C9.18925 8.512 8.82925 8.156 8.57325 7.692C8.31725 7.228 8.18925 6.68 8.18925 6.048C8.18925 5.576 8.26125 5.152 8.40525 4.776C8.54925 4.4 8.75725 4.08 9.02925 3.816C9.30925 3.544 9.64125 3.34 10.0253 3.204C10.4093 3.06 10.8373 2.988 11.3092 2.988C11.9413 2.988 12.4893 3.112 12.9533 3.36C13.4253 3.608 13.7893 3.96 14.0453 4.416C14.3093 4.872 14.4413 5.416 14.4413 6.048C14.4413 6.528 14.3653 6.956 14.2133 7.332C14.0693 7.708 13.8613 8.032 13.5893 8.304C13.3173 8.576 12.9853 8.784 12.5933 8.928C12.2093 9.064 11.7813 9.132 11.3092 9.132ZM11.3092 7.776C11.5733 7.776 11.8013 7.712 11.9933 7.584C12.1853 7.456 12.3373 7.268 12.4493 7.02C12.5613 6.764 12.6173 6.44 12.6173 6.048C12.6173 5.464 12.4973 5.036 12.2573 4.764C12.0173 4.484 11.7013 4.344 11.3092 4.344C11.0533 4.344 10.8253 4.404 10.6253 4.524C10.4333 4.644 10.2813 4.832 10.1693 5.088C10.0653 5.336 10.0133 5.656 10.0133 6.048C10.0133 6.632 10.1333 7.068 10.3733 7.356C10.6133 7.636 10.9253 7.776 11.3092 7.776ZM16.5637 9.108C16.2917 9.108 16.0837 9.032 15.9397 8.88C15.7957 8.728 15.7237 8.516 15.7237 8.244V1.296C15.7237 1.024 15.7997 0.811999 15.9517 0.659999C16.1117 0.507999 16.3277 0.431999 16.5997 0.431999C16.8397 0.431999 17.0277 0.48 17.1637 0.576C17.3077 0.664 17.4397 0.819999 17.5597 1.044L20.3317 6.108H19.9237L22.6957 1.044C22.8157 0.819999 22.9437 0.664 23.0797 0.576C23.2237 0.48 23.4117 0.431999 23.6437 0.431999C23.9157 0.431999 24.1237 0.507999 24.2677 0.659999C24.4197 0.811999 24.4957 1.024 24.4957 1.296V8.244C24.4957 8.516 24.4237 8.728 24.2797 8.88C24.1357 9.032 23.9277 9.108 23.6557 9.108C23.3837 9.108 23.1717 9.032 23.0197 8.88C22.8757 8.728 22.8037 8.516 22.8037 8.244V3.384H23.0677L20.8357 7.38C20.7397 7.532 20.6357 7.648 20.5237 7.728C20.4197 7.8 20.2797 7.836 20.1037 7.836C19.9277 7.836 19.7837 7.796 19.6717 7.716C19.5597 7.636 19.4597 7.524 19.3717 7.38L17.1157 3.372H17.4037V8.244C17.4037 8.516 17.3317 8.728 17.1877 8.88C17.0517 9.032 16.8437 9.108 16.5637 9.108ZM27.1834 9C26.8714 9 26.6314 8.916 26.4634 8.748C26.2954 8.58 26.2114 8.34 26.2114 8.028V1.512C26.2114 1.2 26.2954 0.96 26.4634 0.792C26.6314 0.624 26.8714 0.539999 27.1834 0.539999H31.3714C31.6114 0.539999 31.7914 0.604 31.9114 0.732C32.0394 0.852 32.1034 1.028 32.1034 1.26C32.1034 1.5 32.0394 1.684 31.9114 1.812C31.7914 1.932 31.6114 1.992 31.3714 1.992H27.9874V3.972H31.0954C31.3434 3.972 31.5274 4.036 31.6474 4.164C31.7754 4.284 31.8394 4.464 31.8394 4.704C31.8394 4.944 31.7754 5.128 31.6474 5.256C31.5274 5.376 31.3434 5.436 31.0954 5.436H27.9874V7.548H31.3714C31.6114 7.548 31.7914 7.612 31.9114 7.74C32.0394 7.86 32.1034 8.036 32.1034 8.268C32.1034 8.508 32.0394 8.692 31.9114 8.82C31.7914 8.94 31.6114 9 31.3714 9H27.1834ZM36.429 9.108C36.125 9.108 35.893 9.024 35.733 8.856C35.573 8.688 35.493 8.452 35.493 8.148V2.076H33.369C33.121 2.076 32.929 2.008 32.793 1.872C32.657 1.736 32.589 1.548 32.589 1.308C32.589 1.06 32.657 0.872 32.793 0.744C32.929 0.608 33.121 0.539999 33.369 0.539999H39.477C39.725 0.539999 39.917 0.608 40.053 0.744C40.189 0.872 40.257 1.06 40.257 1.308C40.257 1.548 40.189 1.736 40.053 1.872C39.917 2.008 39.725 2.076 39.477 2.076H37.353V8.148C37.353 8.452 37.273 8.688 37.113 8.856C36.961 9.024 36.733 9.108 36.429 9.108Z" fill="#3DCD58"/>
</svg>
