<svg width="110" height="110" viewBox="0 0 110 110" fill="none" xmlns="http://www.w3.org/2000/svg">
<path d="M73.8711 16H25.0391C21.1914 16.043 18.0782 19.1328 18 22.9688V77.6138C18.0781 81.4497 21.1914 84.5396 25.0391 84.5826L73.8711 84.5865C77.7188 84.5396 80.832 81.4498 80.9102 77.6138V22.9688C80.8321 19.1329 77.7188 16.043 73.8711 16ZM88.3121 27.586C86.816 27.586 85.6051 28.7969 85.6051 30.293V87.414C85.5934 88.3476 84.8356 89.1054 83.8942 89.1054H32.2102C30.7141 89.1054 29.5032 90.3163 29.5032 91.8124C29.5032 93.3085 30.7141 94.5194 32.2102 94.5194H83.9802C87.824 94.4764 90.9411 91.3827 91.0193 87.5506L91.0232 30.2926C91.0232 28.7965 89.8082 27.586 88.3121 27.586Z" fill="#3DCD58"/>
</svg>
