<svg width="16" height="16" viewBox="0 0 16 16" fill="none" xmlns="http://www.w3.org/2000/svg">
<path fill-rule="evenodd" clip-rule="evenodd" d="M14.2042 5.90005C14.2792 5.97505 14.3167 6.08755 14.3167 6.20005V14.8063C14.3167 15.0125 14.148 15.2 13.9229 15.2H4.84795C4.62295 15.2 4.4542 15.0125 4.4542 14.8063V13.25H2.26045C2.03545 13.25 1.8667 13.0813 1.8667 12.8563V1.1938C1.8667 0.987549 2.03545 0.800049 2.26045 0.800049H8.2792C8.37295 0.800049 8.48545 0.837549 8.56045 0.912549L11.6167 3.9688C11.6917 4.0438 11.7292 4.1563 11.7292 4.25005V4.4563H12.5729C12.6854 4.4563 12.7792 4.4938 12.8542 4.5688L14.2042 5.90005ZM2.6542 1.6063V12.4625H10.9229V4.66255H8.2792C8.0542 4.66255 7.8667 4.47505 7.8667 4.25005V1.6063H2.6542ZM8.67295 3.8563V2.1688L10.3604 3.8563H8.67295ZM13.5292 14.3938V6.35005L12.4042 5.2438H11.7292V12.8563C11.7292 13.0813 11.5604 13.25 11.3354 13.25H5.26045V14.3938H13.5292ZM9.7792 6.38755C9.7792 6.16255 9.61045 5.97505 9.38545 5.97505H4.21045C3.98545 5.97505 3.79795 6.16255 3.79795 6.38755C3.79795 6.61255 3.98545 6.7813 4.21045 6.7813H9.38545C9.61045 6.7813 9.7792 6.61255 9.7792 6.38755ZM9.38545 7.92505C9.61045 7.92505 9.7792 8.0938 9.7792 8.3188C9.7792 8.5438 9.61045 8.71255 9.38545 8.71255H4.21045C3.98545 8.71255 3.79795 8.5438 3.79795 8.3188C3.79795 8.0938 3.98545 7.92505 4.21045 7.92505H9.38545ZM9.7792 10.2688C9.7792 10.0438 9.61045 9.8563 9.38545 9.8563H4.21045C3.98545 9.8563 3.79795 10.0438 3.79795 10.2688C3.79795 10.4938 3.98545 10.6625 4.21045 10.6625H9.38545C9.61045 10.6625 9.7792 10.4938 9.7792 10.2688Z" fill="#42B4E6"/>
<mask id="mask0_512_4352" style="mask-type:luminance" maskUnits="userSpaceOnUse" x="1" y="0" width="14" height="16">
<path fill-rule="evenodd" clip-rule="evenodd" d="M14.2042 5.90005C14.2792 5.97505 14.3167 6.08755 14.3167 6.20005V14.8063C14.3167 15.0125 14.148 15.2 13.9229 15.2H4.84795C4.62295 15.2 4.4542 15.0125 4.4542 14.8063V13.25H2.26045C2.03545 13.25 1.8667 13.0813 1.8667 12.8563V1.1938C1.8667 0.987549 2.03545 0.800049 2.26045 0.800049H8.2792C8.37295 0.800049 8.48545 0.837549 8.56045 0.912549L11.6167 3.9688C11.6917 4.0438 11.7292 4.1563 11.7292 4.25005V4.4563H12.5729C12.6854 4.4563 12.7792 4.4938 12.8542 4.5688L14.2042 5.90005ZM2.6542 1.6063V12.4625H10.9229V4.66255H8.2792C8.0542 4.66255 7.8667 4.47505 7.8667 4.25005V1.6063H2.6542ZM8.67295 3.8563V2.1688L10.3604 3.8563H8.67295ZM13.5292 14.3938V6.35005L12.4042 5.2438H11.7292V12.8563C11.7292 13.0813 11.5604 13.25 11.3354 13.25H5.26045V14.3938H13.5292ZM9.7792 6.38755C9.7792 6.16255 9.61045 5.97505 9.38545 5.97505H4.21045C3.98545 5.97505 3.79795 6.16255 3.79795 6.38755C3.79795 6.61255 3.98545 6.7813 4.21045 6.7813H9.38545C9.61045 6.7813 9.7792 6.61255 9.7792 6.38755ZM9.38545 7.92505C9.61045 7.92505 9.7792 8.0938 9.7792 8.3188C9.7792 8.5438 9.61045 8.71255 9.38545 8.71255H4.21045C3.98545 8.71255 3.79795 8.5438 3.79795 8.3188C3.79795 8.0938 3.98545 7.92505 4.21045 7.92505H9.38545ZM9.7792 10.2688C9.7792 10.0438 9.61045 9.8563 9.38545 9.8563H4.21045C3.98545 9.8563 3.79795 10.0438 3.79795 10.2688C3.79795 10.4938 3.98545 10.6625 4.21045 10.6625H9.38545C9.61045 10.6625 9.7792 10.4938 9.7792 10.2688Z" fill="white"/>
</mask>
<g mask="url(#mask0_512_4352)">
</g>
</svg>
