<svg width="18" height="18" viewBox="0 0 18 18" fill="none" xmlns="http://www.w3.org/2000/svg">
<path d="M9 18C13.9706 18 18 13.9706 18 9C18 4.02944 13.9706 0 9 0C4.02944 0 0 4.02944 0 9C0 13.9706 4.02944 18 9 18Z" fill="white"/>
<path d="M5.29782 12.4549C5.39085 12.5493 5.5017 12.6242 5.62393 12.6753C5.74616 12.7264 5.87733 12.7527 6.00982 12.7527C6.14231 12.7527 6.27348 12.7264 6.39571 12.6753C6.51794 12.6242 6.62879 12.5493 6.72182 12.4549L8.87782 10.2989L11.0338 12.4549C11.2227 12.6438 11.4788 12.7498 11.7458 12.7498C12.0129 12.7498 12.269 12.6438 12.4578 12.4549C12.6467 12.2661 12.7527 12.01 12.7527 11.7429C12.7527 11.4759 12.6467 11.2198 12.4578 11.0309L10.3018 8.87492L12.4578 6.71892C12.5513 6.62542 12.6255 6.51442 12.6761 6.39225C12.7267 6.27009 12.7527 6.13915 12.7527 6.00692C12.7527 5.87469 12.7267 5.74375 12.6761 5.62159C12.6255 5.49942 12.5513 5.38842 12.4578 5.29492C12.3643 5.20142 12.2533 5.12725 12.1312 5.07665C12.009 5.02604 11.878 5 11.7458 5C11.6136 5 11.4827 5.02604 11.3605 5.07665C11.2383 5.12725 11.1273 5.20142 11.0338 5.29492L8.87782 7.45092L6.72182 5.29492C6.62832 5.20142 6.51732 5.12725 6.39515 5.07665C6.27299 5.02604 6.14205 5 6.00982 5C5.87759 5 5.74665 5.02604 5.62449 5.07665C5.50232 5.12725 5.39132 5.20142 5.29782 5.29492C5.20432 5.38842 5.13015 5.49942 5.07955 5.62159C5.02895 5.74375 5.0029 5.87469 5.0029 6.00692C5.0029 6.13915 5.02895 6.27009 5.07955 6.39225C5.13015 6.51442 5.20432 6.62542 5.29782 6.71892L7.45382 8.87492L5.29782 11.0309C5.20349 11.124 5.12858 11.2348 5.07746 11.357C5.02633 11.4793 5 11.6104 5 11.7429C5 11.8754 5.02633 12.0066 5.07746 12.1288C5.12858 12.251 5.20349 12.3619 5.29782 12.4549Z" fill="#626469"/>
</svg>
