<svg width="16" height="16" viewBox="0 0 16 16" fill="none" xmlns="http://www.w3.org/2000/svg">
<g clip-path="url(#clip0_253_5640)">
<path d="M8 16C3.58857 16 0 12.4103 0 8C0 3.58857 3.58857 0 8 0C12.4103 0 16 3.58857 16 8C16 12.4103 12.4103 16 8 16ZM8 1.14286C4.21829 1.14286 1.14286 4.21829 1.14286 8C1.14286 11.7817 4.21829 14.8571 8 14.8571C11.7817 14.8571 14.8571 11.7817 14.8571 8C14.8571 4.21829 11.7817 1.14286 8 1.14286Z" fill="#FF9500"/>
<path d="M10.2857 11.4286C10.1394 11.4286 9.99312 11.3726 9.88112 11.2617L7.02397 8.40459C6.91769 8.29716 6.85712 8.15202 6.85712 8.00002V4.00002C6.85712 3.68459 7.11312 3.42859 7.42855 3.42859C7.74397 3.42859 7.99997 3.68459 7.99997 4.00002V7.76345L10.6903 10.4537C10.9131 10.6766 10.9131 11.0389 10.6903 11.2617C10.5783 11.3726 10.432 11.4286 10.2857 11.4286Z" fill="#FF9500"/>
</g>
<defs>
<clipPath id="clip0_253_5640">
<rect width="16" height="16" fill="white"/>
</clipPath>
</defs>
</svg>
