<svg width="16" height="16" viewBox="0 0 16 16" fill="none" xmlns="http://www.w3.org/2000/svg">
<path fill-rule="evenodd" clip-rule="evenodd" d="M14.0937 2.39978C14.6937 2.41853 15.2 2.88728 15.2 3.48728V12.4685C15.2 13.0873 14.6562 13.556 14.0937 13.5748H1.90621C1.30621 13.5748 0.799957 13.0873 0.799957 12.4873V3.50603C0.799957 3.29978 0.856207 3.09353 0.968707 2.90603C0.987457 2.86853 1.00621 2.84978 1.04371 2.81228L1.04371 2.81228L1.06246 2.79353C1.06813 2.78785 1.07381 2.78046 1.08001 2.77238C1.09428 2.75379 1.11131 2.7316 1.13746 2.71853C1.34371 2.51228 1.64371 2.39978 1.92496 2.39978H14.0937ZM1.99999 3.20577L7.99999 9.31827L14 3.20577H1.99999ZM14.3938 12.4688C14.3938 12.6375 14.2438 12.7875 14.0938 12.7688H1.90627C1.73752 12.7688 1.60627 12.6375 1.60627 12.4688V3.95629L7.71877 10.1625C7.79377 10.2375 7.88752 10.275 8.00002 10.275C8.11252 10.275 8.20627 10.2375 8.28127 10.1625L14.3938 3.93754V12.4688Z" fill="#333333"/>
<mask id="mask0_485_1772" style="mask-type:luminance" maskUnits="userSpaceOnUse" x="0" y="2" width="16" height="12">
<path fill-rule="evenodd" clip-rule="evenodd" d="M14.0937 2.39978C14.6937 2.41853 15.2 2.88728 15.2 3.48728V12.4685C15.2 13.0873 14.6562 13.556 14.0937 13.5748H1.90621C1.30621 13.5748 0.799957 13.0873 0.799957 12.4873V3.50603C0.799957 3.29978 0.856207 3.09353 0.968707 2.90603C0.987457 2.86853 1.00621 2.84978 1.04371 2.81228L1.04371 2.81228L1.06246 2.79353C1.06813 2.78785 1.07381 2.78046 1.08001 2.77238C1.09428 2.75379 1.11131 2.7316 1.13746 2.71853C1.34371 2.51228 1.64371 2.39978 1.92496 2.39978H14.0937ZM1.99999 3.20577L7.99999 9.31827L14 3.20577H1.99999ZM14.3938 12.4688C14.3938 12.6375 14.2438 12.7875 14.0938 12.7688H1.90627C1.73752 12.7688 1.60627 12.6375 1.60627 12.4688V3.95629L7.71877 10.1625C7.79377 10.2375 7.88752 10.275 8.00002 10.275C8.11252 10.275 8.20627 10.2375 8.28127 10.1625L14.3938 3.93754V12.4688Z" fill="white"/>
</mask>
<g mask="url(#mask0_485_1772)">
</g>
</svg>
