<svg width="16" height="16" viewBox="0 0 16 16" fill="none" xmlns="http://www.w3.org/2000/svg">
<path d="M7.875 0C6.31748 0 4.79492 0.461861 3.49989 1.32718C2.20485 2.19249 1.19549 3.4224 0.599452 4.86137C0.00341213 6.30034 -0.152539 7.88373 0.151319 9.41133C0.455178 10.9389 1.2052 12.3421 2.30654 13.4435C3.40788 14.5448 4.81107 15.2948 6.33867 15.5987C7.86627 15.9025 9.44967 15.7466 10.8886 15.1505C12.3276 14.5545 13.5575 13.5452 14.4228 12.2501C15.2881 10.9551 15.75 9.43253 15.75 7.875C15.7476 5.78714 14.9172 3.78547 13.4409 2.30913C11.9645 0.832793 9.96286 0.00235232 7.875 0ZM7.875 14.625C6.08479 14.625 4.3679 13.9138 3.10203 12.648C1.83616 11.3821 1.125 9.66521 1.125 7.875C1.125 6.08479 1.83616 4.3679 3.10203 3.10203C4.3679 1.83616 6.08479 1.125 7.875 1.125V7.875L12.6457 12.6458C12.02 13.2736 11.2765 13.7717 10.4578 14.1113C9.6391 14.451 8.76136 14.6256 7.875 14.625Z" fill="white"/>
</svg>
