<svg width="22" height="22" viewBox="0 0 22 22" fill="none" xmlns="http://www.w3.org/2000/svg">
<g clip-path="url(#clip0_234_6144)">
<path d="M8.3944 3.66444L7.13238 4.12377L8.56394 1.05366L7.36927 0.496561L4.98668 5.60622L10.0963 7.98893L10.6533 6.79426L7.58326 5.3626L8.84529 4.90325C12.7148 3.49488 17.0086 5.49713 18.417 9.36661C19.8254 13.2362 17.8232 17.53 13.9537 18.9384C10.0842 20.3468 5.79035 18.3445 4.38194 14.475L3.14312 14.9258C4.80013 19.4785 9.85196 21.8342 14.4046 20.1772C18.9572 18.5202 21.3128 13.4683 19.6558 8.91572C17.9988 4.36312 12.947 2.00742 8.3944 3.66444Z" fill="white"/>
</g>
<defs>
<clipPath id="clip0_234_6144">
<rect width="22" height="22" fill="white"/>
</clipPath>
</defs>
</svg>
