<svg width="24" height="25" viewBox="0 0 24 25" fill="none" xmlns="http://www.w3.org/2000/svg">
<g clip-path="url(#clip0_1315_4763)">
<path d="M14.252 2.70598C12.9776 1.97173 11.5427 1.56099 10.0729 1.50969C8.60301 1.45839 7.14298 1.76809 5.82052 2.4117C4.49806 3.0553 3.35348 4.0132 2.48694 5.20157C1.6204 6.38994 1.0583 7.77257 0.849818 9.22848C0.641342 10.6844 0.792844 12.1692 1.29107 13.553C1.78929 14.9368 2.61906 16.1774 3.70775 17.1663C4.79645 18.1551 6.1109 18.8621 7.5361 19.2254C8.96129 19.5886 10.4538 19.5971 11.883 19.25" stroke="#ffffff" stroke-width="1.5" stroke-linecap="round" stroke-linejoin="round"/>
<path d="M1.26099 13.5H11.015" stroke="#ffffff" stroke-width="1.5" stroke-linecap="round" stroke-linejoin="round"/>
<path d="M1.26099 7.5H11.015" stroke="#ffffff" stroke-width="1.5" stroke-linecap="round" stroke-linejoin="round"/>
<path d="M7.80701 1.711C6.19242 7.53873 6.43006 13.7243 8.48701 19.411" stroke="#ffffff" stroke-width="1.5" stroke-linecap="round" stroke-linejoin="round"/>
<path d="M11.69 1.711C12.0223 2.90645 12.2778 4.12193 12.455 5.35" stroke="#ffffff" stroke-width="1.5" stroke-linecap="round" stroke-linejoin="round"/>
<path d="M23.249 24H1" stroke="#ffffff" stroke-width="1.5" stroke-linecap="round" stroke-linejoin="round"/>
<path d="M14.249 24H23.249V9.84998C23.244 9.72151 23.1889 9.6001 23.0954 9.51185C23.0019 9.42359 22.8775 9.37553 22.749 9.37798H14.749C14.6204 9.37527 14.4959 9.42324 14.4023 9.51155C14.3088 9.59986 14.2537 9.72142 14.249 9.84998V24Z" stroke="#ffffff" stroke-width="1.5" stroke-linecap="round" stroke-linejoin="round"/>
<path d="M16.5 6.61797C16.5185 6.43697 16.6076 6.27055 16.748 6.15485C16.8884 6.03915 17.0688 5.9835 17.25 5.99997H20.25C20.4312 5.9835 20.6116 6.03915 20.752 6.15485C20.8924 6.27055 20.9815 6.43697 21 6.61797V9.37797H16.5V6.61797Z" stroke="#ffffff" stroke-width="1.5" stroke-linecap="round" stroke-linejoin="round"/>
<path d="M18.749 6.00002V2.40002" stroke="#ffffff" stroke-width="1.5" stroke-linecap="round" stroke-linejoin="round"/>
<path d="M20.249 12.84H17.249" stroke="#ffffff" stroke-width="1.5" stroke-linecap="round" stroke-linejoin="round"/>
<path d="M20.249 16.475H17.249" stroke="#ffffff" stroke-width="1.5" stroke-linecap="round" stroke-linejoin="round"/>
<path d="M20.249 20.122H17.249" stroke="#ffffff" stroke-width="1.5" stroke-linecap="round" stroke-linejoin="round"/>
</g>
<defs>
<clipPath id="clip0_1315_4763">
<rect width="23.998" height="23.998" fill="white" transform="translate(0 0.75)"/>
</clipPath>
</defs>
</svg>
