<svg width="25" height="24" viewBox="0 0 25 24" fill="none" xmlns="http://www.w3.org/2000/svg">
<g clip-path="url(#clip0_1316_11904)">
<path d="M24.0769 21.25C24.0769 22.35 23.1769 23.25 22.0769 23.25H3.5769C2.4769 23.25 1.5769 22.35 1.5769 21.25V2.75C1.5769 1.65 2.4769 0.75 3.5769 0.75H22.0769C23.1769 0.75 24.0769 1.65 24.0769 2.75V21.25Z" stroke="#ffffff" stroke-width="1.5" stroke-miterlimit="10" stroke-linecap="round" stroke-linejoin="round"/>
<path d="M8.27686 18.45C8.27686 19.05 7.87686 19.45 7.27686 19.45H6.27686C5.67686 19.45 5.27686 19.05 5.27686 18.45V15.65C5.27686 15.05 5.67686 14.65 6.27686 14.65H7.27686C7.87686 14.65 8.27686 15.05 8.27686 15.65V18.45Z" stroke="#ffffff" stroke-width="1.5" stroke-miterlimit="10" stroke-linecap="round" stroke-linejoin="round"/>
<path d="M14.2769 18.45C14.2769 19.05 13.8769 19.45 13.2769 19.45H12.2769C11.6769 19.45 11.2769 19.05 11.2769 18.45V6.65002C11.2769 6.05002 11.6769 5.65002 12.2769 5.65002H13.2769C13.8769 5.65002 14.2769 6.05002 14.2769 6.65002V18.45Z" stroke="#ffffff" stroke-width="1.5" stroke-miterlimit="10" stroke-linecap="round" stroke-linejoin="round"/>
<path d="M20.2769 18.45C20.2769 19.05 19.8769 19.45 19.2769 19.45H18.2769C17.6769 19.45 17.2769 19.05 17.2769 18.45V11.65C17.2769 11.05 17.6769 10.65 18.2769 10.65H19.2769C19.8769 10.65 20.2769 11.05 20.2769 11.65V18.45Z" stroke="#ffffff" stroke-width="1.5" stroke-miterlimit="10" stroke-linecap="round" stroke-linejoin="round"/>
</g>
<defs>
<clipPath id="clip0_1316_11904">
<rect width="24" height="24" fill="white" transform="translate(0.826904)"/>
</clipPath>
</defs>
</svg>
