<svg width="24" height="25" viewBox="0 0 24 25" fill="none" xmlns="http://www.w3.org/2000/svg">
<g clip-path="url(#clip0_1315_4867)">
<path d="M23.136 24L23.236 22.878C23.302 22.1517 23.1011 21.4262 22.671 20.8373C22.2409 20.2483 21.6109 19.8362 20.899 19.678L17.248 18.867V13.125C17.2479 12.8726 17.1969 12.6228 17.0981 12.3905C16.9992 12.1583 16.8545 11.9484 16.6727 11.7733C16.4908 11.5983 16.2755 11.4617 16.0397 11.3718C15.8038 11.2819 15.5522 11.2405 15.3 11.25C15.0568 11.2488 14.8159 11.2971 14.5919 11.3919C14.368 11.4867 14.1657 11.6261 13.9973 11.8016C13.8289 11.9771 13.698 12.185 13.6125 12.4127C13.527 12.6404 13.4887 12.8831 13.5 13.126V22.326L12.023 21.218C11.7278 20.9975 11.3631 20.8908 10.9956 20.9172C10.6282 20.9437 10.2825 21.1016 10.022 21.362C9.76138 21.6225 9.60332 21.9681 9.5767 22.3355C9.55008 22.703 9.65669 23.0677 9.877 23.363L10.352 23.996" stroke="#ffffff" stroke-width="1.5" stroke-linecap="round" stroke-linejoin="round"/>
<path d="M6.75 20.07H2.25C1.85218 20.07 1.47064 19.912 1.18934 19.6307C0.908035 19.3494 0.75 18.9678 0.75 18.57V3C0.75 2.60218 0.908035 2.22064 1.18934 1.93934C1.47064 1.65804 1.85218 1.5 2.25 1.5H15.75C16.1478 1.5 16.5294 1.65804 16.8107 1.93934C17.092 2.22064 17.25 2.60218 17.25 3V8.25" stroke="#ffffff" stroke-width="1.5" stroke-linecap="round" stroke-linejoin="round"/>
<path d="M6.375 7.125C6.375 7.46972 6.4429 7.81106 6.57482 8.12954C6.70673 8.44802 6.90009 8.7374 7.14384 8.98116C7.3876 9.22491 7.67698 9.41827 7.99546 9.55018C8.31394 9.6821 8.65528 9.75 9 9.75C9.34472 9.75 9.68606 9.6821 10.0045 9.55018C10.323 9.41827 10.6124 9.22491 10.8562 8.98116C11.0999 8.7374 11.2933 8.44802 11.4252 8.12954C11.5571 7.81106 11.625 7.46972 11.625 7.125C11.625 6.78028 11.5571 6.43894 11.4252 6.12046C11.2933 5.80198 11.0999 5.5126 10.8562 5.26884C10.6124 5.02509 10.323 4.83173 10.0045 4.69982C9.68606 4.5679 9.34472 4.5 9 4.5C8.65528 4.5 8.31394 4.5679 7.99546 4.69982C7.67698 4.83173 7.3876 5.02509 7.14384 5.26884C6.90009 5.5126 6.70673 5.80198 6.57482 6.12046C6.4429 6.43894 6.375 6.78028 6.375 7.125Z" stroke="#ffffff" stroke-width="1.5" stroke-linecap="round" stroke-linejoin="round"/>
<path d="M11.017 10.968C10.3896 10.6589 9.69938 10.4988 8.99999 10.5C8.07208 10.5017 7.16752 10.7911 6.411 11.3284C5.65447 11.8657 5.08323 12.6244 4.77599 13.5C4.60404 13.9815 4.51478 14.4887 4.51199 15" stroke="#ffffff" stroke-width="1.5" stroke-linecap="round" stroke-linejoin="round"/>
<path d="M4.5 15H10.5" stroke="#ffffff" stroke-width="1.5" stroke-linecap="round" stroke-linejoin="round"/>
</g>
<defs>
<clipPath id="clip0_1315_4867">
<rect width="24" height="24" fill="white" transform="translate(0 0.75)"/>
</clipPath>
</defs>
</svg>
