<svg width="25" height="24" viewBox="0 0 25 24" fill="none" xmlns="http://www.w3.org/2000/svg">
<g clip-path="url(#clip0_1316_12678)">
<path d="M4.35547 12.05C5.65547 13.35 7.35547 14.25 9.35547 14.25C10.3555 14.25 11.3555 14.05 12.1555 13.65" stroke="#ffffff" stroke-width="1.5" stroke-miterlimit="10" stroke-linecap="round" stroke-linejoin="round"/>
<path d="M8.05547 18.25C10.3751 18.25 12.2555 16.3696 12.2555 14.05C12.2555 11.7304 10.3751 9.85001 8.05547 9.85001C5.73587 9.85001 3.85547 11.7304 3.85547 14.05C3.85547 16.3696 5.73587 18.25 8.05547 18.25Z" stroke="#ffffff" stroke-width="1.5" stroke-miterlimit="10" stroke-linecap="round" stroke-linejoin="round"/>
<path d="M8.05554 19.25V23.25" stroke="#ffffff" stroke-width="1.5" stroke-miterlimit="10" stroke-linecap="round" stroke-linejoin="round"/>
<path d="M14.9555 23.25C13.5555 20.85 10.9555 19.25 8.05551 19.25C5.15551 19.25 2.55552 20.85 1.15552 23.25" stroke="#ffffff" stroke-width="1.5" stroke-miterlimit="10" stroke-linecap="round" stroke-linejoin="round"/>
<path d="M7.15552 6.85001V5.85001C7.15552 5.25001 7.55552 4.85001 8.15552 4.85001H9.65552C10.2555 4.85001 10.6555 5.25001 10.6555 5.85001V7.35001" stroke="#ffffff" stroke-width="1.5" stroke-miterlimit="10" stroke-linecap="round" stroke-linejoin="round"/>
<path d="M21.9055 7.25V10.25" stroke="#ffffff" stroke-width="1.5" stroke-miterlimit="10" stroke-linecap="round" stroke-linejoin="round"/>
<path d="M14.6555 9.25C14.0555 9.25 13.6555 8.85 13.6555 8.25V3.75C13.6555 3.15 14.0555 2.75 14.6555 2.75H16.1555C16.7555 2.75 17.1555 3.15 17.1555 3.75V8.25C17.1555 8.85 16.7555 9.25 16.1555 9.25H14.6555Z" stroke="#ffffff" stroke-width="1.5" stroke-miterlimit="10" stroke-linecap="round" stroke-linejoin="round"/>
<path d="M15.4055 9.25V11.25" stroke="#ffffff" stroke-width="1.5" stroke-miterlimit="10" stroke-linecap="round" stroke-linejoin="round"/>
<path d="M15.4055 0.75V2.75" stroke="#ffffff" stroke-width="1.5" stroke-miterlimit="10" stroke-linecap="round" stroke-linejoin="round"/>
<path d="M21.1555 7.25C20.5555 7.25 20.1555 6.85 20.1555 6.25V1.75C20.1555 1.15 20.5555 0.75 21.1555 0.75H22.6555C23.2555 0.75 23.6555 1.15 23.6555 1.75V6.25C23.6555 6.85 23.2555 7.25 22.6555 7.25H21.1555Z" stroke="#ffffff" stroke-width="1.5" stroke-miterlimit="10" stroke-linecap="round" stroke-linejoin="round"/>
</g>
<defs>
<clipPath id="clip0_1316_12678">
<rect width="24" height="24" fill="white" transform="translate(0.405518)"/>
</clipPath>
</defs>
</svg>
