<svg width="19" height="19" viewBox="0 0 19 19" fill="none" xmlns="http://www.w3.org/2000/svg">
<path fill-rule="evenodd" clip-rule="evenodd" d="M13.3043 6.5339C13.0711 6.5339 12.9728 6.57182 12.8773 6.67837C12.8405 6.72046 12.8253 6.76217 12.8117 6.84597L11.6267 11.3424C11.348 12.9183 9.41112 14.4934 6.88649 14.4934H3.3767L3.98568 12.1827H6.24072C6.47126 12.1827 6.65062 12.0981 6.80154 11.9301C6.85614 11.8649 6.92933 11.7625 6.93843 11.6575L7.87464 7.72948C8.15069 6.15168 9.81723 4.4093 12.3411 4.4093H15.9347L15.4751 6.5339H13.3043ZM14.1146 9.27354L14.5154 7.81935H18.167C18.6174 5.7103 18.2625 3.75596 16.9824 2.47582C14.3921 -0.113658 8.97239 0.76644 4.93441 4.62924C4.30458 5.22873 3.77182 5.87714 3.28608 6.53997H5.48461L4.97386 7.99795H2.34759C2.09695 8.45752 1.86109 8.91293 1.6806 9.37592H4.79525L4.29699 10.8339H1.23619C0.712906 13.0601 1.04659 15.1377 2.36276 16.4565C4.9219 19.0141 10.3246 18.1147 14.3603 14.253C15.0667 13.5811 15.6495 12.8561 16.1762 12.1114H13.352L13.7824 10.6568H17.0848C17.3263 10.1938 17.5497 9.73653 17.7229 9.27354H14.1146Z" fill="#333333"/>
</svg>
