<svg width="25" height="24" viewBox="0 0 25 24" fill="none" xmlns="http://www.w3.org/2000/svg">
<g clip-path="url(#clip0_1316_12668)">
<path d="M4.35547 12.05C5.65547 13.35 7.35547 14.25 9.35547 14.25C10.3555 14.25 11.3555 14.05 12.1555 13.65" stroke="#ffffff" stroke-width="1.5" stroke-miterlimit="10" stroke-linecap="round" stroke-linejoin="round"/>
<path d="M8.05547 18.25C10.3751 18.25 12.2555 16.3696 12.2555 14.05C12.2555 11.7304 10.3751 9.85001 8.05547 9.85001C5.73587 9.85001 3.85547 11.7304 3.85547 14.05C3.85547 16.3696 5.73587 18.25 8.05547 18.25Z" stroke="#ffffff" stroke-width="1.5" stroke-miterlimit="10" stroke-linecap="round" stroke-linejoin="round"/>
<path d="M8.05554 19.25V23.25" stroke="#ffffff" stroke-width="1.5" stroke-miterlimit="10" stroke-linecap="round" stroke-linejoin="round"/>
<path d="M14.9555 23.25C13.5555 20.85 10.9555 19.25 8.05553 19.25C5.15553 19.25 2.55552 20.85 1.15552 23.25" stroke="#ffffff" stroke-width="1.5" stroke-miterlimit="10" stroke-linecap="round" stroke-linejoin="round"/>
<path d="M19.0555 17.2319C20.7124 17.2319 22.0555 15.8888 22.0555 14.2319C22.0555 12.575 20.7124 11.2319 19.0555 11.2319C17.3986 11.2319 16.0555 12.575 16.0555 14.2319C16.0555 15.8888 17.3986 17.2319 19.0555 17.2319Z" stroke="#ffffff" stroke-width="1.5" stroke-miterlimit="10" stroke-linecap="round" stroke-linejoin="round"/>
<path d="M22.0556 14.2319C21.6556 14.3319 21.1556 14.3319 20.7556 14.3319C19.1556 14.3319 17.6556 13.7319 16.4556 12.7319" stroke="#ffffff" stroke-width="1.5" stroke-miterlimit="10" stroke-linecap="round" stroke-linejoin="round"/>
<path d="M23.6556 21.5319C22.9556 19.6319 21.1556 18.3319 18.9556 18.3319C17.5556 18.3319 16.3556 18.9319 15.4556 19.8319" stroke="#ffffff" stroke-width="1.5" stroke-miterlimit="10" stroke-linecap="round" stroke-linejoin="round"/>
<path d="M13.5555 7.11383V10.2138" stroke="#ffffff" stroke-width="1.5" stroke-miterlimit="10" stroke-linecap="round" stroke-linejoin="round"/>
<path d="M13.5555 7.11382L14.6555 6.71382C15.5555 6.41382 16.5555 6.51382 17.3555 7.11382C18.1555 7.71382 19.6555 7.81382 20.5555 7.51382L21.6555 7.11382V1.31382L20.5555 1.71382C19.6555 2.01382 18.1555 1.91382 17.3555 1.31382C16.5555 0.713816 15.5555 0.613816 14.6555 0.913816L13.5555 1.31382V7.11382Z" stroke="#ffffff" stroke-width="1.5" stroke-miterlimit="10" stroke-linecap="round" stroke-linejoin="round"/>
</g>
<defs>
<clipPath id="clip0_1316_12668">
<rect width="24" height="24" fill="white" transform="translate(0.405518)"/>
</clipPath>
</defs>
</svg>
