<svg width="16" height="16" viewBox="0 0 16 16" fill="none" xmlns="http://www.w3.org/2000/svg">
<path fill-rule="evenodd" clip-rule="evenodd" d="M10.53 3.46995C10.6704 3.61058 10.7493 3.8012 10.7493 3.99995C10.7493 4.1987 10.6704 4.38933 10.53 4.52995L7.06 7.99995L10.53 11.47C10.6037 11.5386 10.6628 11.6214 10.7038 11.7134C10.7448 11.8054 10.7668 11.9047 10.7686 12.0054C10.7704 12.1061 10.7518 12.2062 10.7141 12.2995C10.6764 12.3929 10.6203 12.4778 10.549 12.549C10.4778 12.6202 10.393 12.6764 10.2996 12.7141C10.2062 12.7518 10.1062 12.7703 10.0055 12.7685C9.90477 12.7668 9.80546 12.7447 9.71346 12.7037C9.62146 12.6627 9.53866 12.6036 9.47 12.53L5.47 8.52995C5.32955 8.38932 5.25066 8.1987 5.25066 7.99995C5.25066 7.8012 5.32955 7.61058 5.47 7.46995L9.47 3.46995C9.61062 3.3295 9.80125 3.25061 10 3.25061C10.1987 3.25061 10.3894 3.3295 10.53 3.46995Z" fill="#181D1F"/>
</svg>
