<svg width="16" height="16" viewBox="0 0 16 16" fill="none" xmlns="http://www.w3.org/2000/svg">
<path fill-rule="evenodd" clip-rule="evenodd" d="M5.5 4C5.5 3.80109 5.42098 3.61032 5.28033 3.46967C5.13968 3.32902 4.94891 3.25 4.75 3.25C4.55109 3.25 4.36032 3.32902 4.21967 3.46967C4.07902 3.61032 4 3.80109 4 4V12C4 12.1989 4.07902 12.3897 4.21967 12.5303C4.36032 12.671 4.55109 12.75 4.75 12.75C4.94891 12.75 5.13968 12.671 5.28033 12.5303C5.42098 12.3897 5.5 12.1989 5.5 12V4ZM8.31 8L11.78 4.53C11.9125 4.38783 11.9846 4.19978 11.9812 4.00548C11.9777 3.81118 11.899 3.62579 11.7616 3.48838C11.6242 3.35097 11.4388 3.27225 11.2445 3.26883C11.0502 3.2654 10.8622 3.33752 10.72 3.47L6.72 7.47C6.57955 7.61063 6.50066 7.80125 6.50066 8C6.50066 8.19875 6.57955 8.38937 6.72 8.53L10.72 12.53C10.7887 12.6037 10.8715 12.6628 10.9635 12.7038C11.0555 12.7448 11.1548 12.7668 11.2555 12.7686C11.3562 12.7704 11.4562 12.7518 11.5496 12.7141C11.643 12.6764 11.7278 12.6203 11.799 12.549C11.8703 12.4778 11.9264 12.393 11.9641 12.2996C12.0018 12.2062 12.0204 12.1062 12.0186 12.0055C12.0168 11.9048 11.9948 11.8055 11.9538 11.7135C11.9128 11.6215 11.8537 11.5387 11.78 11.47L8.31 8Z" fill="#181D1F"/>
</svg>
