<svg width="16" height="16" viewBox="0 0 16 16" fill="none" xmlns="http://www.w3.org/2000/svg">
<path fill-rule="evenodd" clip-rule="evenodd" d="M11.75 12.75C11.9489 12.75 12.1397 12.671 12.2803 12.5303C12.421 12.3897 12.5 12.1989 12.5 12V4C12.5 3.80109 12.421 3.61032 12.2803 3.46967C12.1397 3.32902 11.9489 3.25 11.75 3.25C11.5511 3.25 11.3603 3.32902 11.2197 3.46967C11.079 3.61032 11 3.80109 11 4V12C11 12.414 11.336 12.75 11.75 12.75ZM5.78 3.47C5.63783 3.33752 5.44978 3.2654 5.25548 3.26883C5.06118 3.27225 4.87579 3.35097 4.73838 3.48838C4.60097 3.62579 4.52225 3.81118 4.51883 4.00548C4.5154 4.19978 4.58752 4.38783 4.72 4.53L8.19 8L4.72 11.47C4.64631 11.5387 4.58721 11.6215 4.54622 11.7135C4.50523 11.8055 4.48319 11.9048 4.48141 12.0055C4.47963 12.1062 4.49816 12.2062 4.53588 12.2996C4.5736 12.393 4.62974 12.4778 4.70096 12.549C4.77218 12.6203 4.85701 12.6764 4.9504 12.7141C5.04379 12.7518 5.14382 12.7704 5.24452 12.7686C5.34523 12.7668 5.44454 12.7448 5.53654 12.7038C5.62854 12.6628 5.71134 12.6037 5.78 12.53L9.78 8.53C9.92045 8.38937 9.99934 8.19875 9.99934 8C9.99934 7.80125 9.92045 7.61063 9.78 7.47L5.78 3.47Z" fill="#181D1F"/>
</svg>
