<svg width="16" height="16" viewBox="0 0 16 16" fill="none" xmlns="http://www.w3.org/2000/svg">
<g opacity="0.5">
<rect x="0.5" y="0.5" width="15" height="15" stroke="#626469"/>
<path d="M11.3125 7.67188C11.4844 7.67188 11.6406 7.8125 11.6406 8C11.6406 8.1875 11.4844 8.32812 11.3125 8.32812H8.32812V11.2969C8.32812 11.4844 8.1875 11.6406 8 11.6406C7.8125 11.6406 7.67188 11.4844 7.67188 11.2969V8.32812H4.6875C4.51562 8.32812 4.35938 8.1875 4.35938 8C4.35938 7.8125 4.51562 7.67188 4.6875 7.67188H7.67188V4.70312C7.67188 4.51562 7.8125 4.35938 8 4.35938C8.1875 4.35938 8.32812 4.51562 8.32812 4.70312V7.67188H11.3125Z" fill="#626469" stroke="#626469"/>
</g>
</svg>
