<svg width="24" height="24" viewBox="0 0 24 24" fill="none" xmlns="http://www.w3.org/2000/svg">
<path d="M19.2422 12.4922C19.2422 12.5625 19.3359 15.0469 17.6016 16.875C16.4297 18.0938 14.7656 18.7031 12.6094 18.7031C10.0078 18.6328 7.71094 16.9453 6.86719 14.4844C6.42187 13.3125 5.83594 12.1875 5.13281 11.1328C4.80469 10.6641 4.6875 10.0781 4.80469 9.51562C4.89844 8.95312 5.22656 8.46094 5.71875 8.13281C5.76562 8.08594 5.83594 8.0625 5.90625 8.01562C6.39844 7.80469 6.86719 7.78125 7.3125 7.96875C7.42969 8.01562 7.54687 8.0625 7.64062 8.13281V7.57031C7.64062 6.58594 8.46094 5.76562 9.44531 5.74219C9.86719 5.74219 10.2422 5.88281 10.5703 6.14062C10.8984 5.625 11.4375 5.29688 12.0937 5.29688C12.7734 5.29688 13.3594 5.67188 13.6875 6.21094C13.9922 6 14.3672 5.85938 14.7656 5.85938C15.7031 5.85938 16.4766 6.58594 16.5703 7.52344C16.8281 7.38281 17.1094 7.3125 17.4141 7.3125C18.4219 7.3125 19.2422 8.13281 19.2422 9.14062V12.4922ZM16.875 16.1953C18.3047 14.6953 18.2344 12.5391 18.2344 12.5156V9.14062C18.2344 8.69531 17.8594 8.32031 17.4141 8.32031C16.9453 8.32031 16.5937 8.69531 16.5937 9.14062V9.86719C16.5937 10.1484 16.3594 10.3594 16.0781 10.3594C15.8203 10.3594 15.5859 10.1484 15.5859 9.86719V7.6875C15.5859 7.24219 15.2109 6.86719 14.7656 6.86719C14.2969 6.86719 13.9219 7.24219 13.9219 7.6875V9.44531C13.9219 9.72656 13.7109 9.96094 13.4297 9.96094C13.1484 9.96094 12.9375 9.72656 12.9375 9.44531V7.10156C12.9375 6.65625 12.5625 6.28125 12.1172 6.28125C11.6484 6.28125 11.2734 6.65625 11.2734 7.10156C11.2734 7.14844 11.2734 7.21875 11.25 7.26562C11.2734 7.35938 11.2734 7.45312 11.2734 7.54688V9.28125C11.2734 9.53906 11.0625 9.77344 10.7812 9.77344C10.5 9.77344 10.2891 9.53906 10.2891 9.28125V7.57031C10.2656 7.10156 9.91406 6.75 9.44531 6.75C9 6.75 8.64844 7.125 8.64844 7.57031V10.4766C8.64844 10.7578 8.41406 10.9688 8.15625 10.9688C7.875 10.9688 7.64062 10.7578 7.64062 10.4766V9.63281C7.5 9.32812 7.24219 9.02344 6.9375 8.88281C6.75 8.8125 6.5625 8.8125 6.35156 8.90625C6.35156 8.92969 6.30469 8.95312 6.28125 8.97656C6.02344 9.14062 5.83594 9.39844 5.78906 9.70312C5.71875 10.0078 5.78906 10.3125 5.95312 10.5703C6.70312 11.6953 7.33594 12.8906 7.80469 14.1328C8.50781 16.2188 10.4531 17.6484 12.6328 17.7188C14.4609 17.7188 15.9141 17.2031 16.875 16.1953Z" fill="#42B4E6"/>
</svg>
