<svg width="192" height="40" viewBox="0 0 192 40" fill="none" xmlns="http://www.w3.org/2000/svg">
<path d="M8.32677 24.8883H2.2112V14.3537C2.2112 13.9422 2.2112 13.3661 1.55006 13.3661C0.888916 13.3661 0.888916 13.9422 0.888916 14.3537V24.9706C0.888916 25.876 0.971559 25.9583 1.96327 25.9583H8.24412C8.65734 25.9583 9.23584 25.9583 9.23584 25.4644C9.31848 24.8883 8.73998 24.8883 8.32677 24.8883Z" fill="white"/>
<path d="M11.0516 16.7416C10.4731 16.7416 10.4731 17.2354 10.4731 17.6469V25.301C10.4731 25.7125 10.4731 26.2063 11.0516 26.2063C11.6301 26.2063 11.6301 25.7125 11.6301 25.301V17.6469C11.6301 17.3177 11.6301 16.7416 11.0516 16.7416Z" fill="white"/>
<path d="M11.0505 13.6949C10.6373 13.6949 10.3068 14.0242 10.3068 14.3534C10.3068 14.7649 10.6373 15.0118 11.0505 15.0118C11.4638 15.0118 11.7943 14.6826 11.7943 14.3534C11.7943 14.0242 11.4638 13.6949 11.0505 13.6949Z" fill="white"/>
<path d="M16.846 16.986H15.6064V16.163C15.6064 15.0107 15.689 14.27 17.0939 14.27C17.1766 14.27 17.3419 14.27 17.5071 14.27C17.6724 14.27 17.8377 14.27 17.9204 14.27C18.2509 14.27 18.4162 14.0231 18.4162 13.7762C18.4162 13.7762 18.4162 13.5293 18.1683 13.3647C17.9204 13.2824 17.3419 13.1178 16.7634 13.1178C16.3501 13.1178 15.9369 13.2001 15.6064 13.3647C15.1932 13.5293 14.9452 13.7762 14.7799 14.1054C14.6973 14.27 14.532 14.6815 14.532 15.7515V16.986H13.4577C13.2924 16.986 12.7139 16.986 12.7139 17.3975C12.7139 17.809 13.2097 17.809 13.4577 17.809H14.4494V25.2985C14.4494 25.71 14.4494 26.2038 15.0279 26.2038C15.6064 26.2038 15.6064 25.71 15.6064 25.2985V17.809H16.846C17.3419 17.809 17.5898 17.6444 17.5898 17.3975C17.5898 16.986 17.0939 16.986 16.846 16.986Z" fill="white"/>
<path d="M26.2577 20.8567C26.2577 20.7744 26.2577 19.7867 25.6792 18.7991C25.3486 18.223 24.9354 17.7292 24.4396 17.4C24.3569 17.4 24.3569 17.3177 24.2743 17.3177C24.2743 17.3177 24.1916 17.2354 24.109 17.2354C23.9437 17.1531 23.8611 17.1531 23.6958 17.0708C23.6131 17.0708 23.6131 17.0708 23.5305 16.9885C23.3652 16.9062 23.1999 16.9062 23.0346 16.8239H22.952C22.7867 16.8239 22.5388 16.7416 22.3735 16.7416C22.3735 16.7416 22.3735 16.7416 22.2908 16.7416C22.2082 16.7416 22.0429 16.7416 21.9603 16.7416C20.5553 16.7416 19.3983 17.1531 18.6546 18.0584C17.9108 18.8814 17.4976 20.0336 17.4976 21.4328C17.4976 22.8319 17.9108 23.9841 18.5719 24.8071C18.9851 25.2187 19.3983 25.5479 19.9768 25.7948C20.5553 26.0417 21.2165 26.124 21.9603 26.124C23.6958 26.124 24.6875 25.4656 25.1833 24.8894C25.7618 24.231 26.0098 23.5726 26.0098 23.408C26.0098 23.1611 25.7618 22.9142 25.4313 22.9142C25.1833 22.9142 24.9354 23.0788 24.8528 23.3257C24.5222 24.1487 24.0263 24.6425 23.2826 24.9717C22.8693 25.1363 22.4561 25.2187 21.9603 25.2187C20.8859 25.2187 20.1421 24.8894 19.5636 24.1487C19.0678 23.4903 18.7372 22.585 18.7372 21.5151H25.1007C25.7618 21.5974 26.2577 21.5974 26.2577 20.8567ZM18.8198 20.6921C18.9851 19.5398 19.8116 17.6469 21.9603 17.6469C24.6875 17.6469 24.9354 19.9513 25.0181 20.6921H18.8198Z" fill="white"/>
<path d="M32.2074 13.3661C31.5463 13.3661 31.5463 13.9422 31.5463 14.3537V25.2175C31.5463 25.629 31.5463 26.2052 32.2074 26.2052C32.8685 26.2052 32.8685 25.629 32.8685 25.2175V14.2714C32.8685 13.8599 32.8685 13.3661 32.2074 13.3661Z" fill="white"/>
<path d="M53.5386 19.9491C53.9519 19.9491 54.1998 19.6199 54.1998 19.2907V11.8013H52.8775V19.2907C52.8775 19.5376 53.1254 19.9491 53.5386 19.9491Z" fill="white"/>
<path d="M41.1386 21.5121C41.056 21.4298 40.9734 21.4298 40.8907 21.4298H40.8081C40.1469 21.1829 39.4031 20.936 38.6594 20.8537C37.9156 20.6891 37.2544 20.5245 36.7586 20.2776C36.1801 20.0307 35.9321 19.6192 35.9321 19.1254C35.9321 18.1377 37.0891 17.7262 38.2461 17.7262C39.4858 17.7262 40.3949 18.2201 40.6428 18.9608C40.8081 19.4546 40.9734 19.5369 41.2213 19.5369C41.7171 19.5369 41.7998 19.0431 41.7998 19.0431C41.7998 18.9608 41.7171 18.3847 41.2213 17.8908C40.9734 17.5616 40.5601 17.3147 40.1469 17.1501C39.5684 16.9032 38.9899 16.8209 38.1635 16.8209C36.8412 16.8209 35.8495 17.1501 35.271 17.8908C34.6925 18.5493 34.6925 19.2077 34.6925 19.3723C34.6925 20.0307 35.0231 20.6891 35.6016 21.0183C36.1801 21.4298 36.7586 21.5121 37.9982 21.8413C38.3288 21.9236 38.6594 22.0059 39.0726 22.0882H39.1552C39.8164 22.2528 41.056 22.582 41.056 23.652C41.056 24.475 40.2296 25.3803 38.4114 25.3803C37.0891 25.3803 36.1801 24.8865 35.6842 23.8989C35.5189 23.652 35.4363 23.3228 35.1057 23.3228C34.9404 23.3228 34.8578 23.4051 34.6925 23.4874C34.6099 23.5697 34.5272 23.7343 34.5272 23.8166C34.5272 24.3104 34.9404 25.0511 35.5189 25.5449C35.8495 25.7918 36.0974 25.9564 36.5107 26.0387C37.0065 26.2033 37.585 26.2856 38.3288 26.2856C39.8164 26.2856 40.9734 25.9564 41.6345 25.2157C42.213 24.5573 42.2956 23.8166 42.2956 23.5697C42.3783 22.582 41.9651 21.9236 41.1386 21.5121Z" fill="white"/>
<path d="M68.6568 17.7292C68.2436 17.3177 67.4172 16.7416 66.0123 16.7416C64.1941 16.7416 63.4503 17.6469 62.8718 18.223V17.5646C62.8718 17.3177 62.8718 16.9885 62.7066 16.8239H62.6239C62.5413 16.7416 62.4586 16.7416 62.2933 16.7416C61.7148 16.7416 61.7148 17.2354 61.7148 17.6469V25.301C61.7148 25.7125 61.7148 26.2063 62.2933 26.2063C62.4586 26.2063 62.5413 26.2063 62.6239 26.124H62.7066C62.8718 25.9594 62.8718 25.6302 62.8718 25.3833V22.0912C62.8718 20.6098 62.9545 19.869 63.2024 19.2929C63.4503 18.7991 63.8636 18.3876 64.3594 18.1407C64.8553 17.8938 65.4338 17.7292 65.9296 17.7292C66.7561 17.7292 67.4172 18.0584 67.8304 18.5522C68.161 19.046 68.2436 19.7044 68.2436 20.3629V25.301C68.2436 25.5479 68.2436 25.8771 68.4089 26.0417H68.4915C68.5742 26.124 68.6568 26.124 68.8221 26.124C69.4006 26.124 69.4006 25.6302 69.4006 25.2187V20.0336C69.4006 19.6221 69.4006 18.4699 68.6568 17.7292Z" fill="white"/>
<path d="M55.3465 13.2014V14.5182C57.4952 15.259 59.0654 17.3165 59.0654 19.7032C59.0654 22.7484 56.5861 25.1352 53.5284 25.1352C50.4706 25.1352 48.0739 22.6661 48.0739 19.7032C48.0739 17.3165 49.5615 15.3413 51.6276 14.6005V13.2837C48.8177 14.1067 46.8343 16.6581 46.8343 19.7032C46.8343 23.4068 49.8921 26.3697 53.5284 26.3697C57.2473 26.3697 60.2224 23.3245 60.2224 19.7032C60.3051 16.5758 58.239 13.9421 55.3465 13.2014Z" fill="white"/>
<path d="M104.361 14.6004C102.129 13.6127 100.807 13.2012 99.4848 13.2012C98.0799 13.2012 97.1708 13.6951 97.1708 14.4358C97.1708 16.7402 105.105 16.0818 105.105 21.4314C105.105 24.3943 102.625 26.1226 99.1543 26.1226C96.427 26.1226 95.1048 25.3819 93.5346 24.6412V21.3491C95.7659 22.8305 97.0882 23.3244 98.8237 23.3244C100.311 23.3244 101.138 22.8305 101.138 21.9252C101.138 19.3739 93.204 20.3615 93.204 14.765C93.204 12.1313 95.518 10.3207 99.0716 10.3207C100.807 10.3207 102.377 10.6499 104.361 11.5552V14.6004Z" fill="white"/>
<path d="M115.434 25.4634C114.111 25.9572 113.037 26.2041 111.88 26.2041C108.161 26.2041 105.847 24.0643 105.847 20.8545C105.847 17.6448 108.327 15.4226 111.798 15.4226C112.872 15.4226 114.194 15.6695 115.351 16.081V18.5501C114.525 18.0563 113.45 17.8094 112.707 17.8094C110.723 17.8094 109.484 18.9616 109.484 20.7722C109.484 22.5829 110.723 23.8174 112.624 23.8174C113.45 23.8174 114.112 23.6528 115.599 23.0767V25.4634" fill="white"/>
<path d="M146.095 15.3416C142.872 15.3416 140.558 17.646 140.558 20.7735C140.558 23.9832 142.955 26.1231 146.591 26.1231C147.418 26.1231 149.401 26.1231 151.219 24.7239V22.7487C149.649 23.8186 148.657 24.2301 147.335 24.2301C145.269 24.2301 144.029 23.1602 143.864 21.3496H151.385C151.632 17.4814 149.153 15.3416 146.095 15.3416ZM144.112 19.6212C144.277 18.1398 145.104 17.3168 146.343 17.3168C147.583 17.3168 148.492 18.1398 148.575 19.6212H144.112Z" fill="white"/>
<path d="M156.096 15.5062H152.791V25.9585H156.096V15.5062Z" fill="white"/>
<path d="M165.18 10.5673V15.9992C164.271 15.5877 163.444 15.3408 162.453 15.3408C159.478 15.3408 157.411 17.5629 157.411 20.7727C157.411 23.9001 159.478 26.2046 162.287 26.2046C163.362 26.2046 164.271 25.8754 165.18 25.1347V25.9577H168.486V10.5673H165.18ZM165.18 23.1594C164.519 23.7355 163.94 23.9824 163.196 23.9824C161.626 23.9824 160.635 22.7479 160.635 20.855C160.635 18.7974 161.626 17.5629 163.279 17.5629C163.858 17.5629 164.684 17.8098 165.097 18.139V23.1594H165.18Z" fill="white"/>
<path d="M175.432 15.3416C172.209 15.3416 169.895 17.646 169.895 20.7735C169.895 23.9832 172.292 26.1231 175.928 26.1231C176.754 26.1231 178.738 26.1231 180.639 24.7239V22.7487C179.068 23.8186 178.077 24.2301 176.754 24.2301C174.688 24.2301 173.449 23.1602 173.283 21.3496H180.804C180.969 17.4814 178.49 15.3416 175.432 15.3416ZM173.366 19.6212C173.531 18.1398 174.358 17.3168 175.597 17.3168C176.837 17.3168 177.746 18.1398 177.911 19.6212H173.366Z" fill="white"/>
<path d="M185.76 18.5513C186.752 16.4115 187.909 15.3416 189.149 15.3416C189.81 15.3416 190.388 15.5885 191.297 16.3292L190.388 19.2097C189.562 18.6336 188.983 18.469 188.405 18.469C187.165 18.469 186.421 19.6212 185.678 21.5142V26.0408H182.372V15.5062H185.678V18.5513" fill="white"/>
<path d="M156.258 11.1425C156.588 11.9655 156.01 13.1177 155.018 13.6938C154.026 14.2699 152.952 14.1053 152.704 13.2823C152.374 12.4593 152.952 11.3071 153.944 10.731C154.853 10.1549 155.927 10.3195 156.258 11.1425Z" fill="white"/>
<path d="M127.251 19.3752C127.251 16.577 125.35 15.4247 123.45 15.4247C122.127 15.4247 121.053 16.0009 120.144 17.1531H120.061V10.6512H116.756V26.0417H120.061V19.4575C120.805 18.3876 121.466 17.8938 122.293 17.8938C123.284 17.8938 124.028 18.6345 124.028 20.1982V23.9018C125.102 23.3257 126.259 22.9965 127.334 22.8319V19.3752" fill="white"/>
<path d="M135.519 15.3416C134.197 15.3416 133.122 15.8354 132.131 17.0699V15.5885H128.825V22.6664C129.982 22.7487 131.387 23.3248 132.131 24.1478V19.292C132.957 17.9752 133.618 17.5637 134.445 17.5637C135.354 17.5637 136.098 18.1398 136.098 19.6212V25.9585H139.403V19.3743C139.321 16.2469 137.089 15.3416 135.519 15.3416Z" fill="white"/>
<path d="M141.143 28.9205H137.259V31.6365H140.978V32.7887H137.259V35.587H141.226V36.7392H136.019V27.7683H141.143V28.9205Z" fill="white"/>
<path d="M145.351 27.7683H144.194V36.7392H145.351V27.7683Z" fill="white"/>
<path d="M149.561 33.9411H153.693C153.693 31.7189 152.702 30.7313 151.131 30.7313C149.479 30.7313 148.404 31.9658 148.404 33.6942C148.404 35.3402 149.396 36.8216 151.297 36.8216C152.288 36.8216 152.95 36.5747 153.693 36.1632V35.011C153.032 35.5048 152.288 35.7517 151.627 35.7517C150.388 35.7517 149.727 35.1756 149.561 33.9411ZM151.214 31.7189C152.041 31.7189 152.536 32.2951 152.619 33.2004H149.644C149.727 32.2951 150.305 31.7189 151.214 31.7189Z" fill="white"/>
<path d="M161.384 32.3774C160.723 31.8835 160.227 31.8012 159.731 31.8012C158.657 31.8012 157.913 32.6243 157.913 33.8588C157.913 35.0933 158.74 35.834 159.897 35.834C160.393 35.834 160.888 35.6694 161.467 35.4225V36.5747C161.054 36.7394 160.31 36.904 159.731 36.904C157.996 36.904 156.756 35.6694 156.756 33.9411C156.756 31.9658 157.913 30.7313 159.649 30.7313C160.31 30.7313 160.806 30.8959 161.384 31.1428V32.3774Z" fill="white"/>
<path d="M166.751 30.8125H168.652V31.8824H166.751V34.9276C166.751 35.586 167.247 35.8329 167.577 35.8329C167.991 35.8329 168.404 35.6683 168.9 35.4214V36.4913C168.486 36.7382 167.825 36.9028 167.495 36.9028C166.255 36.9028 165.594 36.0798 165.594 35.0099V31.8824H164.602V31.8001L166.834 29.6603V30.8125" fill="white"/>
<path d="M173.038 30.8136V32.2128C173.617 31.1428 174.195 30.7313 174.774 30.7313C175.27 30.7313 175.683 30.9782 176.179 31.3897L175.518 32.3774C175.187 32.0482 174.691 31.8012 174.443 31.8012C173.617 31.8012 173.038 32.6243 173.038 33.6119V36.7394H171.881V30.8136H173.038Z" fill="white"/>
<path d="M188.242 32.3774C187.581 31.8835 187.085 31.8012 186.59 31.8012C185.515 31.8012 184.772 32.6243 184.772 33.8588C184.772 35.0933 185.598 35.834 186.755 35.834C187.251 35.834 187.747 35.6694 188.325 35.4225V36.5747C187.912 36.7394 187.168 36.904 186.59 36.904C184.854 36.904 183.615 35.6694 183.615 33.9411C183.615 31.9658 184.771 30.7313 186.507 30.7313C187.168 30.7313 187.664 30.8959 188.242 31.1428V32.3774Z" fill="white"/>
<path d="M180.47 30.8149H179.313V36.7407H180.47V30.8149Z" fill="white"/>
<path d="M180.553 28.6735C180.636 28.9204 180.471 29.3319 180.14 29.5788C179.81 29.8257 179.396 29.7434 179.314 29.4142C179.231 29.085 179.396 28.7558 179.727 28.5089C180.057 28.3443 180.388 28.4266 180.553 28.6735Z" fill="white"/>
<path d="M128.903 31.6372L129.233 30.3204H132.457C132.87 28.4275 132.539 26.6991 131.382 25.6292C129.068 23.3248 124.275 24.1478 120.721 27.5221C120.143 28.016 119.73 28.5921 119.234 29.1682H121.217L120.804 30.485H118.49C118.242 30.8965 118.077 31.308 117.911 31.7195H120.639L120.225 33.0364H117.498C117.002 35.0116 117.333 36.8222 118.49 37.9745C120.721 40.1966 125.515 39.4559 129.151 35.9992C129.812 35.4231 130.308 34.7647 130.721 34.1063H128.242L128.655 32.7895H131.547C131.795 32.3779 131.961 31.9664 132.126 31.5549H128.903V31.6372ZM128.159 29.1682C127.994 29.1682 127.829 29.1682 127.746 29.3328C127.746 29.3328 127.663 29.4151 127.663 29.4974L126.672 33.4479C126.424 34.847 124.688 36.2461 122.457 36.2461H121.217H119.316L119.895 34.1886H121.878C122.044 34.1886 122.209 34.1063 122.374 33.9417C122.457 33.8594 122.457 33.7771 122.457 33.6948L123.283 30.2381C123.531 28.839 125.019 27.2752 127.25 27.2752H130.39L129.977 29.1682H128.159Z" fill="white"/>
<path d="M81.6328 0.444458H80.9716V39.5556H81.6328V0.444458Z" fill="white"/>
</svg>
