<svg width="16" height="16" viewBox="0 0 16 16" fill="none" xmlns="http://www.w3.org/2000/svg">
<path d="M11.8781 12.9984C11.8375 13.0156 11.7938 13.0234 11.75 13.0234C11.6828 13.0234 11.6188 13.0031 11.5641 12.9672C11.5094 12.9297 11.4656 12.8781 11.4406 12.8172C11.4156 12.7562 11.4078 12.6891 11.4219 12.6234C11.4344 12.5578 11.4672 12.4984 11.5141 12.4516L12.8531 11.1094L2.33594 11.1094C2.24687 11.1094 2.16094 11.0734 2.09844 11.0109C2.03594 10.9484 2 10.8625 2 10.7734L2 3.3125C2 3.12656 2.15 2.97656 2.33594 2.97656C2.52188 2.97656 2.67188 3.12656 2.67188 3.3125V7.59375L2.67187 10.4375L12.8531 10.4375L11.5125 9.09688C11.4797 9.06563 11.4547 9.02813 11.4375 8.9875C11.4203 8.94688 11.4109 8.90313 11.4094 8.85781C11.4094 8.8125 11.4172 8.76875 11.4344 8.72812C11.4516 8.6875 11.4766 8.65 11.5078 8.61719C11.5391 8.58594 11.5766 8.56094 11.6188 8.54375C11.6609 8.52656 11.7047 8.51875 11.7484 8.51875C11.7937 8.51875 11.8375 8.52812 11.8781 8.54688C11.9188 8.56406 11.9563 8.59062 11.9875 8.62187L13.9016 10.5375L13.9047 10.5406C13.9344 10.5719 13.9578 10.6078 13.975 10.6469C13.9906 10.6859 14 10.7281 14 10.7703V10.7781C14 10.8203 13.9906 10.8625 13.9734 10.9031C13.9563 10.9422 13.9328 10.9781 13.9031 11.0094L13.9 11.0125L11.9859 12.9266C11.9563 12.9563 11.9188 12.9813 11.8781 12.9984Z" fill="#626469"/>
</svg>
