<svg width="32" height="32" viewBox="0 0 32 32" fill="none" xmlns="http://www.w3.org/2000/svg">
<rect width="32" height="32" rx="16" fill="white"/>
<path fill-rule="evenodd" clip-rule="evenodd" d="M6 11C6 10.337 6.26339 9.70107 6.73223 9.23223C7.20107 8.76339 7.83696 8.5 8.5 8.5H23.5C24.163 8.5 24.7989 8.76339 25.2678 9.23223C25.7366 9.70107 26 10.337 26 11V21C26 21.663 25.7366 22.2989 25.2678 22.7678C24.7989 23.2366 24.163 23.5 23.5 23.5H8.5C7.83696 23.5 7.20107 23.2366 6.73223 22.7678C6.26339 22.2989 6 21.663 6 21V11ZM8.5 9.75C8.16848 9.75 7.85054 9.8817 7.61612 10.1161C7.3817 10.3505 7.25 10.6685 7.25 11V11.2713L16 16.5212L24.75 11.2713V11C24.75 10.6685 24.6183 10.3505 24.3839 10.1161C24.1495 9.8817 23.8315 9.75 23.5 9.75H8.5ZM24.75 12.7287L18.8025 16.2975L24.75 19.8925V12.73V12.7287ZM24.7075 21.3263L17.5887 17.025L16 17.9788L14.41 17.025L7.2925 21.325C7.364 21.5905 7.52106 21.8251 7.73936 21.9923C7.95766 22.1595 8.22501 22.2501 8.5 22.25H23.5C23.7748 22.2502 24.0421 22.1598 24.2603 21.9928C24.4786 21.8258 24.6358 21.5915 24.7075 21.3263ZM7.25 19.8925L13.1975 16.2975L7.25 12.7287V19.8912V19.8925Z" fill="#3DCD58"/>
</svg>
