<svg width="37" height="36" viewBox="0 0 37 36" fill="none" xmlns="http://www.w3.org/2000/svg">
<path fill-rule="evenodd" clip-rule="evenodd" d="M12.9513 4.875H24.0485C25.3962 4.87496 26.52 4.87493 27.4122 4.99487C28.3538 5.12148 29.204 5.39999 29.8872 6.08319C30.5705 6.7664 30.849 7.6166 30.9756 8.55828C31.0955 9.45047 31.0955 10.5743 31.0955 11.922V22.848L33.3644 25.1898L33.3701 25.1953L33.3807 25.206L33.3924 25.218L33.4008 25.2265L33.4157 25.2422L33.4317 25.2591L33.438 25.266L33.4502 25.2793L33.4635 25.2946L33.4758 25.3092C33.4797 25.314 33.4862 25.3218 33.494 25.3317C34.0512 25.9781 34.5485 26.943 34.6166 27.9077L34.6172 27.9133C34.6188 27.9289 34.6199 27.9415 34.6205 27.9487L34.6217 27.9678L34.6227 27.9879L34.6233 28.0059L34.6236 28.0154L34.6239 28.0387L34.6241 28.06V28.0722L34.6239 28.0889L34.6238 28.1039L34.6235 28.111C34.6235 28.1268 34.6235 28.1436 34.6236 28.1608C34.6239 28.357 34.6242 28.6394 34.6166 28.7601C34.4856 30.8334 32.8332 32.4858 30.7599 32.6167C30.6291 32.625 30.4833 32.625 30.294 32.625H6.70562C6.51636 32.625 6.37059 32.625 6.23975 32.6167C4.16645 32.4858 2.51408 30.8334 2.38307 28.7601C2.37549 28.6403 2.37594 28.3603 2.37626 28.1646C2.37629 28.1458 2.37632 28.128 2.37633 28.1109L2.37612 28.1039L2.37585 28.0889L2.37573 28.0722V28.06L2.37588 28.0387L2.37623 28.0154L2.37645 28.0059L2.37708 27.9879L2.3781 27.9678L2.37941 27.9487C2.37996 27.9415 2.381 27.9289 2.38269 27.9133L2.38331 27.9077C2.45127 26.9432 2.94849 25.9781 3.50579 25.3317C3.5136 25.3217 3.52004 25.3139 3.52398 25.3092L3.53628 25.2946L3.54959 25.2793L3.56166 25.266L3.56807 25.2591L3.58404 25.2422L3.59883 25.2265L3.60722 25.218L3.61893 25.206L3.6296 25.1955L3.63533 25.1898L5.90427 22.848V11.922C5.90423 10.5743 5.9042 9.45047 6.02414 8.55828C6.15075 7.6166 6.42926 6.7664 7.11246 6.08319C7.79567 5.39999 8.64587 5.12148 9.58755 4.99487C10.4797 4.87493 11.6036 4.87496 12.9513 4.875ZM7.50572 24.4285L5.23455 26.7727C4.89279 27.1537 4.64363 27.7128 4.62636 28.0894C4.62635 28.122 4.62632 28.1549 4.62627 28.1879C4.6262 28.2678 4.62611 28.3485 4.62635 28.4238C4.62653 28.4796 4.62689 28.5279 4.62749 28.5664C4.62794 28.5961 4.62845 28.6119 4.62863 28.6173C4.68816 29.5596 5.43923 30.3117 6.38163 30.3713C6.43176 30.3744 6.49991 30.375 6.74088 30.375H30.2588C30.4998 30.375 30.5679 30.3744 30.618 30.3713C31.5605 30.3117 32.3115 29.5606 32.3711 28.6182C32.3708 28.6236 32.3715 28.6102 32.3723 28.5661C32.3729 28.5276 32.3732 28.4791 32.3735 28.4235C32.3736 28.3461 32.3736 28.2627 32.3735 28.1805C32.3735 28.1499 32.3735 28.1194 32.3735 28.0894C32.3562 27.7129 32.1069 27.1537 31.7651 26.7727L29.4939 24.4285H7.50572ZM28.8455 22.1785V12C28.8455 10.554 28.8431 9.58265 28.7456 8.85809C28.6526 8.1659 28.4918 7.86966 28.2963 7.67418C28.1007 7.4787 27.8045 7.31787 27.1124 7.22481C26.3877 7.1274 25.4165 7.125 23.9705 7.125H13.0293C11.5833 7.125 10.6119 7.1274 9.88737 7.22481C9.19517 7.31787 8.89893 7.4787 8.70345 7.67418C8.50797 7.86966 8.34714 8.1659 8.25408 8.85809C8.15667 9.58265 8.15427 10.554 8.15427 12V22.1785H28.8455ZM33.0045 27.0357C33.0158 27.0321 33.0266 27.0285 33.0369 27.0248C33.0411 27.0224 33.0453 27.02 33.0497 27.0174C33.0347 27.0237 33.0195 27.0298 33.0045 27.0357ZM33.0743 27.0388C33.0831 27.0343 33.0918 27.0301 33.1004 27.0262C33.1043 27.025 33.1082 27.024 33.1122 27.023C33.0995 27.0282 33.0869 27.0334 33.0743 27.0388ZM3.92597 27.0388C3.91721 27.0345 3.90867 27.0303 3.90039 27.0265C3.89661 27.0255 3.89276 27.0244 3.88881 27.0234C3.90126 27.0285 3.91365 27.0336 3.92597 27.0388ZM3.99632 27.036C3.98076 27.03 3.96521 27.0237 3.94971 27.0172C3.95418 27.0198 3.95859 27.0224 3.96293 27.0248C3.97349 27.0287 3.98465 27.0324 3.99632 27.036ZM13.6249 27.75C13.6249 27.1287 14.1285 26.625 14.7499 26.625H22.2498C22.8711 26.625 23.3748 27.1287 23.3748 27.75C23.3748 28.3713 22.8711 28.875 22.2498 28.875H14.7499C14.1285 28.875 13.6249 28.3713 13.6249 27.75Z" fill="#3DCD58"/>
<path d="M19.6249 10.125C19.6249 10.7463 19.1212 11.25 18.4999 11.25C17.8786 11.25 17.3749 10.7463 17.3749 10.125C17.3749 9.50369 17.8786 9 18.4999 9C19.1212 9 19.6249 9.50369 19.6249 10.125Z" fill="#3DCD58"/>
</svg>
