<svg width="37" height="36" viewBox="0 0 37 36" fill="none" xmlns="http://www.w3.org/2000/svg">
<path fill-rule="evenodd" clip-rule="evenodd" d="M22.922 1.875H26.078C27.4258 1.87496 28.5496 1.87493 29.4418 1.99487C30.3835 2.12148 31.2336 2.39999 31.9167 3.08319C32.6 3.7664 32.8785 4.6166 33.0051 5.55828C33.1251 6.45047 33.125 7.5743 33.125 8.92202V31.875H33.5C34.1213 31.875 34.625 32.3787 34.625 33C34.625 33.6213 34.1213 34.125 33.5 34.125H3.5C2.87869 34.125 2.375 33.6213 2.375 33C2.375 32.3787 2.87869 31.875 3.5 31.875H3.875V13.422C3.87496 12.0743 3.87491 10.9505 3.99487 10.0583C4.12148 9.1166 4.39998 8.2664 5.08319 7.58319C5.76639 6.89999 6.6166 6.62148 7.55828 6.49487C8.45045 6.37493 9.57428 6.37496 10.922 6.375H15.917C15.9941 5.06375 16.2359 3.93048 17.0833 3.08319C17.7664 2.39999 18.6165 2.12148 19.5582 1.99487C20.4504 1.87493 21.5742 1.87496 22.922 1.875ZM17.0102 8.625H17.0045H17H11C9.55398 8.625 8.58264 8.6274 7.85808 8.72481C7.16589 8.81787 6.86964 8.9787 6.67418 9.17418C6.4787 9.36966 6.31787 9.6659 6.22481 10.3581C6.12739 11.0826 6.125 12.054 6.125 13.5V31.875H12.875V28.5C12.875 27.8787 13.3787 27.375 14 27.375C14.6213 27.375 15.125 27.8787 15.125 28.5V31.875H21.875V13.5C21.875 12.054 21.8726 11.0826 21.7753 10.3581C21.6821 9.6659 21.5213 9.36966 21.3258 9.17418C21.1304 8.9787 20.8341 8.81787 20.1419 8.72481C19.419 8.62763 18.4506 8.62502 17.0102 8.625ZM24.125 31.875V13.422C24.125 12.0743 24.1252 10.9505 24.0052 10.0583C23.8786 9.1166 23.6 8.2664 22.9167 7.58319C22.2336 6.89999 21.3835 6.62148 20.4418 6.49487C19.8037 6.4091 19.0472 6.38468 18.1751 6.37775C18.2502 5.32829 18.4154 4.93295 18.6742 4.67418C18.8696 4.4787 19.1659 4.31787 19.8581 4.22481C20.5826 4.1274 21.554 4.125 23 4.125H26C27.446 4.125 28.4174 4.1274 29.1419 4.22481C29.8342 4.31787 30.1304 4.4787 30.3258 4.67418C30.5213 4.86966 30.6821 5.1659 30.7753 5.85809C30.8726 6.58265 30.875 7.55399 30.875 9V31.875H24.125ZM8.375 12C8.375 11.3787 8.87869 10.875 9.5 10.875H18.5C19.1213 10.875 19.625 11.3787 19.625 12C19.625 12.6213 19.1213 13.125 18.5 13.125H9.5C8.87869 13.125 8.375 12.6213 8.375 12ZM8.375 16.5C8.375 15.8787 8.87869 15.375 9.5 15.375H18.5C19.1213 15.375 19.625 15.8787 19.625 16.5C19.625 17.1213 19.1213 17.625 18.5 17.625H9.5C8.87869 17.625 8.375 17.1213 8.375 16.5ZM8.375 21C8.375 20.3787 8.87869 19.875 9.5 19.875H18.5C19.1213 19.875 19.625 20.3787 19.625 21C19.625 21.6213 19.1213 22.125 18.5 22.125H9.5C8.87869 22.125 8.375 21.6213 8.375 21Z" fill="#3DCD58"/>
</svg>
