<svg width="38" height="39" viewBox="0 0 38 39" fill="none" xmlns="http://www.w3.org/2000/svg">
<rect y="0.21875" width="38.0001" height="38.0001" rx="19" fill="#383838"/>
<path d="M25.3218 21.8699C27.2741 21.8699 28.8567 23.4526 28.8567 25.4048V27.1723H27.0893M22.6706 18.2237C24.1953 17.8313 25.3218 16.4473 25.3218 14.8001C25.3218 13.153 24.1953 11.769 22.6706 11.3766M20.0195 14.8002C20.0195 16.7524 18.4368 18.335 16.4846 18.335C14.5323 18.335 12.9497 16.7524 12.9497 14.8002C12.9497 12.8479 14.5323 11.2653 16.4846 11.2653C18.4368 11.2653 20.0195 12.8479 20.0195 14.8002ZM12.9497 21.8699H20.0195C21.9717 21.8699 23.5544 23.4526 23.5544 25.4048V27.1723H9.41479V25.4048C9.41479 23.4526 10.9974 21.8699 12.9497 21.8699Z" stroke="white" stroke-width="1.76745" stroke-linecap="round" stroke-linejoin="round"/>
</svg>
