<svg width="37" height="36" viewBox="0 0 37 36" fill="none" xmlns="http://www.w3.org/2000/svg">
<path fill-rule="evenodd" clip-rule="evenodd" d="M28.4265 27.9416C26.6125 27.9416 25.1177 29.4364 25.1177 31.2504C25.1177 33.0644 26.6125 34.5592 28.4265 34.5592H31.7353C33.5493 34.5592 35.0441 33.0644 35.0441 31.2504C35.0441 29.4364 33.5493 27.9416 31.7353 27.9416H28.4265ZM28.4265 30.1474H31.7353C32.3654 30.1474 32.8383 30.6203 32.8383 31.2504C32.8383 31.8805 32.3654 32.3533 31.7353 32.3533H28.4265C27.7964 32.3533 27.3236 31.8805 27.3236 31.2504C27.3236 30.6203 27.7964 30.1474 28.4265 30.1474Z" fill="#3DCD58" stroke="#3DCD58" stroke-width="0.00239216" stroke-miterlimit="4.1" stroke-linecap="round" stroke-linejoin="round"/>
<path fill-rule="evenodd" clip-rule="evenodd" d="M30.0809 20.221C28.2666 20.221 26.7721 21.7155 26.7721 23.5298C26.7721 25.3442 28.2666 26.8386 30.0809 26.8386C31.8953 26.8386 33.3897 25.3442 33.3897 23.5298C33.3897 21.7155 31.8953 20.221 30.0809 20.221ZM30.0809 22.4269C30.7031 22.4269 31.1839 22.9076 31.1839 23.5298C31.1839 24.152 30.7031 24.6327 30.0809 24.6327C29.4587 24.6327 28.978 24.152 28.978 23.5298C28.978 22.9076 29.4587 22.4269 30.0809 22.4269Z" fill="#3DCD58" stroke="#3DCD58" stroke-width="0.00239216" stroke-miterlimit="4.1" stroke-linecap="round" stroke-linejoin="round"/>
<path fill-rule="evenodd" clip-rule="evenodd" d="M15.1912 5.88274C14.8987 5.88274 14.6182 5.99892 14.4113 6.20576C14.2045 6.4126 14.0882 6.69316 14.0882 6.98568C14.0882 7.2782 14.2045 7.55872 14.4113 7.76556C14.6182 7.9724 14.8987 8.08862 15.1912 8.08862H28.4265C30.267 8.08862 31.7353 9.55696 31.7353 11.3974V12.5004C31.7353 14.3409 30.267 15.8092 28.4265 15.8092H9.67648C6.03473 15.8092 3.05884 18.7851 3.05884 22.4269V23.5298C3.05884 27.1716 6.03473 30.1474 9.67648 30.1474H19.1312L18.8231 30.4555C18.6164 30.6623 18.5002 30.9428 18.5002 31.2353C18.5002 31.5278 18.6164 31.8083 18.8231 32.0151C19.03 32.2219 19.3105 32.338 19.603 32.338C19.8954 32.338 20.1759 32.2219 20.3828 32.0151L22.5887 29.8092C22.7954 29.6024 22.9116 29.3219 22.9116 29.0294C22.9116 28.737 22.7954 28.4565 22.5887 28.2496L20.3828 26.0437C20.176 25.8369 19.8955 25.7206 19.603 25.7206C19.3105 25.7206 19.0299 25.8369 18.8231 26.0437C18.6164 26.2506 18.5002 26.5311 18.5002 26.8235C18.5002 27.116 18.6164 27.3965 18.8231 27.6034L19.1613 27.9416H9.67648C7.22687 27.9416 5.26472 25.9794 5.26472 23.5298V22.4269C5.26472 19.9773 7.22687 18.0151 9.67648 18.0151H28.4265C31.4591 18.0151 33.9412 15.533 33.9412 12.5004V11.3974C33.9412 8.36483 31.4591 5.88274 28.4265 5.88274H15.1912Z" fill="#3DCD58" stroke="#3DCD58" stroke-width="0.00239216" stroke-miterlimit="4.1" stroke-linecap="round" stroke-linejoin="round"/>
<path fill-rule="evenodd" clip-rule="evenodd" d="M3.05887 1.47099C2.76636 1.47102 2.48583 1.58722 2.27899 1.79405C2.07216 2.00089 1.95596 2.28142 1.95593 2.57393V11.3975C1.95596 11.69 2.07216 11.9705 2.27899 12.1773C2.48583 12.3841 2.76636 12.5004 3.05887 12.5004H11.8824C12.1749 12.5004 12.4554 12.3841 12.6623 12.1773C12.8691 11.9705 12.9853 11.69 12.9853 11.3975V2.57393C12.9853 2.28142 12.8691 2.00089 12.6623 1.79405C12.4554 1.58722 12.1749 1.47102 11.8824 1.47099H3.05887ZM4.16181 3.67688H6.3677V5.88276C6.3677 6.17528 6.48392 6.4558 6.69076 6.66264C6.8976 6.86948 7.17812 6.9857 7.47064 6.9857C7.76316 6.9857 8.04368 6.86948 8.25052 6.66264C8.45736 6.4558 8.57358 6.17528 8.57358 5.88276V3.67688H10.7795V10.2945H4.16181V3.67688Z" fill="#3DCD58" stroke="#3DCD58" stroke-width="0.00239216" stroke-miterlimit="4.1" stroke-linecap="round" stroke-linejoin="round"/>
</svg>
