<svg width="37" height="36" viewBox="0 0 37 36" fill="none" xmlns="http://www.w3.org/2000/svg">
<path fill-rule="evenodd" clip-rule="evenodd" d="M2.375 3C2.375 2.37869 2.87869 1.875 3.5 1.875H33.5C34.1213 1.875 34.625 2.37869 34.625 3C34.625 3.62131 34.1213 4.125 33.5 4.125H31.625V15.8369C31.625 18.0612 31.625 19.8506 31.4255 21.2573C31.2179 22.7208 30.775 23.9337 29.7677 24.8886C28.7687 25.8355 27.5143 26.2444 25.9996 26.4375C24.5281 26.625 22.6508 26.625 20.294 26.625H19.625V30.8048L22.0031 31.9938C22.5588 32.2716 22.7842 32.9473 22.5062 33.5031C22.2284 34.0588 21.5527 34.2841 20.9969 34.0062L18.5 32.7577L16.0031 34.0062C15.4474 34.2841 14.7716 34.0588 14.4938 33.5031C14.2159 32.9473 14.4412 32.2716 14.9969 31.9938L17.375 30.8048V26.625H16.706C14.3493 26.625 12.472 26.625 11.0004 26.4375C9.48573 26.2444 8.23124 25.8355 7.23236 24.8886C6.22499 23.9337 5.78203 22.7208 5.57444 21.2573C5.37494 19.8506 5.37497 18.0612 5.375 15.8369V4.125H3.5C2.87869 4.125 2.375 3.62131 2.375 3ZM7.625 4.125V15.75C7.625 18.0816 7.62766 19.7111 7.80214 20.9412C7.97113 22.1327 8.28133 22.7828 8.78026 23.2557C9.28768 23.7366 9.99852 24.0415 11.2848 24.2055C12.5976 24.3729 14.3312 24.375 16.7856 24.375H20.2144C22.6688 24.375 24.4024 24.3729 25.7152 24.2055C27.0016 24.0415 27.7122 23.7366 28.2197 23.2557C28.7187 22.7828 29.029 22.1327 29.1979 20.9412C29.3723 19.7111 29.375 18.0816 29.375 15.75V4.125H7.625ZM23.7955 11.9545C24.2348 12.3938 24.2348 13.1062 23.7955 13.5455L21.8561 15.4848C21.8441 15.497 21.8318 15.5091 21.8197 15.5214C21.6022 15.739 21.3669 15.9744 21.1418 16.1463C20.8778 16.3476 20.5002 16.5644 20 16.5644C19.4998 16.5644 19.1222 16.3476 18.8582 16.1463C18.6331 15.9744 18.3978 15.739 18.1803 15.5214C18.1682 15.5091 18.1559 15.497 18.1439 15.4848L17.2652 14.6062C17.16 14.5011 17.0748 14.4159 17 14.3434C16.9252 14.4159 16.84 14.5011 16.7348 14.6062L14.7955 16.5455C14.3562 16.9848 13.6438 16.9848 13.2045 16.5455C12.7652 16.1061 12.7652 15.3939 13.2045 14.9545L15.1438 13.0152C15.156 13.003 15.1681 12.9909 15.1804 12.9786C15.3979 12.761 15.6331 12.5256 15.8582 12.3538C16.1222 12.1524 16.4998 11.9357 17 11.9357C17.5002 11.9357 17.8778 12.1524 18.1418 12.3538C18.3669 12.5256 18.6022 12.761 18.8197 12.9786C18.8318 12.9909 18.8441 13.003 18.8561 13.0152L19.7348 13.8938C19.84 13.9989 19.9252 14.0841 20 14.1566C20.0748 14.0841 20.16 13.9989 20.2652 13.8938L22.2045 11.9545C22.6439 11.5152 23.3561 11.5152 23.7955 11.9545Z" fill="#3DCD58"/>
</svg>
