<svg width="37" height="36" viewBox="0 0 37 36" fill="none" xmlns="http://www.w3.org/2000/svg">
<path fill-rule="evenodd" clip-rule="evenodd" d="M11.3942 4.88806C11.5748 3.19429 13.0083 1.875 14.75 1.875H22.25C23.9917 1.875 25.4252 3.19429 25.6058 4.88806C26.7506 4.91137 27.7403 4.97058 28.5854 5.12581C29.7224 5.33466 30.69 5.73252 31.4775 6.51991C32.3804 7.42279 32.7687 8.5596 32.9502 9.90976C33.125 11.2102 33.125 12.8637 33.125 14.9151V24.0796C33.125 26.131 33.125 27.7845 32.9502 29.085C32.7687 30.4351 32.3804 31.572 31.4775 32.4748C30.5745 33.3777 29.4378 33.766 28.0877 33.9475C26.7872 34.1224 25.1338 34.1224 23.0824 34.1224H13.9177C11.8663 34.1224 10.2128 34.1224 8.91238 33.9475C7.56221 33.766 6.42541 33.3777 5.52253 32.4748C4.61965 31.572 4.23131 30.4351 4.04978 29.085C3.87494 27.7845 3.87497 26.131 3.875 24.0796V14.9151C3.87497 12.8637 3.87494 11.2102 4.04978 9.90976C4.23131 8.5596 4.61965 7.42279 5.52253 6.51991C6.30992 5.73252 7.27753 5.33466 8.41453 5.12581C9.25966 4.97058 10.2494 4.91137 11.3942 4.88806ZM11.3971 7.13869C10.32 7.1617 9.48998 7.21591 8.82103 7.33879C7.97081 7.49496 7.47869 7.74573 7.11352 8.1109C6.69838 8.52604 6.4277 9.10891 6.27973 10.2096C6.12739 11.3426 6.125 12.8443 6.125 14.9974V23.9974C6.125 26.1505 6.12739 27.6522 6.27973 28.7851C6.4277 29.8858 6.69838 30.4687 7.11352 30.8839C7.52866 31.299 8.11152 31.5697 9.21218 31.7176C10.3452 31.87 11.8469 31.8724 14 31.8724H23C25.1531 31.8724 26.6548 31.87 27.7879 31.7176C28.8886 31.5697 29.4713 31.299 29.8865 30.8839C30.3017 30.4687 30.5723 29.8858 30.7203 28.7851C30.8726 27.6522 30.875 26.1505 30.875 23.9974V14.9974C30.875 12.8443 30.8726 11.3426 30.7203 10.2096C30.5723 9.10891 30.3017 8.52604 29.8865 8.1109C29.5212 7.74573 29.0292 7.49496 28.179 7.33879C27.51 7.21591 26.68 7.1617 25.6028 7.13869C25.4101 8.81958 23.9825 10.125 22.25 10.125H14.75C13.0175 10.125 11.5899 8.81958 11.3971 7.13869ZM14.75 4.125C14.1287 4.125 13.625 4.62868 13.625 5.25V6.75C13.625 7.37131 14.1287 7.875 14.75 7.875H22.25C22.8713 7.875 23.375 7.37131 23.375 6.75V5.25C23.375 4.62868 22.8713 4.125 22.25 4.125H14.75ZM23.8224 15.7324C24.2463 16.1866 24.2219 16.8985 23.7676 17.3224L17.339 23.3224C16.9069 23.7258 16.2361 23.7258 15.8038 23.3224L13.2324 20.9224C12.7782 20.4985 12.7536 19.7866 13.1776 19.3324C13.6015 18.8781 14.3134 18.8536 14.7676 19.2775L16.5715 20.9611L22.2325 15.6775C22.6867 15.2536 23.3985 15.2781 23.8224 15.7324Z" fill="#3DCD58"/>
</svg>
