<svg width="37" height="36" viewBox="0 0 37 36" fill="none" xmlns="http://www.w3.org/2000/svg">
<path fill-rule="evenodd" clip-rule="evenodd" d="M18.5 12.375C15.3934 12.375 12.875 14.8934 12.875 18C12.875 21.1066 15.3934 23.625 18.5 23.625C21.6066 23.625 24.125 21.1066 24.125 18C24.125 14.8934 21.6066 12.375 18.5 12.375ZM15.125 18C15.125 16.1361 16.6361 14.625 18.5 14.625C20.3639 14.625 21.875 16.1361 21.875 18C21.875 19.8639 20.3639 21.375 18.5 21.375C16.6361 21.375 15.125 19.8639 15.125 18Z" fill="#3DCD58"/>
<path fill-rule="evenodd" clip-rule="evenodd" d="M18.4621 1.875C17.7955 1.87499 17.2388 1.87499 16.7819 1.90616C16.3063 1.93862 15.857 2.00858 15.4214 2.189C14.4107 2.60766 13.6076 3.41069 13.189 4.42143C12.971 4.94763 12.912 5.50218 12.8895 6.10494C12.8713 6.58949 12.6268 6.99377 12.2659 7.20212C11.9051 7.41047 11.4327 7.4201 11.004 7.19352C10.4707 6.91166 9.96094 6.68549 9.39625 6.61115C8.3116 6.46835 7.21463 6.76229 6.34669 7.42829C5.97265 7.7153 5.68741 8.0694 5.42149 8.4651C5.16602 8.84522 4.88776 9.32723 4.55441 9.90461L4.51654 9.97022C4.18318 10.5476 3.9049 11.0296 3.70343 11.4408C3.49372 11.869 3.32966 12.2931 3.26812 12.7605C3.12532 13.8452 3.41926 14.9421 4.08524 15.8102C4.43192 16.2618 4.8826 16.5903 5.39326 16.9112C5.80393 17.1692 6.03182 17.5831 6.03179 18C6.03178 18.4167 5.80388 18.8307 5.39326 19.0887C4.88254 19.4095 4.43182 19.738 4.08511 20.1898C3.41911 21.0577 3.12518 22.1547 3.26797 23.2393C3.32951 23.7067 3.49357 24.1309 3.70328 24.559C3.90475 24.9703 4.18303 25.4523 4.51637 26.0296L4.55426 26.0954C4.88761 26.6727 5.16587 27.1547 5.42134 27.5348C5.68726 27.9305 5.9725 28.2846 6.34654 28.5716C7.21448 29.2376 8.31145 29.5316 9.3961 29.3888C9.96076 29.3144 10.4705 29.0883 11.0038 28.8064C11.4325 28.5798 11.9049 28.5894 12.2659 28.7979C12.6268 29.0063 12.8713 29.4105 12.8895 29.8951C12.912 30.4978 12.971 31.0524 13.189 31.5786C13.6076 32.5893 14.4107 33.3924 15.4214 33.8111C15.857 33.9915 16.3063 34.0614 16.7819 34.0938C17.2388 34.125 17.7955 34.125 18.4621 34.125H18.5378C19.2046 34.125 19.7611 34.125 20.2181 34.0938C20.6938 34.0614 21.143 33.9915 21.5786 33.8111C22.5893 33.3924 23.3924 32.5893 23.8111 31.5786C24.029 31.0524 24.088 30.4979 24.1105 29.895C24.1286 29.4105 24.3731 29.0062 24.734 28.7977C25.0949 28.5894 25.5674 28.5798 25.9961 28.8063C26.5294 29.0882 27.0391 29.3143 27.6038 29.3886C28.6885 29.5314 29.7854 29.2376 30.6533 28.5716C31.0274 28.2845 31.3126 27.9305 31.5785 27.5348C31.834 27.1547 32.1122 26.6727 32.4455 26.0954L32.4835 26.0296C32.8168 25.4523 33.0952 24.9702 33.2966 24.5589C33.5063 24.1308 33.6703 23.7067 33.7319 23.2393C33.8747 22.1545 33.5807 21.0576 32.9147 20.1897C32.5681 19.7379 32.1173 19.4095 31.6067 19.0887C31.196 18.8307 30.9682 18.4167 30.9682 17.9998C30.9682 17.5831 31.196 17.1693 31.6066 16.9113C32.1175 16.5905 32.5682 16.2621 32.9149 15.8102C33.5809 14.9422 33.8749 13.8453 33.7321 12.7606C33.6704 12.2932 33.5065 11.8691 33.2968 11.441C33.0953 11.0297 32.8171 10.5477 32.4836 9.97043L32.4458 9.90477C32.1124 9.32738 31.8341 8.84532 31.5787 8.46521C31.3127 8.06951 31.0276 7.7154 30.6535 7.42838C29.7856 6.76239 28.6886 6.46845 27.6038 6.61125C27.0392 6.68559 26.5295 6.91173 25.9963 7.19358C25.5676 7.42019 25.0951 7.41054 24.7342 7.20216C24.3733 6.9938 24.1286 6.58946 24.1105 6.10487C24.088 5.50212 24.029 4.9476 23.8111 4.42143C23.3924 3.41069 22.5893 2.60766 21.5786 2.189C21.143 2.00858 20.6938 1.93862 20.2181 1.90616C19.7611 1.87499 19.2046 1.87499 18.5378 1.875H18.4621ZM16.2824 4.26773C16.3982 4.21979 16.574 4.17558 16.9351 4.15094C17.3063 4.12562 17.7857 4.125 18.5 4.125C19.2143 4.125 19.6937 4.12562 20.0648 4.15094C20.426 4.17558 20.6018 4.21979 20.7175 4.26773C21.1769 4.45803 21.542 4.82304 21.7322 5.28248C21.7924 5.42739 21.842 5.65331 21.8621 6.18896C21.9065 7.37753 22.52 8.52194 23.6092 9.15072C24.6982 9.77952 25.9961 9.7386 27.0476 9.18282C27.5215 8.93235 27.7421 8.86248 27.8975 8.84201C28.3906 8.7771 28.8892 8.91071 29.2837 9.21342C29.3831 9.28968 29.5093 9.41984 29.7112 9.72024C29.9188 10.029 30.1589 10.4439 30.5161 11.0625C30.8732 11.6811 31.1125 12.0966 31.2761 12.4307C31.4353 12.7557 31.4849 12.9301 31.5013 13.0543C31.5662 13.5473 31.4326 14.046 31.1299 14.4405C31.0343 14.5649 30.8636 14.721 30.4096 15.0061C29.4026 15.639 28.7183 16.7424 28.7182 17.9998C28.7182 19.2574 29.4025 20.361 30.4096 20.9939C30.8635 21.279 31.0342 21.435 31.1297 21.5595C31.4324 21.954 31.5661 22.4526 31.5011 22.9457C31.4848 23.0699 31.4351 23.2442 31.276 23.5692C31.1123 23.9033 30.8731 24.3188 30.5159 24.9374C30.1588 25.556 29.9186 25.9709 29.711 26.2797C29.5091 26.58 29.383 26.7102 29.2835 26.7864C28.889 27.0892 28.3904 27.2228 27.8974 27.158C27.742 27.1374 27.5213 27.0675 27.0475 26.8171C25.996 26.2612 24.698 26.2204 23.6089 26.8492C22.52 27.478 21.9065 28.6224 21.8621 29.811C21.842 30.3467 21.7924 30.5725 21.7322 30.7176C21.542 31.1769 21.1769 31.542 20.7175 31.7323C20.6018 31.7802 20.426 31.8245 20.0648 31.8491C19.6937 31.8744 19.2143 31.875 18.5 31.875C17.7857 31.875 17.3063 31.8744 16.9351 31.8491C16.574 31.8245 16.3982 31.7802 16.2824 31.7323C15.8231 31.542 15.458 31.1769 15.2677 30.7176C15.2077 30.5725 15.1579 30.3467 15.1379 29.811C15.0934 28.6226 14.48 27.478 13.3909 26.8492C12.3018 26.2204 11.0039 26.2614 9.95237 26.8171C9.47848 27.0676 9.25795 27.1376 9.10243 27.158C8.60939 27.2229 8.11078 27.0893 7.71626 26.7866C7.61687 26.7104 7.49068 26.5802 7.28879 26.2797C7.08127 25.971 6.84104 25.5561 6.48389 24.9375C6.12673 24.3189 5.88757 23.9034 5.7239 23.5694C5.56469 23.2443 5.51507 23.0699 5.49872 22.9457C5.43382 22.4526 5.56742 21.954 5.87015 21.5595C5.96564 21.4352 6.13642 21.279 6.5903 20.9939C7.59737 20.3612 8.28173 19.2576 8.28179 18.0002C8.28187 16.7424 7.59748 15.6388 6.59032 15.006C6.13654 14.7208 5.96578 14.5648 5.87029 14.4404C5.56757 14.0459 5.43397 13.5472 5.49887 13.0542C5.51522 12.93 5.56484 12.7556 5.72405 12.4306C5.88772 12.0965 6.12688 11.681 6.48403 11.0624C6.84119 10.4438 7.0814 10.0289 7.28894 9.72014C7.49083 9.41975 7.61702 9.28958 7.7164 9.21333C8.11093 8.9106 8.60954 8.777 9.10256 8.8419C9.2581 8.86238 9.47864 8.93225 9.9526 9.18276C11.0041 9.73853 12.3019 9.77943 13.3909 9.15068C14.48 8.52192 15.0934 7.37756 15.1379 6.18903C15.1579 5.65334 15.2077 5.42741 15.2677 5.28248C15.458 4.82304 15.8231 4.45803 16.2824 4.26773Z" fill="#3DCD58"/>
</svg>
