<svg width="220" height="178" viewBox="0 0 220 178" fill="none" xmlns="http://www.w3.org/2000/svg">
<circle cx="110" cy="88" r="80" fill="#EAECF0"/>
<circle cx="26" cy="28" r="8" fill="#F2F4F7"/>
<circle cx="198" cy="134" r="6" fill="#F2F4F7"/>
<circle cx="25" cy="146" r="10" fill="#F2F4F7"/>
<circle cx="210" cy="54" r="10" fill="#F2F4F7"/>
<circle cx="191" cy="19" r="7" fill="#F2F4F7"/>
<g filter="url(#filter0_dd_534_56288)">
<path d="M110 54.9529L116.912 52.0578L110.001 55.002V137.432L173.69 110.743V28.2767L174 28.1466L173.69 28.009V27.8705L173.53 27.9384L110.503 0L46 27.4765L46.3053 27.6076L46 109.74L110 137.383L110 54.9529Z" fill="#F9FAFB"/>
<path d="M110 54.953V137.383L46 109.739L46.3053 27.6075L110 54.953Z" fill="url(#paint0_linear_534_56288)"/>
<path d="M110.001 55.002V137.432L173.69 110.743V27.8705L110.001 55.002Z" fill="url(#paint1_linear_534_56288)"/>
<path d="M110 54.9529L174 28.1466L110.503 0L46 27.4765L110 54.9529Z" fill="#F2F4F7"/>
<path d="M70.1256 17.1998L133.882 44.9503L134.461 65.173L152.299 57.8126L151.759 37.4622L86.1173 10.3877L70.1256 17.1998Z" fill="#EAECF0"/>
</g>
<g filter="url(#filter1_b_534_56288)">
<g filter="url(#filter2_b_534_56288)">
<rect x="82" y="104" width="56" height="56" rx="28" fill="#475467" fill-opacity="0.24"/>
<path d="M120.5 142.5L115.425 137.425M108.833 125C112.055 125 114.667 127.612 114.667 130.833M118.167 130.833C118.167 135.988 113.988 140.167 108.833 140.167C103.679 140.167 99.5 135.988 99.5 130.833C99.5 125.679 103.679 121.5 108.833 121.5C113.988 121.5 118.167 125.679 118.167 130.833Z" stroke="white" stroke-width="2" stroke-linecap="round" stroke-linejoin="round"/>
<rect x="82.5" y="104.5" width="55" height="55" rx="27.5" stroke="#EAECF0"/>
</g>
</g>
<defs>
<filter id="filter0_dd_534_56288" x="26" y="0" width="168" height="177.432" filterUnits="userSpaceOnUse" color-interpolation-filters="sRGB">
<feFlood flood-opacity="0" result="BackgroundImageFix"/>
<feColorMatrix in="SourceAlpha" type="matrix" values="0 0 0 0 0 0 0 0 0 0 0 0 0 0 0 0 0 0 127 0" result="hardAlpha"/>
<feMorphology radius="4" operator="erode" in="SourceAlpha" result="effect1_dropShadow_534_56288"/>
<feOffset dy="8"/>
<feGaussianBlur stdDeviation="4"/>
<feColorMatrix type="matrix" values="0 0 0 0 0.0627451 0 0 0 0 0.0941176 0 0 0 0 0.156863 0 0 0 0.03 0"/>
<feBlend mode="normal" in2="BackgroundImageFix" result="effect1_dropShadow_534_56288"/>
<feColorMatrix in="SourceAlpha" type="matrix" values="0 0 0 0 0 0 0 0 0 0 0 0 0 0 0 0 0 0 127 0" result="hardAlpha"/>
<feMorphology radius="4" operator="erode" in="SourceAlpha" result="effect2_dropShadow_534_56288"/>
<feOffset dy="20"/>
<feGaussianBlur stdDeviation="12"/>
<feColorMatrix type="matrix" values="0 0 0 0 0.0627451 0 0 0 0 0.0941176 0 0 0 0 0.156863 0 0 0 0.08 0"/>
<feBlend mode="normal" in2="effect1_dropShadow_534_56288" result="effect2_dropShadow_534_56288"/>
<feBlend mode="normal" in="SourceGraphic" in2="effect2_dropShadow_534_56288" result="shape"/>
</filter>
<filter id="filter1_b_534_56288" x="74" y="96" width="72" height="72" filterUnits="userSpaceOnUse" color-interpolation-filters="sRGB">
<feFlood flood-opacity="0" result="BackgroundImageFix"/>
<feGaussianBlur in="BackgroundImageFix" stdDeviation="4"/>
<feComposite in2="SourceAlpha" operator="in" result="effect1_backgroundBlur_534_56288"/>
<feBlend mode="normal" in="SourceGraphic" in2="effect1_backgroundBlur_534_56288" result="shape"/>
</filter>
<filter id="filter2_b_534_56288" x="66" y="88" width="88" height="88" filterUnits="userSpaceOnUse" color-interpolation-filters="sRGB">
<feFlood flood-opacity="0" result="BackgroundImageFix"/>
<feGaussianBlur in="BackgroundImageFix" stdDeviation="8"/>
<feComposite in2="SourceAlpha" operator="in" result="effect1_backgroundBlur_534_56288"/>
<feBlend mode="normal" in="SourceGraphic" in2="effect1_backgroundBlur_534_56288" result="shape"/>
</filter>
<linearGradient id="paint0_linear_534_56288" x1="46" y1="110.154" x2="71.2754" y2="41.7013" gradientUnits="userSpaceOnUse">
<stop stop-color="#DEE1E8"/>
<stop offset="1" stop-color="#EFF1F5"/>
</linearGradient>
<linearGradient id="paint1_linear_534_56288" x1="110" y1="56.6154" x2="182.166" y2="70.983" gradientUnits="userSpaceOnUse">
<stop stop-color="#E4E7EC"/>
<stop offset="1" stop-color="#F2F4F7"/>
</linearGradient>
</defs>
</svg>
