<svg width="70" height="70" viewBox="0 0 70 70" fill="none" xmlns="http://www.w3.org/2000/svg">
<path d="M34.5 68C16.5789 68 2 53.4203 2 35.5C2 17.5797 16.5797 3 34.5 3C52.4203 3 67 17.5797 67 35.5C67 53.4203 52.4211 68 34.5 68ZM34.5 5.55177C17.9871 5.55177 4.55262 18.9862 4.55262 35.4992C4.55262 52.0121 17.9871 65.4465 34.5 65.4465C51.0129 65.4465 64.4474 52.0121 64.4474 35.4992C64.4474 18.9862 51.0129 5.55177 34.5 5.55177Z" fill="white"/>
<path d="M50.0956 36.7724H16.8383C16.1329 36.7724 15.562 36.2014 15.562 35.496C15.562 34.7907 16.1329 34.2197 16.8383 34.2197H50.0956C50.801 34.2197 51.3719 34.7907 51.3719 35.496C51.3719 36.2014 50.801 36.7724 50.0956 36.7724Z" fill="white"/>
<path d="M40.6732 46.7251C40.2963 46.7251 39.9236 46.5592 39.6718 46.2409C39.2344 45.6879 39.328 44.8855 39.8811 44.4481L43.8513 41.3084L50.2286 35.6169L39.6947 26.5168C39.1612 26.0556 39.1025 25.2499 39.5628 24.7164C40.024 24.1829 40.8315 24.125 41.3633 24.5845L52.9956 34.6342C53.2738 34.8741 53.4347 35.2221 53.4381 35.5905C53.4406 35.9581 53.2858 36.3087 53.0118 36.5529L45.4917 43.2612L41.4646 46.4502C41.2297 46.6357 40.9498 46.7251 40.6732 46.7251Z" fill="white"/>
</svg>
