<svg width="110" height="110" viewBox="0 0 110 110" fill="none" xmlns="http://www.w3.org/2000/svg">
<path fill-rule="evenodd" clip-rule="evenodd" d="M92.9216 94.7075C92.9216 98.1919 90.0857 101.032 86.6013 101.032H23.3203C19.8437 101.032 17 98.1958 17 94.7075V27.8094C17 24.325 19.8438 21.4892 23.3203 21.4892H34.5863C34.5863 18.0438 37.391 15.243 40.8363 15.243H45.1918C48.1176 8.94615 56.2038 6.96575 61.6998 11.3758C62.981 12.407 64.0201 13.7313 64.7271 15.243H69.0904C72.5318 15.243 75.3326 18.0438 75.3326 21.4892H86.5986C90.083 21.4892 92.9189 24.325 92.9189 27.8094V94.7075H92.9216ZM53.0346 87.2543H80.2576C81.8943 87.2543 83.2224 85.9262 83.2224 84.2855C83.2224 82.6448 81.8943 81.3167 80.2576 81.3167H53.0346C51.3979 81.3167 50.0698 82.6448 50.0698 84.2855C50.0698 85.9262 51.3979 87.2543 53.0346 87.2543ZM42.8936 67.2193L41.0303 65.3521L42.8936 63.4849C44.0498 62.3247 44.0498 60.4459 42.8936 59.2896C41.7374 58.1294 39.8584 58.1294 38.6944 59.2896L36.8311 61.1568L34.9678 59.2896C33.8037 58.1294 31.9248 58.1294 30.7686 59.2896C29.6124 60.4498 29.6124 62.3287 30.7686 63.4849L32.6319 65.3521L30.7686 67.2193C29.6124 68.3795 29.6124 70.2584 30.7686 71.4185C31.9248 72.5786 33.8038 72.5787 34.9678 71.4185L36.8311 69.5513L38.6944 71.4185C39.8585 72.5787 41.7374 72.5787 42.8936 71.4185C44.0498 70.2583 44.0498 68.3794 42.8936 67.2193ZM29.0816 86.2663L33.1675 90.3522C34.3237 91.5124 36.2027 91.5124 37.3589 90.3522L44.5894 83.1295C45.7456 81.9693 45.7456 80.0905 44.5894 78.9304C43.4253 77.7702 41.5464 77.7702 40.3902 78.9304L35.2652 84.0554L33.2769 82.067C32.1207 80.9068 30.2417 80.9068 29.0855 82.067C27.9214 83.2272 27.9214 85.1062 29.0855 86.2663L29.0816 86.2663ZM53.0346 67.9693H80.2576C81.8943 67.9693 83.2224 66.6412 83.2224 65.0005C83.2224 63.3598 81.8943 62.0317 80.2576 62.0317H53.0346C51.3979 62.0317 50.0698 63.3598 50.0698 65.0005C50.0698 66.6412 51.3979 67.9693 53.0346 67.9693ZM29.0816 46.8053L33.1675 50.8913C34.3237 52.0515 36.2027 52.0515 37.3589 50.8913L44.5894 43.6685C45.7456 42.5083 45.7456 40.6294 44.5894 39.4693C43.4253 38.3091 41.5464 38.3091 40.3902 39.4693L35.2652 44.5943L33.2769 42.606C32.1207 41.4458 30.2417 41.4458 29.0855 42.606C27.9214 43.7662 27.9214 45.6451 29.0855 46.8052L29.0816 46.8053ZM53.0346 48.1492H80.2576C81.8943 48.1492 83.2224 46.821 83.2224 45.1803C83.2224 43.5397 81.8943 42.2115 80.2576 42.2115H53.0346C51.3979 42.2115 50.0698 43.5396 50.0698 45.1803C50.0698 46.8209 51.3979 48.1492 53.0346 48.1492ZM51.7377 15.7431C50.8705 16.4463 50.2221 17.4267 49.9525 18.5478C49.7181 19.8603 48.5697 20.8603 47.1869 20.8603H40.8353C40.4955 20.8603 40.2064 21.1455 40.2064 21.4854V27.1064C40.2064 27.458 40.4798 27.7314 40.8353 27.7314H69.0893C69.437 27.7314 69.7104 27.4697 69.7104 27.1064V21.4854C69.7104 21.1455 69.4331 20.8603 69.0893 20.8603L62.7299 20.8564C61.433 20.8564 60.269 19.958 59.9877 18.6416C59.1713 14.9268 54.683 13.3682 51.7338 15.7432L51.7377 15.7431ZM23.3197 27.1061C22.9408 27.1061 22.6205 27.4226 22.6205 27.8093V94.7073C22.6205 95.0901 22.9369 95.4104 23.3197 95.4104H86.6007C86.9796 95.4104 87.2999 95.0901 87.2999 94.7073V27.8093C87.2999 27.4265 86.9796 27.1061 86.6007 27.1061H75.3347C75.3347 30.5397 72.5378 33.3483 69.0925 33.3483H40.8385C37.3854 33.3483 34.5885 30.5436 34.5885 27.1061H23.3197Z" fill="#3DCD58"/>
</svg>
