<svg width="24" height="25" viewBox="0 0 24 25" fill="none" xmlns="http://www.w3.org/2000/svg">
<path d="M19 3.72004H6.75C6.10713 3.70117 5.483 3.93793 5.01439 4.37843C4.54577 4.81893 4.2709 5.42723 4.25 6.07004V18.47C4.27609 19.2243 4.60027 19.9374 5.15142 20.4529C5.70258 20.9684 6.43571 21.2443 7.19 21.22H19C19.1981 21.2175 19.3874 21.1376 19.5275 20.9975C19.6676 20.8574 19.7474 20.6681 19.75 20.47V4.47004C19.7474 4.27193 19.6676 4.08267 19.5275 3.94258C19.3874 3.80248 19.1981 3.72263 19 3.72004ZM18.25 19.72H7.19C6.83339 19.7448 6.48151 19.6271 6.21156 19.3928C5.94161 19.1584 5.77562 18.8266 5.75 18.47C5.77562 18.1135 5.94161 17.7817 6.21156 17.5473C6.48151 17.313 6.83339 17.1953 7.19 17.22H18.25V19.72ZM18.25 15.72H7.19C6.68656 15.7206 6.19135 15.8478 5.75 16.09V6.07004C5.7729 5.82593 5.89028 5.60042 6.0771 5.44163C6.26392 5.28283 6.50538 5.20332 6.75 5.22004H18.25V15.72Z" fill="white"/>
<path d="M8.75 9.21997H15.25C15.4489 9.21997 15.6397 9.14095 15.7803 9.0003C15.921 8.85965 16 8.66888 16 8.46997C16 8.27106 15.921 8.08029 15.7803 7.93964C15.6397 7.79899 15.4489 7.71997 15.25 7.71997H8.75C8.55109 7.71997 8.36032 7.79899 8.21967 7.93964C8.07902 8.08029 8 8.27106 8 8.46997C8 8.66888 8.07902 8.85965 8.21967 9.0003C8.36032 9.14095 8.55109 9.21997 8.75 9.21997Z" fill="white"/>
<path d="M8.75 12.72H15.25C15.4489 12.72 15.6397 12.641 15.7803 12.5003C15.921 12.3596 16 12.1689 16 11.97C16 11.7711 15.921 11.5803 15.7803 11.4396C15.6397 11.299 15.4489 11.22 15.25 11.22H8.75C8.55109 11.22 8.36032 11.299 8.21967 11.4396C8.07902 11.5803 8 11.7711 8 11.97C8 12.1689 8.07902 12.3596 8.21967 12.5003C8.36032 12.641 8.55109 12.72 8.75 12.72Z" fill="white"/>
</svg>
