<svg width="32" height="32" viewBox="0 0 32 32" fill="none" xmlns="http://www.w3.org/2000/svg">
<path d="M25.9818 2.90906H5.98177C5.70904 2.90906 5.52722 3.09088 5.52722 3.3636V28.8181C5.52722 29.0909 5.70904 29.2727 5.98177 29.2727H25.9818C26.2545 29.2727 26.4363 29.0909 26.4363 28.8181V3.3636C26.4363 3.09088 26.2545 2.90906 25.9818 2.90906ZM25.5272 28.3636H6.43631V3.81815H25.5272V28.3636Z" fill="#42B4E6"/>
<path d="M8.6637 17.9998L10.4819 18.2725L10.7546 20.2271C10.8001 20.4089 10.891 20.5453 11.0728 20.5907H11.2092C11.3455 20.5907 11.4364 20.5453 11.5274 20.4544L14.9365 16.8634C15.2547 16.9088 15.6184 16.9543 15.982 16.9543C16.3456 16.9543 16.6638 16.9088 17.0275 16.8634L20.4366 20.4544C20.5275 20.5453 20.6639 20.5907 20.7548 20.5907H20.8912C21.073 20.5453 21.1639 20.4089 21.2094 20.2271L21.4821 18.2725L23.3003 17.9998C23.4821 17.9543 23.6185 17.8634 23.6639 17.6816C23.7094 17.4998 23.6639 17.3634 23.573 17.2271L20.8458 14.3634C21.4821 13.4089 21.8458 12.2725 21.8458 11.0453C21.8458 7.77257 19.2094 5.13635 15.9368 5.13635C12.6642 5.13635 10.0279 7.77272 10.0279 11.0453C10.0279 12.2726 10.3915 13.4089 11.0279 14.3634L8.30059 17.2271C8.16423 17.3634 8.16423 17.5453 8.20968 17.6816C8.34604 17.8634 8.48241 17.9998 8.66423 17.9998H8.6637ZM15.9818 6.09056C18.7545 6.09056 20.982 8.31782 20.982 11.0907C20.982 13.8636 18.7547 16.0909 15.9818 16.0909C13.2089 16.0909 10.9817 13.8636 10.9817 11.0907C10.9817 8.31782 13.2089 6.09056 15.9818 6.09056Z" fill="#42B4E6"/>
<path d="M14.3908 11.5909L13.8454 13.2727C13.7999 13.4545 13.8454 13.6817 14.0272 13.7727C14.209 13.8636 14.3908 13.909 14.5726 13.7727L16.0272 12.7272L17.4817 13.7727C17.5726 13.8181 17.6635 13.8636 17.7544 13.8636C17.8454 13.8636 17.9363 13.8181 18.0272 13.7727C18.209 13.6363 18.2544 13.4545 18.209 13.2727L17.6635 11.5909L19.1181 10.5454C19.2999 10.409 19.3454 10.2272 19.2999 10.0454C19.2544 9.86355 19.0726 9.72717 18.8454 9.72717H17.0726L16.4362 8.04537C16.3908 7.86355 16.209 7.72717 15.9817 7.72717C15.7544 7.72717 15.6181 7.86354 15.5272 8.04537L14.9817 9.72717H13.209C13.0271 9.72717 12.8453 9.86354 12.7544 10.0454C12.6635 10.2272 12.7544 10.4544 12.9362 10.5454L14.3908 11.5909Z" fill="#42B4E6"/>
<path d="M12.3454 21.9999C12.0727 21.9999 11.8909 22.1817 11.8909 22.4544C11.8909 22.7272 12.0727 22.909 12.3454 22.909H19.6181C19.8909 22.909 20.0727 22.7272 20.0727 22.4544C20.0727 22.1817 19.8909 21.9999 19.6181 21.9999H12.3454Z" fill="#42B4E6"/>
<path d="M8.70906 25.1818H23.2545C23.5272 25.1818 23.7091 25 23.7091 24.7273C23.7091 24.4545 23.5272 24.2727 23.2545 24.2727H8.70906C8.43633 24.2727 8.25452 24.4545 8.25452 24.7273C8.25452 25 8.43633 25.1818 8.70906 25.1818Z" fill="#42B4E6"/>
<path d="M22.3454 26.0908H9.61812C9.34539 26.0908 9.16357 26.2726 9.16357 26.5454C9.16357 26.8181 9.34539 26.9999 9.61812 26.9999H22.3454C22.6181 26.9999 22.7999 26.8181 22.7999 26.5454C22.7999 26.2726 22.6181 26.0908 22.3454 26.0908Z" fill="#42B4E6"/>
</svg>
