<svg width="18" height="18" viewBox="0 0 18 18" fill="none" xmlns="http://www.w3.org/2000/svg">
<path fill-rule="evenodd" clip-rule="evenodd" d="M9.00406 1.12964C13.3531 1.12964 16.8801 4.65662 16.8801 9.00565C16.8801 13.3547 13.3531 16.8817 9.00406 16.8817C4.65503 16.8817 1.12805 13.3547 1.12805 9.00565C1.12805 4.65662 4.65503 1.12964 9.00406 1.12964ZM7.36852 11.5639L5.44028 9.63402C5.11177 9.30532 5.11171 8.76931 5.44028 8.44067C5.76891 8.1121 6.30732 8.11416 6.63357 8.44067L7.99297 9.80113L11.3747 6.41941C11.7033 6.09077 12.2394 6.09077 12.568 6.41941C12.8966 6.74798 12.8962 7.28452 12.568 7.61269L8.58865 11.592C8.26048 11.9202 7.72393 11.9207 7.39536 11.592C7.38612 11.5828 7.37722 11.5734 7.36852 11.5639Z" fill="white"/>
</svg>
