<svg width="17" height="16" viewBox="0 0 17 16" fill="none" xmlns="http://www.w3.org/2000/svg">
<path fill-rule="evenodd" clip-rule="evenodd" d="M14.3542 2.72418C14.1344 2.79586 13.9366 2.91776 13.7608 3.08988L10.4204 6.3602L8.6623 8.08141L5.7471 10.9354L2.91098 8.15043C2.54514 7.79119 1.9591 7.79075 1.59272 8.14944C1.21559 8.51865 1.21559 9.1257 1.59272 9.49492L5.26486 13.09C5.59881 13.4169 6.11721 13.4449 6.48274 13.1706C6.61617 13.0908 6.73577 12.9813 6.86107 12.8586L10.2015 9.58829L11.9596 7.86707L15.3 4.59676C15.5344 4.36726 15.6662 4.0947 15.6954 3.77907C15.7247 3.46343 15.6171 3.18602 15.3728 2.94684C15.2751 2.85116 15.1358 2.77221 14.9551 2.70999C14.7743 2.64777 14.574 2.6525 14.3542 2.72418Z" fill="#009530"/>
<mask id="mask0_485_1349" style="mask-type:luminance" maskUnits="userSpaceOnUse" x="1" y="2" width="15" height="12">
<path fill-rule="evenodd" clip-rule="evenodd" d="M14.3542 2.72418C14.1344 2.79586 13.9366 2.91776 13.7608 3.08988L10.4204 6.3602L8.6623 8.08141L5.7471 10.9354L2.91098 8.15043C2.54514 7.79119 1.9591 7.79075 1.59272 8.14944C1.21559 8.51865 1.21559 9.1257 1.59272 9.49492L5.26486 13.09C5.59881 13.4169 6.11721 13.4449 6.48274 13.1706C6.61617 13.0908 6.73577 12.9813 6.86107 12.8586L10.2015 9.58829L11.9596 7.86707L15.3 4.59676C15.5344 4.36726 15.6662 4.0947 15.6954 3.77907C15.7247 3.46343 15.6171 3.18602 15.3728 2.94684C15.2751 2.85116 15.1358 2.77221 14.9551 2.70999C14.7743 2.64777 14.574 2.6525 14.3542 2.72418Z" fill="white"/>
</mask>
<g mask="url(#mask0_485_1349)">
</g>
</svg>
