<svg width="18" height="18" viewBox="0 0 18 18" fill="none" xmlns="http://www.w3.org/2000/svg">
<rect x="0.5" y="0.5" width="17" height="17" rx="8.5" fill="white"/>
<rect x="0.5" y="0.5" width="17" height="17" rx="8.5" stroke="#FFE4E4"/>
<path d="M11.9693 5.46447C12.1362 5.29755 12.4245 5.28238 12.6066 5.46447C12.7887 5.64655 12.7735 5.93486 12.6066 6.10177L9.70837 9L12.5914 11.8831C12.7735 12.0651 12.7887 12.3534 12.6066 12.5355C12.4245 12.7176 12.1362 12.7024 11.9541 12.5204L9.07107 9.63731L6.17284 12.5355C6.00593 12.7024 5.71762 12.7176 5.53553 12.5355C5.35345 12.3534 5.36862 12.0651 5.53553 11.8982L8.43376 9L5.55071 6.11695C5.36862 5.93486 5.35345 5.64655 5.53553 5.46447C5.71762 5.28238 6.00593 5.29755 6.18801 5.47964L9.07107 8.36269L11.9693 5.46447Z" fill="#FF2D55" stroke="#FF2D55" stroke-width="0.5"/>
</svg>
