<svg width="53" height="11" viewBox="0 0 53 11" fill="none" xmlns="http://www.w3.org/2000/svg">
<path d="M4.9561 10.132C4.0441 10.132 3.2641 9.95199 2.6161 9.59199C1.9681 9.23199 1.4681 8.72799 1.1161 8.07999C0.772098 7.42399 0.600098 6.65199 0.600098 5.76399C0.600098 5.09999 0.696098 4.50399 0.888098 3.97599C1.0881 3.43999 1.3761 2.98399 1.7521 2.60799C2.1281 2.22399 2.5841 1.92799 3.1201 1.71999C3.6641 1.51199 4.2761 1.40799 4.9561 1.40799C5.3561 1.40799 5.7601 1.45999 6.1681 1.56399C6.5841 1.65999 6.9441 1.79999 7.2481 1.98399C7.4481 2.09599 7.5841 2.23599 7.6561 2.40399C7.7281 2.57199 7.7481 2.73999 7.7161 2.90799C7.6921 3.07599 7.6241 3.21999 7.5121 3.33999C7.4081 3.45999 7.2761 3.53599 7.1161 3.56799C6.9561 3.59999 6.7761 3.56399 6.5761 3.45999C6.3361 3.31599 6.0841 3.21199 5.8201 3.14799C5.5561 3.08399 5.2881 3.05199 5.0161 3.05199C4.4801 3.05199 4.0281 3.15999 3.6601 3.37599C3.3001 3.58399 3.0281 3.88799 2.8441 4.28799C2.6601 4.68799 2.5681 5.17999 2.5681 5.76399C2.5681 6.33999 2.6601 6.83199 2.8441 7.23999C3.0281 7.64799 3.3001 7.95999 3.6601 8.17599C4.0281 8.38399 4.4801 8.48799 5.0161 8.48799C5.2721 8.48799 5.5321 8.45599 5.7961 8.39199C6.0681 8.32799 6.3281 8.22799 6.5761 8.09199C6.7841 7.98799 6.9681 7.95199 7.1281 7.98399C7.2961 8.00799 7.4321 8.07999 7.5361 8.19999C7.6481 8.31199 7.7161 8.44799 7.7401 8.60799C7.7721 8.76799 7.7561 8.92799 7.6921 9.08799C7.6281 9.24799 7.5081 9.38399 7.3321 9.49599C7.0361 9.69599 6.6721 9.85199 6.2401 9.96399C5.8081 10.076 5.3801 10.132 4.9561 10.132ZM11.3093 10.132C10.6774 10.132 10.1254 10.008 9.65335 9.75999C9.18935 9.51199 8.82935 9.15599 8.57335 8.69199C8.31735 8.22799 8.18935 7.67999 8.18935 7.04799C8.18935 6.57599 8.26135 6.15199 8.40535 5.77599C8.54935 5.39999 8.75735 5.07999 9.02935 4.81599C9.30935 4.54399 9.64135 4.33999 10.0254 4.20399C10.4094 4.05999 10.8374 3.98799 11.3093 3.98799C11.9414 3.98799 12.4894 4.11199 12.9534 4.35999C13.4254 4.60799 13.7894 4.95999 14.0454 5.41599C14.3094 5.87199 14.4414 6.41599 14.4414 7.04799C14.4414 7.52799 14.3654 7.95599 14.2134 8.33199C14.0694 8.70799 13.8614 9.03199 13.5894 9.30399C13.3174 9.57599 12.9854 9.78399 12.5934 9.92799C12.2094 10.064 11.7814 10.132 11.3093 10.132ZM11.3093 8.77599C11.5734 8.77599 11.8014 8.71199 11.9934 8.58399C12.1854 8.45599 12.3374 8.26799 12.4494 8.01999C12.5614 7.76399 12.6174 7.43999 12.6174 7.04799C12.6174 6.46399 12.4974 6.03599 12.2574 5.76399C12.0174 5.48399 11.7014 5.34399 11.3093 5.34399C11.0534 5.34399 10.8254 5.40399 10.6254 5.52399C10.4334 5.64399 10.2814 5.83199 10.1694 6.08799C10.0654 6.33599 10.0134 6.65599 10.0134 7.04799C10.0134 7.63199 10.1334 8.06799 10.3734 8.35599C10.6134 8.63599 10.9254 8.77599 11.3093 8.77599ZM16.5638 10.108C16.2918 10.108 16.0838 10.032 15.9398 9.87999C15.7958 9.72799 15.7238 9.51599 15.7238 9.24399V2.29599C15.7238 2.02399 15.7998 1.81199 15.9518 1.65999C16.1118 1.50799 16.3278 1.43199 16.5998 1.43199C16.8398 1.43199 17.0278 1.47999 17.1638 1.57599C17.3078 1.66399 17.4398 1.81999 17.5598 2.04399L20.3318 7.10799H19.9238L22.6958 2.04399C22.8158 1.81999 22.9438 1.66399 23.0798 1.57599C23.2238 1.47999 23.4118 1.43199 23.6438 1.43199C23.9158 1.43199 24.1238 1.50799 24.2678 1.65999C24.4198 1.81199 24.4958 2.02399 24.4958 2.29599V9.24399C24.4958 9.51599 24.4238 9.72799 24.2798 9.87999C24.1358 10.032 23.9278 10.108 23.6558 10.108C23.3838 10.108 23.1718 10.032 23.0198 9.87999C22.8758 9.72799 22.8038 9.51599 22.8038 9.24399V4.38399H23.0678L20.8358 8.37999C20.7398 8.53199 20.6358 8.64799 20.5238 8.72799C20.4198 8.79999 20.2798 8.83599 20.1038 8.83599C19.9278 8.83599 19.7838 8.79599 19.6718 8.71599C19.5598 8.63599 19.4598 8.52399 19.3718 8.37999L17.1158 4.37199H17.4038V9.24399C17.4038 9.51599 17.3318 9.72799 17.1878 9.87999C17.0518 10.032 16.8438 10.108 16.5638 10.108ZM27.1835 9.99999C26.8715 9.99999 26.6315 9.91599 26.4635 9.74799C26.2955 9.57999 26.2115 9.33999 26.2115 9.02799V2.51199C26.2115 2.19999 26.2955 1.95999 26.4635 1.79199C26.6315 1.62399 26.8715 1.53999 27.1835 1.53999H31.3715C31.6115 1.53999 31.7915 1.60399 31.9115 1.73199C32.0395 1.85199 32.1035 2.02799 32.1035 2.25999C32.1035 2.49999 32.0395 2.68399 31.9115 2.81199C31.7915 2.93199 31.6115 2.99199 31.3715 2.99199H27.9875V4.97199H31.0955C31.3435 4.97199 31.5275 5.03599 31.6475 5.16399C31.7755 5.28399 31.8395 5.46399 31.8395 5.70399C31.8395 5.94399 31.7755 6.12799 31.6475 6.25599C31.5275 6.37599 31.3435 6.43599 31.0955 6.43599H27.9875V8.54799H31.3715C31.6115 8.54799 31.7915 8.61199 31.9115 8.73999C32.0395 8.85999 32.1035 9.03599 32.1035 9.26799C32.1035 9.50799 32.0395 9.69199 31.9115 9.81999C31.7915 9.93999 31.6115 9.99999 31.3715 9.99999H27.1835ZM36.4291 10.108C36.1251 10.108 35.8931 10.024 35.7331 9.85599C35.5731 9.68799 35.4931 9.45199 35.4931 9.14799V3.07599H33.3691C33.1211 3.07599 32.9291 3.00799 32.7931 2.87199C32.6571 2.73599 32.5891 2.54799 32.5891 2.30799C32.5891 2.05999 32.6571 1.87199 32.7931 1.74399C32.9291 1.60799 33.1211 1.53999 33.3691 1.53999H39.4771C39.7251 1.53999 39.9171 1.60799 40.0531 1.74399C40.1891 1.87199 40.2571 2.05999 40.2571 2.30799C40.2571 2.54799 40.1891 2.73599 40.0531 2.87199C39.9171 3.00799 39.7251 3.07599 39.4771 3.07599H37.3531V9.14799C37.3531 9.45199 37.2731 9.68799 37.1131 9.85599C36.9611 10.024 36.7331 10.108 36.4291 10.108Z" fill="#3DCD58"/>
<path d="M42.92 6C42.7556 6 42.6333 5.96222 42.5533 5.88667C42.4778 5.80667 42.44 5.69111 42.44 5.54C42.44 5.44222 42.4644 5.35111 42.5133 5.26667C42.5622 5.18222 42.6289 5.09556 42.7133 5.00667L43.9667 3.68667C44.1533 3.48667 44.2867 3.30889 44.3667 3.15333C44.4511 2.99778 44.4933 2.84222 44.4933 2.68667C44.4933 2.49111 44.4289 2.34222 44.3 2.24C44.1756 2.13778 43.9933 2.08667 43.7533 2.08667C43.6244 2.08667 43.4911 2.10667 43.3533 2.14667C43.22 2.18222 43.08 2.24222 42.9333 2.32667C42.8356 2.38 42.7444 2.4 42.66 2.38667C42.58 2.36889 42.5111 2.33111 42.4533 2.27333C42.3956 2.21111 42.3578 2.13778 42.34 2.05333C42.3222 1.96889 42.3311 1.88444 42.3667 1.8C42.4022 1.71556 42.4689 1.64444 42.5667 1.58667C42.7622 1.46667 42.9756 1.37778 43.2067 1.32C43.4378 1.25778 43.6667 1.22667 43.8933 1.22667C44.2444 1.22667 44.54 1.28 44.78 1.38667C45.02 1.48889 45.2022 1.64 45.3267 1.84C45.4511 2.04 45.5133 2.28444 45.5133 2.57333C45.5133 2.76 45.4844 2.94222 45.4267 3.12C45.3689 3.29778 45.2778 3.47778 45.1533 3.66C45.0333 3.83778 44.8733 4.02889 44.6733 4.23333L43.5067 5.42V5.15333H45.3133C45.4556 5.15333 45.5622 5.18889 45.6333 5.26C45.7089 5.33111 45.7467 5.43556 45.7467 5.57333C45.7467 5.71111 45.7089 5.81778 45.6333 5.89333C45.5622 5.96444 45.4556 6 45.3133 6H42.92ZM46.8707 6.03333C46.693 6.03333 46.5507 5.98 46.4441 5.87333C46.3418 5.76667 46.2907 5.62889 46.2907 5.46C46.2907 5.29556 46.3418 5.16222 46.4441 5.06C46.5507 4.95333 46.693 4.9 46.8707 4.9C47.0485 4.9 47.1863 4.95333 47.2841 5.06C47.3863 5.16222 47.4374 5.29556 47.4374 5.46C47.4374 5.62889 47.3863 5.76667 47.2841 5.87333C47.1863 5.98 47.0485 6.03333 46.8707 6.03333ZM49.7292 6.07333C49.1603 6.07333 48.7247 5.86222 48.4225 5.44C48.1247 5.01333 47.9758 4.41111 47.9758 3.63333C47.9758 3.11333 48.0425 2.67556 48.1758 2.32C48.3136 1.96 48.5114 1.68889 48.7692 1.50667C49.0314 1.32 49.3514 1.22667 49.7292 1.22667C50.3025 1.22667 50.7381 1.43333 51.0358 1.84667C51.3336 2.25556 51.4825 2.85111 51.4825 3.63333C51.4825 4.15333 51.4136 4.59556 51.2758 4.96C51.1425 5.32 50.9469 5.59556 50.6892 5.78667C50.4314 5.97778 50.1114 6.07333 49.7292 6.07333ZM49.7292 5.23333C49.9869 5.23333 50.1781 5.10667 50.3025 4.85333C50.4269 4.59556 50.4892 4.18889 50.4892 3.63333C50.4892 3.07778 50.4269 2.67778 50.3025 2.43333C50.1781 2.18889 49.9869 2.06667 49.7292 2.06667C49.4714 2.06667 49.2803 2.18889 49.1558 2.43333C49.0314 2.67778 48.9692 3.07778 48.9692 3.63333C48.9692 4.18889 49.0314 4.59556 49.1558 4.85333C49.2803 5.10667 49.4714 5.23333 49.7292 5.23333Z" fill="white"/>
</svg>
