<svg width="61" height="10" viewBox="0 0 61 10" fill="none" xmlns="http://www.w3.org/2000/svg">
<g clip-path="url(#clip0_3861_895)">
<path d="M4.9561 9.13199C4.0441 9.13199 3.2641 8.95199 2.6161 8.59199C1.9681 8.23199 1.4681 7.72799 1.1161 7.07999C0.772098 6.42399 0.600098 5.65199 0.600098 4.76399C0.600098 4.09999 0.696098 3.50399 0.888098 2.97599C1.0881 2.43999 1.3761 1.98399 1.7521 1.60799C2.1281 1.22399 2.5841 0.927989 3.1201 0.719989C3.6641 0.51199 4.2761 0.40799 4.9561 0.40799C5.3561 0.40799 5.7601 0.45999 6.1681 0.56399C6.5841 0.65999 6.9441 0.799989 7.2481 0.983989C7.4481 1.09599 7.5841 1.23599 7.6561 1.40399C7.7281 1.57199 7.7481 1.73999 7.7161 1.90799C7.6921 2.07599 7.6241 2.21999 7.5121 2.33999C7.4081 2.45999 7.2761 2.53599 7.1161 2.56799C6.9561 2.59999 6.7761 2.56399 6.5761 2.45999C6.3361 2.31599 6.0841 2.21199 5.8201 2.14799C5.5561 2.08399 5.2881 2.05199 5.0161 2.05199C4.4801 2.05199 4.0281 2.15999 3.6601 2.37599C3.3001 2.58399 3.0281 2.88799 2.8441 3.28799C2.6601 3.68799 2.5681 4.17999 2.5681 4.76399C2.5681 5.33999 2.6601 5.83199 2.8441 6.23999C3.0281 6.64799 3.3001 6.95999 3.6601 7.17599C4.0281 7.38399 4.4801 7.48799 5.0161 7.48799C5.2721 7.48799 5.5321 7.45599 5.7961 7.39199C6.0681 7.32799 6.3281 7.22799 6.5761 7.09199C6.7841 6.98799 6.9681 6.95199 7.1281 6.98399C7.2961 7.00799 7.4321 7.07999 7.5361 7.19999C7.6481 7.31199 7.7161 7.44799 7.7401 7.60799C7.7721 7.76799 7.7561 7.92799 7.6921 8.08799C7.6281 8.24799 7.5081 8.38399 7.3321 8.49599C7.0361 8.69599 6.6721 8.85199 6.2401 8.96399C5.8081 9.07599 5.3801 9.13199 4.9561 9.13199ZM11.3093 9.13199C10.6774 9.13199 10.1254 9.00799 9.65335 8.75999C9.18935 8.51199 8.82935 8.15599 8.57335 7.69199C8.31735 7.22799 8.18935 6.67999 8.18935 6.04799C8.18935 5.57599 8.26135 5.15199 8.40535 4.77599C8.54935 4.39999 8.75735 4.07999 9.02935 3.81599C9.30935 3.54399 9.64135 3.33999 10.0254 3.20399C10.4094 3.05999 10.8374 2.98799 11.3093 2.98799C11.9414 2.98799 12.4894 3.11199 12.9534 3.35999C13.4254 3.60799 13.7894 3.95999 14.0454 4.41599C14.3094 4.87199 14.4414 5.41599 14.4414 6.04799C14.4414 6.52799 14.3654 6.95599 14.2134 7.33199C14.0694 7.70799 13.8614 8.03199 13.5894 8.30399C13.3174 8.57599 12.9854 8.78399 12.5934 8.92799C12.2094 9.06399 11.7814 9.13199 11.3093 9.13199ZM11.3093 7.77599C11.5734 7.77599 11.8014 7.71199 11.9934 7.58399C12.1854 7.45599 12.3374 7.26799 12.4494 7.01999C12.5614 6.76399 12.6174 6.43999 12.6174 6.04799C12.6174 5.46399 12.4974 5.03599 12.2574 4.76399C12.0174 4.48399 11.7014 4.34399 11.3093 4.34399C11.0534 4.34399 10.8254 4.40399 10.6254 4.52399C10.4334 4.64399 10.2814 4.83199 10.1694 5.08799C10.0654 5.33599 10.0134 5.65599 10.0134 6.04799C10.0134 6.63199 10.1334 7.06799 10.3734 7.35599C10.6134 7.63599 10.9254 7.77599 11.3093 7.77599ZM16.5638 9.10799C16.2918 9.10799 16.0838 9.03199 15.9398 8.87999C15.7958 8.72799 15.7238 8.51599 15.7238 8.24399V1.29599C15.7238 1.02399 15.7998 0.811989 15.9518 0.659989C16.1118 0.507989 16.3278 0.431989 16.5998 0.431989C16.8398 0.431989 17.0278 0.479989 17.1638 0.575989C17.3078 0.663989 17.4398 0.819989 17.5598 1.04399L20.3318 6.10799H19.9238L22.6958 1.04399C22.8158 0.819989 22.9438 0.663989 23.0798 0.575989C23.2238 0.479989 23.4118 0.431989 23.6438 0.431989C23.9158 0.431989 24.1238 0.507989 24.2678 0.659989C24.4198 0.811989 24.4958 1.02399 24.4958 1.29599V8.24399C24.4958 8.51599 24.4238 8.72799 24.2798 8.87999C24.1358 9.03199 23.9278 9.10799 23.6558 9.10799C23.3838 9.10799 23.1718 9.03199 23.0198 8.87999C22.8758 8.72799 22.8038 8.51599 22.8038 8.24399V3.38399H23.0678L20.8358 7.37999C20.7398 7.53199 20.6358 7.64799 20.5238 7.72799C20.4198 7.79999 20.2798 7.83599 20.1038 7.83599C19.9278 7.83599 19.7838 7.79599 19.6718 7.71599C19.5598 7.63599 19.4598 7.52399 19.3718 7.37999L17.1158 3.37199H17.4038V8.24399C17.4038 8.51599 17.3318 8.72799 17.1878 8.87999C17.0518 9.03199 16.8438 9.10799 16.5638 9.10799ZM27.1835 8.99999C26.8715 8.99999 26.6315 8.91599 26.4635 8.74799C26.2955 8.57999 26.2115 8.33999 26.2115 8.02799V1.51199C26.2115 1.19999 26.2955 0.95999 26.4635 0.79199C26.6315 0.62399 26.8715 0.539989 27.1835 0.539989H31.3715C31.6115 0.539989 31.7915 0.603989 31.9115 0.73199C32.0395 0.85199 32.1035 1.02799 32.1035 1.25999C32.1035 1.49999 32.0395 1.68399 31.9115 1.81199C31.7915 1.93199 31.6115 1.99199 31.3715 1.99199H27.9875V3.97199H31.0955C31.3435 3.97199 31.5275 4.03599 31.6475 4.16399C31.7755 4.28399 31.8395 4.46399 31.8395 4.70399C31.8395 4.94399 31.7755 5.12799 31.6475 5.25599C31.5275 5.37599 31.3435 5.43599 31.0955 5.43599H27.9875V7.54799H31.3715C31.6115 7.54799 31.7915 7.61199 31.9115 7.73999C32.0395 7.85999 32.1035 8.03599 32.1035 8.26799C32.1035 8.50799 32.0395 8.69199 31.9115 8.81999C31.7915 8.93999 31.6115 8.99999 31.3715 8.99999H27.1835ZM36.4291 9.10799C36.1251 9.10799 35.8931 9.02399 35.7331 8.85599C35.5731 8.68799 35.4931 8.45199 35.4931 8.14799V2.07599H33.3691C33.1211 2.07599 32.9291 2.00799 32.7931 1.87199C32.6571 1.73599 32.5891 1.54799 32.5891 1.30799C32.5891 1.05999 32.6571 0.87199 32.7931 0.74399C32.9291 0.60799 33.1211 0.539989 33.3691 0.539989H39.4771C39.7251 0.539989 39.9171 0.60799 40.0531 0.74399C40.1891 0.87199 40.2571 1.05999 40.2571 1.30799C40.2571 1.54799 40.1891 1.73599 40.0531 1.87199C39.9171 2.00799 39.7251 2.07599 39.4771 2.07599H37.3531V8.14799C37.3531 8.45199 37.2731 8.68799 37.1131 8.85599C36.9611 9.02399 36.7331 9.10799 36.4291 9.10799Z" fill="#3DCD58"/>
<path d="M45.3695 9C45.0817 9 44.8679 8.93389 44.7279 8.80167C44.5956 8.66167 44.5295 8.45944 44.5295 8.195C44.5295 8.02389 44.5723 7.86444 44.6579 7.71667C44.7434 7.56889 44.8601 7.41722 45.0079 7.26167L47.2012 4.95167C47.5279 4.60167 47.7612 4.29055 47.9012 4.01833C48.049 3.74611 48.1229 3.47389 48.1229 3.20167C48.1229 2.85944 48.0101 2.59889 47.7845 2.42C47.5667 2.24111 47.2479 2.15167 46.8279 2.15167C46.6023 2.15167 46.369 2.18667 46.1279 2.25667C45.8945 2.31889 45.6495 2.42389 45.3929 2.57167C45.2217 2.665 45.0623 2.7 44.9145 2.67667C44.7745 2.64555 44.654 2.57944 44.5529 2.47833C44.4517 2.36944 44.3856 2.24111 44.3545 2.09333C44.3234 1.94555 44.339 1.79778 44.4012 1.65C44.4634 1.50222 44.5801 1.37778 44.7512 1.27667C45.0934 1.06667 45.4667 0.91111 45.8712 0.809999C46.2756 0.70111 46.6762 0.646666 47.0729 0.646666C47.6873 0.646666 48.2045 0.739999 48.6245 0.926665C49.0445 1.10555 49.3634 1.37 49.5812 1.72C49.799 2.07 49.9079 2.49778 49.9079 3.00333C49.9079 3.33 49.8573 3.64889 49.7562 3.96C49.6551 4.27111 49.4956 4.58611 49.2779 4.905C49.0679 5.21611 48.7879 5.55055 48.4379 5.90833L46.3962 7.985V7.51833H49.5579C49.8067 7.51833 49.9934 7.58056 50.1179 7.705C50.2501 7.82944 50.3162 8.01222 50.3162 8.25333C50.3162 8.49444 50.2501 8.68111 50.1179 8.81333C49.9934 8.93778 49.8067 9 49.5579 9H45.3695ZM52.2833 9.05833C51.9722 9.05833 51.7233 8.965 51.5366 8.77833C51.3577 8.59167 51.2683 8.35056 51.2683 8.055C51.2683 7.76722 51.3577 7.53389 51.5366 7.355C51.7233 7.16833 51.9722 7.075 52.2833 7.075C52.5944 7.075 52.8355 7.16833 53.0066 7.355C53.1855 7.53389 53.275 7.76722 53.275 8.055C53.275 8.35056 53.1855 8.59167 53.0066 8.77833C52.8355 8.965 52.5944 9.05833 52.2833 9.05833ZM57.2856 9.12833C56.29 9.12833 55.5278 8.75889 54.9989 8.02C54.4778 7.27333 54.2172 6.21944 54.2172 4.85833C54.2172 3.94833 54.3339 3.18222 54.5672 2.56C54.8083 1.93 55.1545 1.45555 55.6056 1.13667C56.0645 0.809999 56.6245 0.646666 57.2856 0.646666C58.2889 0.646666 59.0511 1.00833 59.5722 1.73167C60.0933 2.44722 60.3539 3.48944 60.3539 4.85833C60.3539 5.76833 60.2333 6.54222 59.9922 7.18C59.7589 7.81 59.4167 8.29222 58.9656 8.62667C58.5145 8.96111 57.9545 9.12833 57.2856 9.12833ZM57.2856 7.65833C57.7367 7.65833 58.0711 7.43667 58.2889 6.99333C58.5067 6.54222 58.6156 5.83056 58.6156 4.85833C58.6156 3.88611 58.5067 3.18611 58.2889 2.75833C58.0711 2.33055 57.7367 2.11667 57.2856 2.11667C56.8345 2.11667 56.5 2.33055 56.2822 2.75833C56.0645 3.18611 55.9556 3.88611 55.9556 4.85833C55.9556 5.83056 56.0645 6.54222 56.2822 6.99333C56.5 7.43667 56.8345 7.65833 57.2856 7.65833Z" fill="#3DCD58"/>
</g>
<defs>
<clipPath id="clip0_3861_895">
<rect width="61" height="10" fill="white"/>
</clipPath>
</defs>
</svg>
