<svg width="16" height="16" viewBox="0 0 16 16" fill="none" xmlns="http://www.w3.org/2000/svg">
<path d="M15.3846 16H8C3.58892 16 0 12.4111 0 8C0 3.58892 3.58892 0 8 0C12.4111 0 16 3.58892 16 8V15.3846C16 15.7243 15.7243 16 15.3846 16ZM8 1.23077C4.26708 1.23077 1.23077 4.26708 1.23077 8C1.23077 11.7317 4.26708 14.7692 8 14.7692H14.7692V8C14.7692 4.26708 11.7317 1.23077 8 1.23077Z" fill="#3DCD58"/>
<path d="M6.76925 11.0769C6.61171 11.0769 6.45417 11.0166 6.33356 10.8972L3.87202 8.43567C3.63202 8.19567 3.63202 7.80552 3.87202 7.56552C4.11202 7.32552 4.50217 7.32552 4.74217 7.56552L6.76925 9.59136L11.872 4.48859C12.112 4.24859 12.5022 4.24859 12.7422 4.48859C12.9822 4.72859 12.9822 5.11875 12.7422 5.35875L7.20371 10.8972C7.08432 11.0166 6.92679 11.0769 6.76925 11.0769Z" fill="#3DCD58"/>
</svg>
