<svg width="110" height="110" viewBox="0 0 110 110" fill="none" xmlns="http://www.w3.org/2000/svg">
<path d="M73.7891 21.4142V21.4181C74.7266 21.4142 75.4883 22.172 75.4961 23.1056V77.4766C75.4883 78.4141 74.7266 79.168 73.7891 79.168L25.1211 79.1719C24.1836 79.168 23.4219 78.4141 23.4141 77.4766V23.1056C23.4219 22.172 24.1836 21.4142 25.1211 21.4142L73.7891 21.4142ZM25.0391 16.0001V16.004C21.1914 16.0431 18.0782 19.1329 18 22.9688V77.6138C18.0781 81.4497 21.1914 84.5396 25.0391 84.5865H73.8711C77.7188 84.5396 80.832 81.4498 80.9102 77.6138V22.9688C80.8321 19.1329 77.7188 16.043 73.8711 16L25.0391 16.0001ZM88.3121 27.5861C86.816 27.5861 85.6051 28.797 85.6051 30.2931V87.4141C85.5934 88.3477 84.8356 89.1055 83.8981 89.1055H32.2101C30.714 89.1055 29.5031 90.3164 29.5031 91.8125C29.5031 93.3086 30.714 94.5195 32.2101 94.5195H83.9801C87.8239 94.4765 90.941 91.3867 91.0192 87.5507L91.0231 30.2927C91.0231 28.7966 89.8082 27.5861 88.3121 27.5861Z" fill="#3DCD58"/>
</svg>
