<svg width="18" height="18" viewBox="0 0 18 18" fill="none" xmlns="http://www.w3.org/2000/svg">
<path d="M9 18C13.9706 18 18 13.9706 18 9C18 4.02944 13.9706 0 9 0C4.02944 0 0 4.02944 0 9C0 13.9706 4.02944 18 9 18Z" fill="white"/>
<path d="M5.39596 12.58C5.489 12.6743 5.59985 12.7492 5.72208 12.8003C5.8443 12.8515 5.97547 12.8778 6.10796 12.8778C6.24046 12.8778 6.37163 12.8515 6.49385 12.8003C6.61608 12.7492 6.72693 12.6743 6.81997 12.58L8.97596 10.424L11.132 12.58C11.3208 12.7688 11.5769 12.8749 11.844 12.8749C12.111 12.8749 12.3671 12.7688 12.556 12.58C12.7448 12.3911 12.8509 12.135 12.8509 11.868C12.8509 11.6009 12.7448 11.3448 12.556 11.156L10.4 8.99998L12.556 6.84398C12.6495 6.75048 12.7236 6.63948 12.7742 6.51731C12.8248 6.39515 12.8509 6.26421 12.8509 6.13198C12.8509 5.99975 12.8248 5.86881 12.7742 5.74665C12.7236 5.62448 12.6495 5.51348 12.556 5.41998C12.4625 5.32648 12.3515 5.25231 12.2293 5.20171C12.1071 5.15111 11.9762 5.12506 11.844 5.12506C11.7117 5.12506 11.5808 5.15111 11.4586 5.20171C11.3365 5.25231 11.2255 5.32648 11.132 5.41998L8.97596 7.57598L6.81997 5.41998C6.72646 5.32648 6.61546 5.25231 6.4933 5.20171C6.37113 5.15111 6.2402 5.12506 6.10796 5.12506C5.97573 5.12506 5.8448 5.15111 5.72263 5.20171C5.60047 5.25231 5.48947 5.32648 5.39596 5.41998C5.30246 5.51348 5.22829 5.62448 5.17769 5.74665C5.12709 5.86881 5.10105 5.99975 5.10105 6.13198C5.10105 6.26421 5.12709 6.39515 5.17769 6.51731C5.22829 6.63948 5.30246 6.75048 5.39596 6.84398L7.55197 8.99998L5.39596 11.156C5.30163 11.249 5.22673 11.3599 5.1756 11.4821C5.12447 11.6043 5.09814 11.7355 5.09814 11.868C5.09814 12.0005 5.12447 12.1316 5.1756 12.2539C5.22673 12.3761 5.30163 12.4869 5.39596 12.58Z" fill="#FF2D55"/>
</svg>
