<svg width="318" height="65" viewBox="0 0 318 65" fill="none" xmlns="http://www.w3.org/2000/svg">
<path d="M13.3425 40.624H3.17887V23.1161C3.17887 22.4322 3.17887 21.4748 2.0801 21.4748C0.981323 21.4748 0.981323 22.4322 0.981323 23.1161V40.7608C0.981323 42.2653 1.11867 42.4021 2.76683 42.4021H13.2052C13.8919 42.4021 14.8533 42.4021 14.8533 41.5814C14.9907 40.624 14.0293 40.624 13.3425 40.624Z" fill="white"/>
<path d="M17.8711 27.0847C16.9097 27.0847 16.9097 27.9054 16.9097 28.5893V41.3098C16.9097 41.9937 16.9097 42.8144 17.8711 42.8144C18.8325 42.8144 18.8325 41.9937 18.8325 41.3098V28.5893C18.8325 28.0422 18.8325 27.0847 17.8711 27.0847Z" fill="white"/>
<path d="M17.8694 22.0214C17.1826 22.0214 16.6332 22.5685 16.6332 23.1157C16.6332 23.7996 17.1826 24.2099 17.8694 24.2099C18.5561 24.2099 19.1055 23.6628 19.1055 23.1157C19.1055 22.5685 18.5561 22.0214 17.8694 22.0214Z" fill="white"/>
<path d="M27.5009 27.4909H25.4407V26.1231C25.4407 24.2082 25.578 22.9772 27.9129 22.9772C28.0503 22.9772 28.325 22.9772 28.5996 22.9772C28.8743 22.9772 29.149 22.9772 29.2864 22.9772C29.8358 22.9772 30.1105 22.5668 30.1105 22.1565C30.1105 22.1565 30.1105 21.7462 29.6984 21.4726C29.2864 21.3358 28.325 21.0623 27.3635 21.0623C26.6768 21.0623 25.9901 21.199 25.4407 21.4726C24.7539 21.7462 24.3419 22.1565 24.0672 22.7036C23.9299 22.9772 23.6552 23.6611 23.6552 25.4392V27.4909H21.8697C21.595 27.4909 20.6335 27.4909 20.6335 28.1748C20.6335 28.8587 21.4576 28.8587 21.8697 28.8587H23.5178V41.3057C23.5178 41.9896 23.5178 42.8103 24.4792 42.8103C25.4407 42.8103 25.4407 41.9896 25.4407 41.3057V28.8587H27.5009C28.325 28.8587 28.737 28.5851 28.737 28.1748C28.737 27.4909 27.9129 27.4909 27.5009 27.4909Z" fill="white"/>
<path d="M43.1424 33.9237C43.1424 33.7869 43.1424 32.1456 42.1809 30.5042C41.6316 29.5468 40.9448 28.7261 40.1207 28.179C39.9834 28.179 39.9834 28.0422 39.846 28.0422C39.846 28.0422 39.7087 27.9054 39.5714 27.9054C39.2967 27.7686 39.1593 27.7686 38.8846 27.6318C38.7473 27.6318 38.7473 27.6318 38.6099 27.4951C38.3352 27.3583 38.0605 27.3583 37.7858 27.2215H37.6485C37.3738 27.2215 36.9618 27.0847 36.6871 27.0847C36.6871 27.0847 36.6871 27.0847 36.5497 27.0847C36.4124 27.0847 36.1377 27.0847 36.0003 27.0847C33.6654 27.0847 31.7426 27.7686 30.5065 29.2732C29.2704 30.641 28.5836 32.5559 28.5836 34.8812C28.5836 37.2064 29.2704 39.1213 30.3691 40.4891C31.0559 41.173 31.7426 41.7202 32.704 42.1305C33.6654 42.5408 34.7642 42.6776 36.0003 42.6776C38.8846 42.6776 40.5328 41.5834 41.3569 40.6259C42.3183 39.5317 42.7303 38.4374 42.7303 38.1639C42.7303 37.7535 42.3183 37.3432 41.7689 37.3432C41.3569 37.3432 40.9448 37.6168 40.8075 38.0271C40.2581 39.3949 39.434 40.2156 38.1979 40.7627C37.5112 41.0363 36.8244 41.173 36.0003 41.173C34.2148 41.173 32.9787 40.6259 32.0173 39.3949C31.1932 38.3007 30.6438 36.7961 30.6438 35.0179H41.2195C42.3183 35.1547 43.1424 35.1547 43.1424 33.9237ZM30.7812 33.6501C31.0559 31.7352 32.4293 28.5893 36.0003 28.5893C40.5328 28.5893 40.9448 32.4191 41.0822 33.6501H30.7812Z" fill="white"/>
<path d="M53.0305 21.4748C51.9317 21.4748 51.9317 22.4322 51.9317 23.1161V41.1711C51.9317 41.855 51.9317 42.8124 53.0305 42.8124C54.1292 42.8124 54.1292 41.855 54.1292 41.1711V22.9794C54.1292 22.2955 54.1292 21.4748 53.0305 21.4748Z" fill="white"/>
<path d="M88.4816 32.4155C89.1683 32.4155 89.5804 31.8684 89.5804 31.3213V18.8743H87.3828V31.3213C87.3828 31.7316 87.7949 32.4155 88.4816 32.4155Z" fill="white"/>
<path d="M67.8735 35.013C67.7361 34.8762 67.5988 34.8762 67.4614 34.8762H67.3241C66.2253 34.4659 64.9892 34.0555 63.7531 33.9188C62.517 33.6452 61.4182 33.3716 60.5941 32.9613C59.6327 32.551 59.2206 31.8671 59.2206 31.0464C59.2206 29.405 61.1435 28.7211 63.0663 28.7211C65.1265 28.7211 66.6374 29.5418 67.0494 30.7728C67.3241 31.5935 67.5988 31.7303 68.0108 31.7303C68.8349 31.7303 68.9722 30.9096 68.9722 30.9096C68.9722 30.7728 68.8349 29.8154 68.0108 28.9947C67.5988 28.4476 66.912 28.0372 66.2253 27.7637C65.2639 27.3533 64.3025 27.2166 62.929 27.2166C60.7315 27.2166 59.0833 27.7637 58.1219 28.9947C57.1604 30.0889 57.1604 31.1832 57.1604 31.4567C57.1604 32.551 57.7098 33.6452 58.6712 34.1923C59.6327 34.8762 60.5941 35.013 62.6543 35.5601C63.2037 35.6969 63.7531 35.8337 64.4398 35.9705H64.5772C65.6759 36.244 67.7361 36.7911 67.7361 38.5693C67.7361 39.9371 66.3627 41.4417 63.341 41.4417C61.1435 41.4417 59.6327 40.621 58.8086 38.9796C58.5339 38.5693 58.3966 38.0222 57.8472 38.0222C57.5725 38.0222 57.4351 38.1589 57.1604 38.2957C57.0231 38.4325 56.8857 38.7061 56.8857 38.8428C56.8857 39.6635 57.5725 40.8945 58.5339 41.7152C59.0833 42.1256 59.4953 42.3991 60.1821 42.5359C61.0061 42.8095 61.9676 42.9462 63.2037 42.9462C65.6759 42.9462 67.5988 42.3991 68.6976 41.1681C69.659 40.0739 69.7963 38.8428 69.7963 38.4325C69.9337 36.7911 69.2469 35.6969 67.8735 35.013Z" fill="white"/>
<path d="M113.607 28.7261C112.92 28.0422 111.547 27.0847 109.212 27.0847C106.19 27.0847 104.954 28.5893 103.993 29.5468V28.4525C103.993 28.0422 103.993 27.4951 103.718 27.2215H103.581C103.443 27.0847 103.306 27.0847 103.031 27.0847C102.07 27.0847 102.07 27.9054 102.07 28.5893V41.3098C102.07 41.9937 102.07 42.8144 103.031 42.8144C103.306 42.8144 103.443 42.8144 103.581 42.6776H103.718C103.993 42.4041 103.993 41.8569 103.993 41.4466V35.9754C103.993 33.5134 104.13 32.2823 104.542 31.3249C104.954 30.5042 105.641 29.8203 106.465 29.41C107.289 28.9996 108.25 28.7261 109.075 28.7261C110.448 28.7261 111.547 29.2732 112.233 30.0939C112.783 30.9146 112.92 32.0088 112.92 33.103V41.3098C112.92 41.7202 112.92 42.2673 113.195 42.5408H113.332C113.47 42.6776 113.607 42.6776 113.882 42.6776C114.843 42.6776 114.843 41.8569 114.843 41.173V32.5559C114.843 31.872 114.843 29.9571 113.607 28.7261Z" fill="white"/>
<path d="M91.4861 21.2012V23.3896C95.0571 24.6207 97.6667 28.0402 97.6667 32.0068C97.6667 37.0676 93.5463 41.0342 88.4644 41.0342C83.3826 41.0342 79.3996 36.9308 79.3996 32.0068C79.3996 28.0402 81.8718 24.7574 85.3055 23.5264V21.338C80.6357 22.7058 77.3394 26.9459 77.3394 32.0068C77.3394 38.1619 82.4212 43.0859 88.4644 43.0859C94.645 43.0859 99.5895 38.0251 99.5895 32.0068C99.7269 26.8091 96.2932 22.4322 91.4861 21.2012Z" fill="white"/>
<path d="M172.944 23.5261C169.236 21.8848 167.039 21.2009 164.841 21.2009C162.506 21.2009 160.995 22.0215 160.995 23.2526C160.995 27.0824 174.181 25.9882 174.181 34.8789C174.181 39.8029 170.06 42.6753 164.292 42.6753C159.759 42.6753 157.562 41.4443 154.952 40.2133V34.7421C158.66 37.2041 160.858 38.0248 163.742 38.0248C166.214 38.0248 167.588 37.2041 167.588 35.6995C167.588 31.4594 154.403 33.1007 154.403 23.7997C154.403 19.4227 158.248 16.4136 164.154 16.4136C167.039 16.4136 169.648 16.9607 172.944 18.4653V23.5261" fill="white"/>
<path d="M191.347 41.5798C189.15 42.4005 187.364 42.8108 185.441 42.8108C179.261 42.8108 175.415 39.2545 175.415 33.9201C175.415 28.5857 179.535 24.8926 185.304 24.8926C187.089 24.8926 189.287 25.303 191.21 25.9869V30.0903C189.836 29.2696 188.051 28.8593 186.815 28.8593C183.518 28.8593 181.458 30.7742 181.458 33.7833C181.458 36.7925 183.518 38.8442 186.677 38.8442C188.051 38.8442 189.15 38.5706 191.622 37.6132V41.5798" fill="white"/>
<path d="M242.305 24.7579C236.948 24.7579 233.102 28.5878 233.102 33.7854C233.102 39.1198 237.085 42.6761 243.129 42.6761C244.502 42.6761 247.798 42.6761 250.82 40.3508V37.0681C248.21 38.8463 246.562 39.5302 244.365 39.5302C240.931 39.5302 238.871 37.752 238.596 34.7429H251.095C251.507 28.3142 247.386 24.7579 242.305 24.7579ZM239.008 31.8705C239.283 29.4084 240.656 28.0406 242.717 28.0406C244.777 28.0406 246.288 29.4084 246.425 31.8705H239.008Z" fill="white"/>
<path d="M258.926 25.0316H253.432V42.4027H258.926V25.0316Z" fill="white"/>
<path d="M274.022 16.8234V25.8509C272.511 25.167 271.137 24.7567 269.489 24.7567C264.545 24.7567 261.111 28.4497 261.111 33.7841C261.111 38.9818 264.545 42.8116 269.215 42.8116C271 42.8116 272.511 42.2645 274.022 41.0335V42.4013H279.516V16.8234H274.022ZM274.022 37.7507C272.923 38.7082 271.961 39.1185 270.725 39.1185C268.116 39.1185 266.468 37.0668 266.468 33.9209C266.468 30.5014 268.116 28.4497 270.863 28.4497C271.824 28.4497 273.198 28.86 273.884 29.4072V37.7507H274.022Z" fill="white"/>
<path d="M291.06 24.7579C285.704 24.7579 281.858 28.5878 281.858 33.7854C281.858 39.1198 285.841 42.6761 291.884 42.6761C293.258 42.6761 296.554 42.6761 299.713 40.3508V37.0681C297.104 38.8463 295.455 39.5302 293.258 39.5302C289.824 39.5302 287.764 37.752 287.489 34.7429H299.988C300.262 28.3142 296.142 24.7579 291.06 24.7579ZM287.627 31.8705C287.901 29.4084 289.275 28.0406 291.335 28.0406C293.395 28.0406 294.906 29.4084 295.181 31.8705H287.627Z" fill="white"/>
<path d="M308.225 30.0924C309.873 26.5361 311.796 24.7579 313.856 24.7579C314.955 24.7579 315.916 25.1683 317.427 26.3993L315.916 31.1866C314.543 30.2291 313.581 29.9556 312.62 29.9556C310.56 29.9556 309.324 31.8705 308.088 35.0164V42.5393H302.594V25.0315H308.088V30.0924" fill="white"/>
<path d="M259.194 17.7794C259.743 19.1472 258.782 21.0621 257.134 22.0195C255.485 22.977 253.7 22.7034 253.288 21.3356C252.738 19.9678 253.7 18.0529 255.348 17.0955C256.859 16.138 258.644 16.4116 259.194 17.7794Z" fill="white"/>
<path d="M210.987 31.4617C210.987 26.8112 207.828 24.8963 204.669 24.8963C202.471 24.8963 200.686 25.8538 199.175 27.7687H199.038V16.9631H193.544V42.5409H199.038V31.5985C200.274 29.8204 201.373 28.9997 202.746 28.9997C204.394 28.9997 205.63 30.2307 205.63 32.8295V38.9846C207.416 38.0272 209.339 37.48 211.124 37.2065V31.4617" fill="white"/>
<path d="M224.727 24.7579C222.53 24.7579 220.744 25.5786 219.096 27.6303V25.1683H213.602V36.9313C215.525 37.0681 217.86 38.0256 219.096 39.3934V31.3234C220.47 29.1349 221.568 28.451 222.942 28.451C224.453 28.451 225.689 29.4084 225.689 31.8705V42.4025H231.183V31.4601C231.045 26.2625 227.337 24.7579 224.727 24.7579Z" fill="white"/>
<path d="M234.074 47.3253H227.619V51.8391H233.799V53.754H227.619V58.4045H234.211V60.3194H225.559V45.4104H234.074V47.3253Z" fill="white"/>
<path d="M241.068 45.4104H239.145V60.3194H241.068V45.4104Z" fill="white"/>
<path d="M248.065 55.6692H254.932C254.932 51.9761 253.284 50.3348 250.674 50.3348C247.927 50.3348 246.142 52.3865 246.142 55.2589C246.142 57.9944 247.79 60.4565 250.949 60.4565C252.597 60.4565 253.696 60.0461 254.932 59.3622V57.4473C253.833 58.268 252.597 58.6783 251.498 58.6783C249.438 58.6783 248.339 57.7209 248.065 55.6692ZM250.812 51.9761C252.185 51.9761 253.009 52.9336 253.146 54.4382H248.202C248.339 52.9336 249.301 51.9761 250.812 51.9761Z" fill="white"/>
<path d="M267.714 53.0704C266.615 52.2497 265.791 52.1129 264.967 52.1129C263.181 52.1129 261.945 53.4807 261.945 55.5324C261.945 57.5841 263.318 58.8151 265.241 58.8151C266.065 58.8151 266.889 58.5416 267.851 58.1312V60.0462C267.164 60.3197 265.928 60.5933 264.967 60.5933C262.082 60.5933 260.022 58.5416 260.022 55.6692C260.022 52.3865 261.945 50.3348 264.829 50.3348C265.928 50.3348 266.752 50.6083 267.714 51.0187V53.0704" fill="white"/>
<path d="M276.633 50.4695H279.792V52.2476H276.633V57.3085C276.633 58.4027 277.457 58.8131 278.006 58.8131C278.693 58.8131 279.379 58.5395 280.204 58.1292V59.9073C279.517 60.3176 278.418 60.5912 277.869 60.5912C275.808 60.5912 274.71 59.2234 274.71 57.4453V52.2476H273.062V52.1108L276.77 48.5546V50.4695" fill="white"/>
<path d="M287.082 50.4716V52.7968C288.043 51.0187 289.005 50.3348 289.966 50.3348C290.79 50.3348 291.477 50.7451 292.301 51.429L291.202 53.0704C290.653 52.5233 289.829 52.1129 289.417 52.1129C288.043 52.1129 287.082 53.4807 287.082 55.1221V60.3197H285.159V50.4716H287.082Z" fill="white"/>
<path d="M312.35 53.0704C311.251 52.2497 310.427 52.1129 309.603 52.1129C307.818 52.1129 306.582 53.4807 306.582 55.5324C306.582 57.5841 307.955 58.8151 309.878 58.8151C310.702 58.8151 311.526 58.5416 312.488 58.1312V60.0462C311.801 60.3197 310.565 60.5933 309.603 60.5933C306.719 60.5933 304.659 58.5416 304.659 55.6692C304.659 52.3865 306.582 50.3348 309.466 50.3348C310.565 50.3348 311.389 50.6083 312.35 51.0187V53.0704" fill="white"/>
<path d="M299.433 50.4737H297.51V60.3218H299.433V50.4737Z" fill="white"/>
<path d="M299.571 46.9145C299.709 47.3249 299.434 48.0088 298.885 48.4191C298.335 48.8294 297.648 48.6927 297.511 48.1455C297.374 47.5984 297.648 47.0513 298.198 46.641C298.747 46.3674 299.297 46.5042 299.571 46.9145Z" fill="white"/>
<path d="M213.732 51.8403L214.281 49.6518H219.638C220.324 46.5059 219.775 43.6335 217.852 41.8553C214.006 38.0255 206.04 39.3933 200.134 45.0013C199.173 45.822 198.486 46.7794 197.662 47.7369H200.959L200.272 49.9253H196.426C196.014 50.6092 195.739 51.2931 195.465 51.977H199.997L199.31 54.1655H194.778C193.954 57.4482 194.503 60.4574 196.426 62.3723C200.134 66.0654 208.101 64.8343 214.144 59.0896C215.243 58.1321 216.067 57.0379 216.753 55.9437H212.633L213.32 53.7552H218.127C218.539 53.0713 218.814 52.3874 219.088 51.7035H213.732V51.8403ZM212.496 47.7369C212.221 47.7369 211.946 47.7369 211.809 48.0104C211.809 48.0104 211.672 48.1472 211.672 48.284L210.023 54.8494C209.611 57.1747 206.727 59.4999 203.019 59.4999H200.959H197.8L198.761 56.0804H202.057C202.332 56.0804 202.607 55.9437 202.881 55.6701C203.019 55.5333 203.019 55.3965 203.019 55.2598L204.392 49.515C204.804 47.1897 207.276 44.5909 210.985 44.5909H216.204L215.517 47.7369H212.496Z" fill="white"/>
<path d="M135.172 0H134.073V65H135.172V0Z" fill="white"/>
</svg>
