<svg width="16" height="16" viewBox="0 0 16 16" fill="none" xmlns="http://www.w3.org/2000/svg">
<path d="M2.88568 12.2571V1.94872C2.88568 1.61367 3.2342 1.39245 3.5374 1.53505L9.2155 4.20578C9.56881 4.37196 9.56463 4.87599 9.20862 5.03629L4.65711 7.08566" stroke="#94A3B8" stroke-width="1.02857" stroke-linecap="round"/>
<path d="M4.27535 13.9535C4.30621 13.7066 4.3113 13.6542 4.22302 13.3418C4.13475 13.0293 3.93982 12.7577 3.67209 12.5741C3.40436 12.3904 3.08075 12.3064 2.7575 12.3366C2.43425 12.3667 2.13178 12.5092 1.90265 12.7392C1.67352 12.9692 1.5322 13.2722 1.50326 13.5955C1.47432 13.9189 1.55957 14.2422 1.74421 14.5092C1.92886 14.7763 2.20122 14.9702 2.51397 15.0573C2.82673 15.1444 2.97912 15.1263 3.34947 15.0028" stroke="#94A3B8" stroke-width="1.04932" stroke-linecap="round"/>
<ellipse cx="6.89944" cy="13.7143" rx="0.299469" ry="0.299469" fill="#94A3B8" stroke="#94A3B8" stroke-width="0.748673"/>
<ellipse cx="9.51944" cy="13.7143" rx="0.299469" ry="0.299469" fill="#94A3B8" stroke="#94A3B8" stroke-width="0.748673"/>
<path d="M12.4389 13.7143C12.4389 13.8797 12.3048 14.0137 12.1394 14.0137C11.974 14.0137 11.84 13.8797 11.84 13.7143C11.84 13.5489 11.974 13.4148 12.1394 13.4148C12.3048 13.4148 12.4389 13.5489 12.4389 13.7143Z" fill="#94A3B8" stroke="#94A3B8" stroke-width="0.748673" stroke-linecap="round"/>
<path d="M15.0589 13.7143C15.0589 13.8797 14.9248 14.0137 14.7594 14.0137C14.594 14.0137 14.46 13.8797 14.46 13.7143C14.46 13.5489 14.594 13.4148 14.7594 13.4148C14.9248 13.4148 15.0589 13.5489 15.0589 13.7143Z" fill="#94A3B8" stroke="#94A3B8" stroke-width="0.748673" stroke-linecap="round"/>
</svg>
