<svg width="24" height="24" viewBox="0 0 24 24" fill="none" xmlns="http://www.w3.org/2000/svg">
<path d="M15.4733 10.7923C17.3207 11.5028 18.8247 12.687 19.9852 14.3449C21.1457 16.0028 21.726 17.8028 21.726 19.7449V22.1607C21.726 22.587 21.5128 22.8002 21.0865 22.8002C20.6602 22.8002 20.447 22.587 20.447 22.1607V19.7449C20.447 18.5133 20.1747 17.3291 19.6299 16.1923C19.0852 15.0555 18.3155 14.0844 17.3207 13.2791C16.326 12.4739 15.1891 11.9291 13.9102 11.6449C13.9102 11.5976 13.8865 11.5739 13.8391 11.5739C13.7918 11.5739 13.7681 11.5502 13.7681 11.5028H13.697L13.5904 11.3962C13.5668 11.3726 13.5549 11.337 13.5549 11.2897H13.4839V10.8634C13.4839 10.816 13.4957 10.7805 13.5194 10.7568L13.5549 10.7212V10.6502L13.626 10.5791C13.626 10.5318 13.6497 10.5081 13.697 10.5081L13.7681 10.437C14.4312 10.1055 14.9523 9.58441 15.3312 8.87388C15.7102 8.16335 15.8997 7.42915 15.8997 6.67125C15.8997 5.5344 15.5089 4.55152 14.7273 3.72256C13.9457 2.89361 13.0339 2.47914 11.9918 2.47914C11.2812 2.47914 10.6181 2.66861 10.0023 3.04756C9.3865 3.42651 8.90098 3.93572 8.54571 4.5752C8.19045 5.21467 8.01282 5.91335 8.01282 6.67125C8.01282 7.42915 8.21413 8.16335 8.61676 8.87388C9.0194 9.58441 9.5286 10.1055 10.1444 10.437C10.3812 10.5318 10.4997 10.7212 10.4997 11.0055C10.4997 11.337 10.3339 11.5502 10.0023 11.6449C8.7707 11.9291 7.6694 12.462 6.69834 13.2436C5.72729 14.0252 4.98124 14.9844 4.46018 16.1212C3.93913 17.2581 3.67861 18.466 3.67861 19.7449V21.5212H16.4681C16.8944 21.5212 17.1076 21.7344 17.1076 22.1607C17.1076 22.587 16.8944 22.8002 16.4681 22.8002H3.03913C2.61281 22.8002 2.39966 22.587 2.39966 22.1607V19.7449C2.39966 17.7554 2.95623 15.9436 4.0694 14.3094C5.18256 12.6752 6.66281 11.5028 8.51018 10.7923C7.32597 9.65545 6.73387 8.28178 6.73387 6.67125C6.73387 5.20282 7.25492 3.92388 8.29703 2.83441C9.33914 1.74493 10.5707 1.2002 11.9918 1.2002C13.4128 1.2002 14.6325 1.74493 15.651 2.83441C16.6694 3.92388 17.1786 5.20282 17.1786 6.67125C17.1786 8.28178 16.6102 9.65545 15.4733 10.7923Z" fill="white"/>
<mask id="mask0_234_5967" style="mask-type:luminance" maskUnits="userSpaceOnUse" x="2" y="1" width="20" height="22">
<path d="M15.4733 10.7923C17.3207 11.5028 18.8247 12.687 19.9852 14.3449C21.1457 16.0028 21.726 17.8028 21.726 19.7449V22.1607C21.726 22.587 21.5128 22.8002 21.0865 22.8002C20.6602 22.8002 20.447 22.587 20.447 22.1607V19.7449C20.447 18.5133 20.1747 17.3291 19.6299 16.1923C19.0852 15.0555 18.3155 14.0844 17.3207 13.2791C16.326 12.4739 15.1891 11.9291 13.9102 11.6449C13.9102 11.5976 13.8865 11.5739 13.8391 11.5739C13.7918 11.5739 13.7681 11.5502 13.7681 11.5028H13.697L13.5904 11.3962C13.5668 11.3726 13.5549 11.337 13.5549 11.2897H13.4839V10.8634C13.4839 10.816 13.4957 10.7805 13.5194 10.7568L13.5549 10.7212V10.6502L13.626 10.5791C13.626 10.5318 13.6497 10.5081 13.697 10.5081L13.7681 10.437C14.4312 10.1055 14.9523 9.58441 15.3312 8.87388C15.7102 8.16335 15.8997 7.42915 15.8997 6.67125C15.8997 5.5344 15.5089 4.55152 14.7273 3.72256C13.9457 2.89361 13.0339 2.47914 11.9918 2.47914C11.2812 2.47914 10.6181 2.66861 10.0023 3.04756C9.3865 3.42651 8.90098 3.93572 8.54571 4.5752C8.19045 5.21467 8.01282 5.91335 8.01282 6.67125C8.01282 7.42915 8.21413 8.16335 8.61676 8.87388C9.0194 9.58441 9.5286 10.1055 10.1444 10.437C10.3812 10.5318 10.4997 10.7212 10.4997 11.0055C10.4997 11.337 10.3339 11.5502 10.0023 11.6449C8.7707 11.9291 7.6694 12.462 6.69834 13.2436C5.72729 14.0252 4.98124 14.9844 4.46018 16.1212C3.93913 17.2581 3.67861 18.466 3.67861 19.7449V21.5212H16.4681C16.8944 21.5212 17.1076 21.7344 17.1076 22.1607C17.1076 22.587 16.8944 22.8002 16.4681 22.8002H3.03913C2.61281 22.8002 2.39966 22.587 2.39966 22.1607V19.7449C2.39966 17.7554 2.95623 15.9436 4.0694 14.3094C5.18256 12.6752 6.66281 11.5028 8.51018 10.7923C7.32597 9.65545 6.73387 8.28178 6.73387 6.67125C6.73387 5.20282 7.25492 3.92388 8.29703 2.83441C9.33914 1.74493 10.5707 1.2002 11.9918 1.2002C13.4128 1.2002 14.6325 1.74493 15.651 2.83441C16.6694 3.92388 17.1786 5.20282 17.1786 6.67125C17.1786 8.28178 16.6102 9.65545 15.4733 10.7923Z" fill="white"/>
</mask>
<g mask="url(#mask0_234_5967)">
</g>
</svg>
