<svg width="18" height="18" viewBox="0 0 18 18" fill="none" xmlns="http://www.w3.org/2000/svg">
<path d="M7.3125 9C7.3125 8.06805 8.06805 7.3125 9 7.3125C9.93195 7.3125 10.6875 8.06805 10.6875 9C10.6875 9.93195 9.93195 10.6875 9 10.6875C8.06805 10.6875 7.3125 9.93195 7.3125 9Z" fill="#1C274C"/>
<path fill-rule="evenodd" clip-rule="evenodd" d="M1.5 9C1.5 10.2295 1.81872 10.6436 2.45617 11.4718C3.72897 13.1253 5.86358 15 9 15C12.1364 15 14.271 13.1253 15.5438 11.4718C16.1812 10.6436 16.5 10.2295 16.5 9C16.5 7.77045 16.1812 7.3564 15.5438 6.52825C14.271 4.87467 12.1364 3 9 3C5.86358 3 3.72897 4.87467 2.45617 6.52825C1.81872 7.3564 1.5 7.77045 1.5 9ZM9 6.1875C7.4467 6.1875 6.1875 7.4467 6.1875 9C6.1875 10.5533 7.4467 11.8125 9 11.8125C10.5533 11.8125 11.8125 10.5533 11.8125 9C11.8125 7.4467 10.5533 6.1875 9 6.1875Z" fill="#1C274C"/>
</svg>
