<svg width="16" height="16" viewBox="0 0 16 16" fill="none" xmlns="http://www.w3.org/2000/svg">
<path d="M10.553 7.54408C10.337 6.33008 9.2755 5.40708 8 5.40708C7.2845 5.40708 6.6355 5.69758 6.166 6.16808L4.933 4.93408C5.8345 4.41058 6.8825 4.11108 7.9995 4.11108C10.5925 4.11108 12.8065 5.72358 13.7035 8.00008C13.1925 9.29508 12.2555 10.3761 11.0655 11.0666L9.8315 9.83358C10.205 9.46108 10.4645 8.97508 10.556 8.43258H9.4945C9.4205 8.68658 9.2845 8.91458 9.1035 9.09758L8.4385 8.43258H7.1815L8.2795 9.53058C8.189 9.54658 8.0955 9.55558 7.9995 9.55558C7.2895 9.55558 6.692 9.08158 6.5045 8.43308H5.443C5.649 9.65808 6.716 10.5931 7.9995 10.5931C8.3895 10.5931 8.7605 10.5061 9.093 10.3511L10.2165 11.4746C9.5295 11.7421 8.782 11.8886 7.9995 11.8886C5.4065 11.8886 3.1925 10.2761 2.2955 7.99958C2.6935 6.98958 3.3515 6.10958 4.186 5.44408L5.648 6.90608C5.5545 7.10608 5.486 7.31958 5.446 7.54358H7.549L6.901 6.89558C7.183 6.61658 7.5705 6.44408 7.999 6.44408C8.701 6.44408 9.2925 6.90608 9.487 7.54358H10.552L10.553 7.54408Z" fill="#181D1F"/>
</svg>
