<svg width="24" height="24" viewBox="0 0 24 24" fill="none" xmlns="http://www.w3.org/2000/svg">
<path d="M19.6875 5.4375C19.9688 5.4375 20.1797 5.64844 20.1797 5.92969V8.36719C20.1797 8.625 19.9688 8.85938 19.6875 8.85938H18.5625V18.7266C18.5625 19.9922 17.5312 21 16.2891 21H7.71094C7.10156 21 6.53906 20.7656 6.11719 20.3438C5.67188 19.9219 5.4375 19.3359 5.4375 18.7266V8.85938H4.3125C4.03125 8.85938 3.82031 8.625 3.82031 8.36719V5.92969C3.82031 5.64844 4.03125 5.4375 4.3125 5.4375H8.67188V3.49219C8.67188 3.23438 8.88281 3 9.16406 3H14.8359C15.1172 3 15.3281 3.23438 15.3281 3.49219V5.4375H19.6875ZM9.67969 4.00781V5.4375H14.3203V4.00781H9.67969ZM19.1953 7.85156V6.42188H4.80469V7.85156H19.1953ZM17.5781 18.7266V8.85938H6.42188V18.7266C6.42188 19.0781 6.5625 19.3828 6.82031 19.6406C7.05469 19.875 7.35938 19.9922 7.71094 19.9922H16.2891C17.0156 19.9688 17.5547 19.4297 17.5781 18.7266ZM9.16406 18.5625C8.88281 18.5625 8.67188 18.3516 8.67188 18.0703V10.7812C8.67188 10.5234 8.88281 10.2891 9.16406 10.2891C9.44531 10.2891 9.67969 10.5234 9.67969 10.7812V18.0703C9.67969 18.3516 9.44531 18.5625 9.16406 18.5625ZM12 18.5625C11.7188 18.5625 11.5078 18.3516 11.5078 18.0703V10.7812C11.5078 10.5234 11.7188 10.2891 12 10.2891C12.2812 10.2891 12.4922 10.5234 12.4922 10.7812V18.0703C12.4922 18.3516 12.2812 18.5625 12 18.5625ZM14.8359 18.5625C14.5547 18.5625 14.3203 18.3516 14.3203 18.0703V10.7812C14.3203 10.5234 14.5547 10.2891 14.8359 10.2891C15.1172 10.2891 15.3281 10.5234 15.3281 10.7812V18.0703C15.3281 18.3516 15.1172 18.5625 14.8359 18.5625Z" fill="#626469"/>
</svg>
