<svg width="16" height="16" viewBox="0 0 16 16" fill="none" xmlns="http://www.w3.org/2000/svg">
<path fill-rule="evenodd" clip-rule="evenodd" d="M5.47 3.46995C5.61062 3.3295 5.80125 3.25061 6 3.25061C6.19875 3.25061 6.38937 3.3295 6.53 3.46995L10.53 7.46995C10.6704 7.61058 10.7493 7.8012 10.7493 7.99995C10.7493 8.1987 10.6704 8.38932 10.53 8.52995L6.53 12.53C6.38782 12.6624 6.19977 12.7346 6.00547 12.7311C5.81117 12.7277 5.62579 12.649 5.48837 12.5116C5.35096 12.3742 5.27225 12.1888 5.26882 11.9945C5.26539 11.8002 5.33752 11.6121 5.47 11.47L8.94 7.99995L5.47 4.52995C5.32955 4.38933 5.25066 4.1987 5.25066 3.99995C5.25066 3.8012 5.32955 3.61058 5.47 3.46995Z" fill="#181D1F" fill-opacity="0.9"/>
</svg>
