<svg width="24" height="24" viewBox="0 0 24 24" fill="none" xmlns="http://www.w3.org/2000/svg">
<path d="M16.9688 11.5078C17.2266 11.5078 17.4609 11.7188 17.4609 12C17.4609 12.2812 17.2266 12.4922 16.9688 12.4922H12.4922V16.9453C12.4922 17.2266 12.2812 17.4609 12 17.4609C11.7188 17.4609 11.5078 17.2266 11.5078 16.9453V12.4922H7.03125C6.77344 12.4922 6.53906 12.2812 6.53906 12C6.53906 11.7188 6.77344 11.5078 7.03125 11.5078H11.5078V7.05469C11.5078 6.77344 11.7188 6.53906 12 6.53906C12.2812 6.53906 12.4922 6.77344 12.4922 7.05469V11.5078H16.9688Z" fill="white" stroke="white" stroke-width="1.33333"/>
</svg>
